<svg version="1.2" xmlns="http://www.w3.org/2000/svg" viewBox="0 0 1200 800" width="1200" height="800">
	<title>bck-04</title>
	<defs>
		<clipPath clipPathUnits="userSpaceOnUse" id="cp1">
			<path d="m0 0h1200v800h-1200z"/>
		</clipPath>
		<clipPath clipPathUnits="userSpaceOnUse" id="cp2">
			<path d="m0 0h1200v800h-1200z"/>
		</clipPath>
		<clipPath clipPathUnits="userSpaceOnUse" id="cp3">
			<path d="m0 0h1200v800h-1200z"/>
		</clipPath>
		<clipPath clipPathUnits="userSpaceOnUse" id="cp4">
			<path d="m0 0h1200v800h-1200z"/>
		</clipPath>
		<clipPath clipPathUnits="userSpaceOnUse" id="cp5">
			<path d="m0 0h1200v800h-1200z"/>
		</clipPath>
		<clipPath clipPathUnits="userSpaceOnUse" id="cp6">
			<path d="m0 0h1200v800h-1200z"/>
		</clipPath>
		<clipPath clipPathUnits="userSpaceOnUse" id="cp7">
			<path d="m0 0h1200v800h-1200z"/>
		</clipPath>
		<clipPath clipPathUnits="userSpaceOnUse" id="cp8">
			<path d="m0 0h1200v800h-1200z"/>
		</clipPath>
		<clipPath clipPathUnits="userSpaceOnUse" id="cp9">
			<path d="m0 0h1200v800h-1200z"/>
		</clipPath>
		<clipPath clipPathUnits="userSpaceOnUse" id="cp10">
			<path d="m0 0h1200v800h-1200z"/>
		</clipPath>
		<clipPath clipPathUnits="userSpaceOnUse" id="cp11">
			<path d="m0 0h1200v800h-1200z"/>
		</clipPath>
		<clipPath clipPathUnits="userSpaceOnUse" id="cp12">
			<path d="m0 0h1200v800h-1200z"/>
		</clipPath>
	</defs>
	<style>
		.s0 { fill: #508d5c } 
		.s1 { fill: #81a9c6 } 
		.s2 { fill: #f3f0d8 } 
		.s3 { fill: #de6f3b } 
		.s4 { fill: #dc4037 } 
		.s5 { fill: #695dc4 } 
		.s6 { fill: #e8d8cf } 
		.s7 { fill: #e6a7c6 } 
		.s8 { fill: #98b8d4 } 
		.s9 { fill: #f1e7d8 } 
	</style>
	<g id="Background">
	</g>
	<g id="Graphic_Element">
		<g>
			<g id="Clip-Path" clip-path="url(#cp1)">
				<g>
					<g>
						<path class="s0" d="m1159.89 508.16c30.3 13.41 64.56 21.91 86.93 46.34q3.12-2.92 6.24-5.85c-41.78-26.55-62.2-75.81-79.27-122.27-2.33-6.34-5.6-13.57-12.18-15.05 11.02 36.19 22.38 73.07 44.2 103.98-38.86-10.02-75.64-28.03-107.39-52.59-14.3-11.07-29.7-27.76-47.27-33.03 9.03 16.65 34.55 32.32 49.78 43.57 18.4 13.6 38.01 25.64 58.96 34.9z"/>
						<path class="s1" d="m1029.56 445.51c0.07 4.21 1.56 8.82 5.26 10.82 4.37 2.37 10.1-0.03 13.08-4.01 2.99-3.99 3.91-9.1 4.74-14.01 2.4 3.78 3.55 8.19 5.15 12.36 1.6 4.18 3.86 8.37 7.66 10.72 3.81 2.35 9.49 2.12 12.09-1.52 1.8-2.51 1.74-5.87 1.39-8.94-0.76-6.65-2.54-13.18-5.26-19.29 5.37 3.92 11.27 8.03 17.92 7.89 6.65-0.14 13.36-6.95 10.73-13.06-1.33-3.07-4.48-4.92-7.58-6.16-5.49-2.19-11.48-3.12-17.38-2.68 4.9-2.99 9.31-7.48 10.33-13.12 1.01-5.65-2.61-12.27-8.31-12.91-2.46-0.28-4.94 0.53-7.1 1.75-6.3 3.53-10.38 10.68-10.24 17.9 0.58-7.23-1.28-14.62-5.2-20.71-1.6-2.48-3.75-4.89-6.63-5.53-5.36-1.19-10.16 4.66-10.09 10.15 0.07 5.48 3.36 10.34 6.52 14.83-3.87-3.43-6.54-8.09-10.57-11.33-4.04-3.24-10.51-4.58-14.11-0.86-2.5 2.6-2.65 6.8-1.31 10.14 1.34 3.35 3.89 6.04 6.39 8.64 3.4 3.53 8.28 5.96 11.07 9.53-4.89 5.55-8.67 11.72-8.55 19.4z"/>
						<path class="s1" d="m1118.07 393.69c-2 1.6-3.79 3.75-3.99 6.3-0.3 3.74 2.84 6.82 5.98 8.88 9.18 6 20.74 8.22 31.49 6.05-4.19 1.1-7.42 4.69-8.97 8.74-1.54 4.05-1.61 8.52-1.17 12.84 0.37 3.7 1.18 7.56 3.61 10.38 2.42 2.83 6.89 4.19 9.99 2.14 1.82-1.21 2.84-3.29 3.67-5.31 3.1-7.53 4.87-15.61 5.19-23.74 3.17 5.5 6.67 11.32 12.37 14.11 5.71 2.8 14.19 0.79 15.75-5.37 0.89-3.49-0.64-7.13-2.51-10.21-2.93-4.84-6.8-9.1-11.33-12.47 6.85 1.54 14.56 2.95 20.46-0.86 1.31-0.85 2.51-1.99 3.06-3.45 0.93-2.44-0.13-5.21-1.64-7.34-5.82-8.22-18.94-9.96-26.7-3.53 7.42-5.63 8.32-17.98 1.81-24.64-2.05-2.1-4.9-3.68-7.8-3.3-2.56 0.33-4.71 2.11-6.34 4.1-5.64 6.92-6.36 17.43-1.72 25.05q-1.59-5.36-3.17-10.72c-1.07-3.63-2.51-7.7-6-9.17-13.7-5.82-9.09 15.69-6.72 20.76-7.87-4.23-17.94-5.1-25.32 0.76z"/>
						<path class="s0" d="m1090.75 485.23c-19.32 1.03-39.66 7.68-57.33-0.22 2.07 9.67 9.58 17.52 18.39 22 8.8 4.49 18.81 6.02 28.66 6.71 9.77 0.68 19.85 0.55 29.02-2.89 4.41-1.66 8.5-4.05 12.8-5.98 5.62-2.53 13.75-3.15 17.35-8.18-9.53-10.81-35.27-12.18-48.89-11.44z"/>
						<path class="s0" d="m1082.18 375.66c10.75 8.78 18.26 21.12 22.63 34.29 4.37 13.18 5.75 27.19 5.64 41.07-0.05 6.54-0.16 14.55-4.33 19.83-11.16-9.06-11.25-33.2-12.5-46.51-1.56-16.61-2.69-33.99-11.44-48.68z"/>
						<path class="s0" d="m1227.8 458.59c5.4-9.43 11.59-18.43 16.3-28.22 4.72-9.8 7.93-20.64 6.87-31.46-7.45 11.88-15.85 23.16-25.1 33.69-9.52 10.83-20.16 21.22-25.69 34.54-2.24 5.4-6.41 40.84 7.15 37.98 4.15-0.87 17.04-40.54 20.47-46.53z"/>
						<path class="s2" d="m1045.82 420.21c-0.4 4.97 1.49 10.43 5.8 12.92 1.77 1.03 3.83 1.49 5.88 1.54 2.81 0.08 5.78-0.71 7.72-2.74 1.69-1.78 2.4-4.28 2.69-6.71 0.39-3.15 0.13-6.51-1.54-9.2-5.72-9.21-19.65-6.97-20.55 4.19z"/>
						<path class="s2" d="m1149.59 404.68c-0.4 4.96 1.49 10.42 5.8 12.92 1.77 1.03 3.84 1.49 5.88 1.54 2.81 0.07 5.78-0.71 7.72-2.75 1.69-1.77 2.4-4.27 2.7-6.71 0.38-3.14 0.13-6.5-1.54-9.19-5.73-9.21-19.66-6.97-20.56 4.19z"/>
					</g>
				</g>
			</g>
			<g id="Clip-Path" clip-path="url(#cp2)">
				<g>
					<g>
						<path class="s0" d="m955.17 685.03l22.18 4.46c0 0 15.34-111.68 95.77-97.96 80.43 13.72 48.18 112.55 48.18 112.55l23.4 5.54c0 0 49.36-121.77-60.16-139.54-109.51-17.76-129.37 114.95-129.37 114.95z"/>
						<path class="s3" d="m1013.38 682.95l-18.8-5.81c0 0 22.92-93.71 74.79-81.73 51.87 11.98 39.84 88.4 39.84 88.4l-17.25 1.01c0 0 13.47-65-21.37-68.71-34.83-3.71-57.21 66.84-57.21 66.84z"/>
						<path class="s4" d="m1030.88 688.16c0 0 18.44-56.8 36-49.44 17.56 7.37 9.87 61.75 9.87 61.75z"/>
					</g>
					<path class="s5" d="m943.59 683.87l-15.46-2.57c0 0 33.42-158.91 152.41-134.25 118.98 24.67 110.48 129.37 98.88 169.18l-14.49-2.41c0 0 23.45-134.79-83.41-152.59-121.38-12.52-137.94 122.64-137.94 122.64z"/>
				</g>
			</g>
			<g id="Clip-Path" clip-path="url(#cp3)">
				<g>
					<path class="s0" d="m134.33 540.88c-1.54-7.21-4.92-14.84-11.7-17.74-7.22-3.09-15.99 0.61-20.83 6.81-4.83 6.2-6.48 14.28-7.22 22.1-1.83 19.43 1.09 38.96 1.68 58.46 0.6 19.51-1.44 39.98-12.01 56.38-5.28-29.64-16.32-58.25-32.3-83.76-3.67-5.85-7.8-11.73-13.8-15.12-6.01-3.39-14.38-3.54-19.17 1.42-3.75 3.89-4.45 9.81-3.93 15.18 1.59 16.48 12.44 30.48 23.79 42.52 11.35 12.05 23.94 23.61 30.59 38.76 6.65 15.15 5.4 35.39-7.86 45.29q-7.95-18.28-15.89-36.57c-5.16-11.88-10.44-23.96-18.85-33.82-8.4-9.85-20.55-17.34-33.5-17.03-7.04 0.18-14.26 2.87-18.68 8.35-4.43 5.48-5.37 13.93-1.19 19.6 5.05 6.86 14.78 7.51 23 9.72 23.43 6.29 38.76 28.1 52.05 48.4 2.36 3.59 4.79 7.41 5 11.7 0.16 3.45-1.14 6.78-2.48 9.96-5.66 13.4-12.49 26.3-20.4 38.51-10.6-10.65-14.46-26.07-18.23-40.62-3.77-14.55-8.46-29.94-20-39.56-11.55-9.62-32.12-9.67-39.21 3.58-4.21 7.89-2.35 17.92 2.39 25.51 4.74 7.58 11.94 13.25 19 18.75q19.12 14.91 38.25 29.83c4.77 3.72 9.97 8.24 10.19 14.29 0.11 3.15-1.2 6.17-2.6 9-19.65 39.68-59.25 64.86-96.97 88.04 0.63 6.16 9.92 5.41 15.44 2.62 36.12-18.27 67.6-45.61 90.76-78.8 8.35 12.18 22.64 19.26 37.15 22.04 14.51 2.77 29.45 1.73 44.18 0.68 10.93-0.78 24.82-4.2 26.13-15.07 1.25-10.39-10.77-17.32-21.14-18.72-22.58-3.04-45.27 5.72-68.02 4.45-2.51-0.14-5.12-0.43-7.26-1.76-7.73-4.79-3.22-16.69 2.02-24.13 38.24 7.65 79.12 1.33 113.26-17.53 6.29-3.47 12.99-8.32 13.77-15.46 1.17-10.68-11.36-17.54-22.03-18.81-36.79-4.35-70.17 19.97-99.21 42.98 2.34-12.04 7.47-23.53 14.86-33.32 2.14-2.84 4.49-5.55 7.28-7.75 4.45-3.52 9.82-5.61 15.09-7.71 33.77-13.48 66.54-29.49 97.94-47.84 5.24-3.06 11.09-7.26 11.11-13.33 0.02-5.56-5.34-9.97-10.84-10.79-5.5-0.83-11.02 1.04-16.21 3.04-35.51 13.67-68.08 34.95-94.85 62 9.4-7.65 11.35-20.94 16.3-32 7.82-17.47 23.92-30.09 41.33-38.06 17.41-7.96 36.34-11.88 54.9-16.55 6.83-1.72 13.91-3.71 19.08-8.47 5.18-4.77 7.69-13.2 3.7-18.99-3.59-5.21-10.74-6.41-17.06-6.24-33.45 0.87-51.01 24.91-77.08 40.3 7.89-29.21 27.24-52.09 20.28-84.72z"/>
				</g>
			</g>
			<g id="Clip-Path" clip-path="url(#cp4)">
				<g>
					<path class="s1" d="m807.12 509.92c-2.64-4.23-6.55-8.31-11.53-8.6-5.32-0.31-10.05 4.07-11.7 9.13-1.65 5.05-0.85 10.58 0.48 15.73 3.3 12.8 9.66 24.56 14.52 36.85 4.87 12.28 8.28 25.78 5.32 38.66-10.18-17.66-23.79-33.34-39.84-45.91-3.68-2.88-7.66-5.68-12.27-6.45-4.6-0.78-9.96 1.05-11.87 5.31-1.5 3.34-0.58 7.27 0.98 10.58 4.81 10.12 14.94 16.54 24.94 21.6 9.99 5.06 20.67 9.52 28.39 17.65 7.72 8.12 11.58 21.29 5.42 30.65q-9.27-9.82-18.54-19.64c-6.02-6.38-12.16-12.85-19.78-17.2-7.62-4.34-17.08-6.31-25.25-3.14-4.44 1.73-8.42 5.11-9.98 9.62-1.55 4.5-0.21 10.1 3.75 12.75 4.8 3.21 11.14 1.39 16.89 0.9 16.37-1.38 31.14 8.98 44.28 18.85 2.33 1.74 4.75 3.62 5.87 6.3 0.9 2.16 0.84 4.58 0.72 6.92-0.52 9.83-1.91 19.62-4.14 29.21-9.2-4.34-15.2-13.28-20.95-21.67-5.75-8.4-12.27-17.12-21.84-20.59-9.56-3.48-22.68 1.22-24.14 11.3-0.87 5.99 2.62 11.95 7.39 15.69 4.76 3.74 10.65 5.69 16.41 7.57q15.61 5.1 31.22 10.2c3.9 1.27 8.25 2.95 9.78 6.75 0.79 1.99 0.65 4.21 0.41 6.34-3.38 29.78-22.81 54.93-41.5 78.37 1.82 3.77 7.56 1.16 10.44-1.89 18.79-19.94 32.55-44.59 39.66-71.06 8.13 5.84 18.85 7.06 28.73 5.49 9.88-1.57 19.16-5.67 28.3-9.72 6.78-3.01 14.84-8.39 13.17-15.61-1.59-6.91-10.84-8.56-17.76-7.06-15.09 3.25-27.52 14.05-42.3 18.48-1.63 0.49-3.36 0.9-5.03 0.55-6.03-1.27-5.89-9.89-4.26-15.83 26.11-3.93 50.69-17.36 68.09-37.22 3.21-3.66 6.36-8.29 5.22-13.01-1.71-7.08-11.27-8.57-18.36-6.91-24.43 5.69-40.1 28.85-53.3 50.19-1.27-8.21-0.65-16.71 1.81-24.64 0.71-2.3 1.58-4.57 2.85-6.61 2.02-3.27 4.96-5.83 7.83-8.38 18.41-16.36 35.6-34.09 51.37-53 2.63-3.15 5.39-7.17 4.01-11.04-1.27-3.55-5.69-5.12-9.39-4.38-3.69 0.74-6.77 3.19-9.62 5.66-19.47 16.88-35.31 37.92-46.14 61.31 4.22-7.04 2.41-15.95 3.02-24.13 0.96-12.93 8.31-24.67 17.57-33.75 9.25-9.07 20.4-15.92 31.15-23.17 3.95-2.66 8-5.56 10.2-9.78 2.2-4.23 1.86-10.17-2.02-12.94-3.47-2.49-8.31-1.61-12.29-0.06-21.1 8.26-26.76 27.61-39.82 43.4-1.69-20.41 5.37-39.43-6.57-58.62z"/>
				</g>
			</g>
			<g id="Clip-Path" clip-path="url(#cp5)">
				<g>
					<path class="s0" d="m632.11 734.5c-12.52-12.79-13.5-33.16-9.27-50.56 4.23-17.39 12.77-33.52 16.83-50.95 7.96-34.15-3-72.08-27.95-96.73 5.39 14.8 5.95 31.31 1.58 46.44-3.77 13.02-11.08 25.04-12.89 38.48-4.42 32.72 24.32 66.49 10.85 96.64-9.34-10.27-22.3-16.45-32.84-25.49-10.55-9.03-18.96-23.34-14.31-36.42 8.44-23.77-10.8-49-21.14-72-2.9-6.45-10.43-13.76-15.66-9 11.19 27.48 18.02 56.73 20.17 86.32-21.85-27.03-70.91-15.85-92.58-43.02-10.38-13-11.06-30.99-11.29-47.63-8.96 16.5-15.16 35.14-13.47 53.84 1.69 18.69 12.5 37.27 29.81 44.53 12.4 5.21 26.43 4.23 39.79 2.7 13.35-1.53 27.08-3.49 40.08-0.03 12.99 3.45 25.2 13.96 25.91 27.39 0.26 5.88-4.85 10.83-10.42 12.72-5.57 1.9-11.61 1.57-17.48 1.89-23.08 1.29-45.26 13.85-58.23 32.97 19.08 6.77 40.03 10.07 59.62 4.97 19.59-5.09 37.44-19.79 42.33-39.43 18.44 16.95 37.55 33.17 57.26 48.63q2.04-4.62 4.07-9.24c-5.63-2.17-6.55-12.7-10.77-17.02z"/>
					<path class="s6" d="m517.78 587.53c-8.83-1.95-16.28-7.66-23.42-13.21-7.13-5.55-14.6-11.25-23.43-13.17-9.1-1.97-20.77-0.79-25.39-8.87-4.37-7.62 2.54-17.71 11.03-19.93 8.5-2.22 17.38 0.88 25.61 3.93-4.15-8-7.98-18.73-1.65-25.15 4.46-4.52 12.18-4.17 17.64-0.93 5.46 3.23 9.19 8.66 12.74 13.92-2-6.62-2.79-13.87-0.51-20.41 2.27-6.53 8.15-12.11 15.06-12.49 6.91-0.37 13.92 5.77 13.15 12.64 0.57-5.29 1.18-10.72 3.69-15.41 2.52-4.69 7.41-8.51 12.72-8.11 6.2 0.47 10.78 6.56 11.68 12.71 0.91 6.15-0.97 12.33-2.83 18.27-6.64 21.14-12.42 83.65-46.09 76.21z"/>
				</g>
			</g>
			<g id="Clip-Path" clip-path="url(#cp6)">
				<g>
					<g>
						<path class="s7" d="m868.95 533.39c-0.55-3.96-2.7-9-6.65-8.38-3.21 0.5-4.41 4.43-4.83 7.65-1.77 13.36-1.89 26.94-0.39 40.33-6.2-12.2-14.81-23.17-25.18-32.11-2.28-1.96-5.07-3.95-8.03-3.4-2.9 0.54-4.88 3.49-5.16 6.43-0.28 2.93 0.8 5.82 2.07 8.48 6.25 13.09 18.03 23.43 31.82 27.93-8.49-0.86-16.64-3.96-25.13-4.84-8.49-0.88-18.11 1.05-23.08 7.99-0.88 1.22-1.61 2.67-1.44 4.17 0.4 3.43 4.77 4.55 8.22 4.8 13.59 0.95 27.23 1.24 40.84 0.85-14.58 7.81-30.63 17.44-34.38 33.55-0.88 3.79-0.59 8.56 2.77 10.53 4.23 2.47 9.26-1.41 12.5-5.07 7.69-8.67 14.79-17.87 21.23-27.5-3.65 12.03-5.45 24.63-5.32 37.2 0.04 3.35 0.24 6.8 1.76 9.78 1.52 2.98 4.69 5.36 8.01 4.95 5.49-0.67 7.45-7.52 8.02-13.01q1.81-17.59 1.89-35.27c4.26 15.8 12.07 33.42 27.92 37.5 1.27 0.33 2.65 0.56 3.89 0.12 3.92-1.39 3.1-7.16 1.42-10.97-4.23-9.6-9.05-18.95-14.42-27.97 8.12 5.52 17.25 9.56 26.8 11.84 3.01 0.73 6.23 1.27 9.16 0.27 2.94-0.99 5.41-4 4.77-7.03-0.49-2.31-2.52-3.92-4.45-5.28-10.33-7.32-21.6-13.33-33.43-17.84 7.79-2.55 15.13-6.5 21.56-11.59 4.01-3.17 7.69-9.5 3.76-12.76-3.02-2.5-7.53-0.34-10.68 1.99-8.15 6.03-15.55 13.06-21.99 20.88 11.09-12.76 18.08-29.04 19.69-45.87 0.28-3.02-0.07-6.85-2.9-7.95-2.49-0.97-5.14 0.93-6.97 2.88-10.25 10.88-13.81 26.26-16.98 40.87 5.88-16.69 9.56-34.14 10.92-51.77-3.01-1.07-6.45 0.51-8.48 2.97-2.03 2.47-2.95 5.64-3.73 8.74-1.98 7.89-2.91 15.91-4.5 23.86 0.44-9.36 0.39-18.65-0.9-27.95z"/>
						<path class="s4" d="m858.27 575.43c-4.99 4.2-7.64 10.74-8.01 17.25-0.19 3.48 0.25 7.11 2.06 10.09 1.34 2.23 3.38 3.99 5.65 5.26 7.69 4.3 18.12 2.63 24.37-3.59 4.66-4.63 6.98-11.59 5.73-18.04-2.59-13.41-19.19-19.92-29.8-10.97z"/>
					</g>
				</g>
			</g>
			<g id="Clip-Path" clip-path="url(#cp7)">
				<g>
					<g>
						<path class="s7" d="m738.62 453.64c-0.55-3.95-2.71-8.99-6.66-8.38-3.21 0.51-4.41 4.44-4.83 7.66-1.76 13.36-1.89 26.93-0.38 40.32-6.21-12.19-14.82-23.17-25.19-32.1-2.28-1.96-5.06-3.95-8.02-3.4-2.9 0.54-4.88 3.49-5.16 6.42-0.28 2.94 0.79 5.83 2.06 8.49 6.25 13.09 18.03 23.43 31.83 27.92-8.5-0.86-16.64-3.95-25.13-4.83-8.5-0.88-18.12 1.05-23.09 7.99-0.88 1.22-1.6 2.67-1.43 4.17 0.39 3.43 4.76 4.55 8.21 4.79 13.59 0.96 27.23 1.25 40.85 0.86-14.58 7.8-30.63 17.44-34.39 33.55-0.88 3.79-0.59 8.56 2.77 10.53 4.23 2.46 9.26-1.41 12.5-5.07 7.7-8.67 14.79-17.87 21.23-27.5-3.65 12.03-5.45 24.62-5.31 37.2 0.03 3.34 0.23 6.8 1.75 9.78 1.52 2.98 4.7 5.36 8.02 4.95 5.48-0.68 7.44-7.52 8.01-13.02q1.81-17.58 1.9-35.26c4.25 15.8 12.06 33.42 27.91 37.5 1.28 0.33 2.65 0.55 3.89 0.12 3.93-1.39 3.1-7.16 1.42-10.97-4.23-9.61-9.05-18.95-14.42-27.97 8.12 5.52 17.25 9.56 26.8 11.84 3.01 0.72 6.23 1.26 9.17 0.27 2.93-0.99 5.4-4 4.76-7.04-0.49-2.3-2.52-3.91-4.44-5.27-10.34-7.32-21.6-13.33-33.44-17.84 7.8-2.56 15.13-6.5 21.57-11.6 4-3.17 7.68-9.49 3.75-12.75-3.02-2.5-7.53-0.34-10.68 1.99-8.15 6.02-15.55 13.05-21.99 20.88 11.09-12.76 18.08-29.04 19.69-45.87 0.29-3.03-0.06-6.85-2.9-7.96-2.49-0.97-5.14 0.93-6.97 2.88-10.25 10.88-13.81 26.27-16.97 40.87 5.87-16.68 9.55-34.13 10.91-51.76-3.01-1.07-6.45 0.51-8.48 2.97-2.03 2.46-2.94 5.64-3.72 8.73-1.99 7.89-2.92 15.92-4.51 23.86 0.44-9.36 0.39-18.64-0.9-27.95z"/>
						<path class="s4" d="m727.93 495.69c-4.98 4.2-7.64 10.74-8 17.24-0.2 3.48 0.25 7.12 2.05 10.1 1.34 2.23 3.38 3.98 5.65 5.25 7.69 4.31 18.13 2.64 24.37-3.58 4.66-4.63 6.98-11.59 5.73-18.05-2.59-13.4-19.19-19.91-29.8-10.96z"/>
					</g>
				</g>
			</g>
			<g id="Clip-Path" clip-path="url(#cp8)">
				<g>
					<g>
						<path class="s8" d="m315 552.57c-0.65-4.74-3.23-10.77-7.96-10.04-3.84 0.6-5.28 5.31-5.78 9.17-2.11 15.99-2.26 32.23-0.46 48.26-7.43-14.6-17.73-27.73-30.15-38.42-2.72-2.35-6.06-4.73-9.6-4.07-3.47 0.64-5.84 4.17-6.18 7.69-0.33 3.51 0.95 6.97 2.47 10.15 7.48 15.67 21.59 28.04 38.1 33.42-10.17-1.02-19.92-4.73-30.08-5.78-10.17-1.06-21.68 1.26-27.63 9.56-1.05 1.46-1.92 3.2-1.72 4.99 0.48 4.11 5.71 5.45 9.83 5.74 16.27 1.15 32.59 1.49 48.89 1.03-17.45 9.34-36.66 20.87-41.15 40.15-1.06 4.54-0.71 10.25 3.31 12.6 5.06 2.95 11.08-1.68 14.96-6.06 9.21-10.38 17.7-21.39 25.41-32.92-4.37 14.4-6.52 29.48-6.36 44.53 0.04 4 0.28 8.14 2.1 11.7 1.82 3.57 5.62 6.41 9.59 5.93 6.57-0.81 8.92-9 9.59-15.58 1.45-14.02 2.21-28.12 2.28-42.21 5.09 18.91 14.43 40 33.41 44.89 1.52 0.39 3.17 0.66 4.65 0.13 4.7-1.65 3.71-8.56 1.7-13.12-5.06-11.5-10.83-22.69-17.25-33.48 9.71 6.61 20.64 11.44 32.07 14.17 3.61 0.87 7.46 1.51 10.97 0.33 3.51-1.19 6.47-4.8 5.7-8.42-0.58-2.76-3.01-4.69-5.32-6.32-12.37-8.76-25.85-15.95-40.01-21.35 9.32-3.06 18.11-7.78 25.8-13.88 4.8-3.79 9.2-11.36 4.5-15.26-3.61-2.99-9.01-0.41-12.78 2.38-9.75 7.21-18.62 15.62-26.32 24.99 13.28-15.28 21.64-34.76 23.56-54.9 0.35-3.63-0.07-8.2-3.46-9.53-2.99-1.16-6.16 1.12-8.35 3.45-12.27 13.02-16.53 31.43-20.32 48.92 7.03-19.97 11.44-40.86 13.07-61.96-3.6-1.28-7.72 0.61-10.15 3.56-2.43 2.94-3.53 6.75-4.46 10.45-2.38 9.44-3.49 19.05-5.4 28.56 0.54-11.21 0.47-22.32-1.07-33.45z"/>
						<path class="s4" d="m302.21 602.89c-5.96 5.02-9.14 12.85-9.58 20.64-0.23 4.16 0.31 8.51 2.46 12.08 1.61 2.67 4.05 4.77 6.77 6.29 9.2 5.15 21.69 3.16 29.17-4.29 5.57-5.55 8.35-13.88 6.86-21.6-3.11-16.05-22.97-23.84-35.68-13.12z"/>
					</g>
				</g>
			</g>
			<g id="Clip-Path" clip-path="url(#cp9)">
				<path class="s9" d="m3.32 150.25c-23.54 5.53-39.92 33.56-30.76 55.93-14.46-5.08-31-5.47-44.77 1.25-13.78 6.71-24.08 21.21-23.61 36.53 0.47 15.32 13.21 29.96 28.53 30.5-15.49 5.35-24.89 23.12-22.57 39.34 2.32 16.23 14.92 29.99 30.22 35.85 15.31 5.87 32.79 4.48 48.02-1.57-4.52 9.55 1.3 21.57 10.41 26.93 9.11 5.36 20.37 5.46 30.85 4.05 11.68-1.57 23.42-4.98 32.74-12.19 9.32-7.22 15.84-18.75 14.79-30.49 14.67 19.41 46.14 19.75 65.43 4.93 9.64-7.42 17.12-18.58 17.26-30.75 0.15-12.16-8.69-24.64-20.77-26.01 24.25 2.22 46.49-23.99 40.36-47.55-6.13-23.57-38.33-35.61-58.42-21.85 5.42-15.72-2.08-34.85-16.74-42.7-7.95-4.27-17.6-4.95-26.23-2.54-15.26 4.26-10.79 9.81-22.88 1.23-16.98-12.05-27.95-26.51-51.86-20.89z"/>
			</g>
			<g id="Clip-Path" clip-path="url(#cp10)">
				<path class="s9" d="m763.36-0.47c-23.54 5.54-39.92 33.56-30.76 55.94-14.46-5.08-30.99-5.47-44.77 1.24-13.78 6.72-24.08 21.21-23.61 36.53 0.47 15.32 13.21 29.96 28.53 30.5-15.49 5.35-24.89 23.12-22.57 39.35 2.32 16.22 14.92 29.98 30.22 35.85 15.31 5.87 32.79 4.48 48.02-1.57-4.52 9.55 1.3 21.57 10.41 26.93 9.11 5.36 20.37 5.46 30.85 4.05 11.68-1.57 23.43-4.98 32.74-12.2 9.32-7.21 15.84-18.75 14.8-30.49 14.66 19.41 46.13 19.76 65.42 4.93 9.64-7.41 17.12-18.58 17.26-30.74 0.15-12.17-8.68-24.65-20.77-26.02 24.25 2.23 46.49-23.98 40.36-47.55-6.13-23.57-38.33-35.61-58.42-21.84 5.42-15.73-2.08-34.85-16.74-42.71-7.95-4.26-17.6-4.95-26.23-2.54-15.26 4.27-10.79 9.82-22.88 1.23-16.98-12.05-27.95-26.51-51.86-20.89z"/>
			</g>
			<g id="Clip-Path" clip-path="url(#cp11)">
				<path class="s9" d="m1177 87.61c-23.53 5.53-39.92 33.56-30.76 55.93-14.46-5.07-30.99-5.46-44.77 1.25-13.78 6.72-24.08 21.21-23.61 36.53 0.47 15.32 13.22 29.96 28.53 30.5-15.49 5.35-24.89 23.12-22.56 39.35 2.32 16.22 14.91 29.98 30.22 35.85 15.3 5.87 32.78 4.48 48.01-1.57-4.52 9.55 1.31 21.57 10.42 26.93 9.11 5.36 20.37 5.46 30.84 4.05 11.68-1.57 23.43-4.98 32.75-12.2 9.31-7.21 15.84-18.75 14.79-30.49 14.66 19.41 46.13 19.76 65.42 4.93 9.65-7.41 17.12-18.58 17.27-30.74 0.14-12.17-8.69-24.65-20.78-26.02 24.25 2.22 46.5-23.98 40.36-47.55-6.13-23.57-38.33-35.61-58.42-21.84 5.42-15.73-2.07-34.85-16.74-42.71-7.95-4.26-17.6-4.95-26.23-2.54-15.26 4.27-10.79 9.82-22.88 1.23-16.98-12.05-27.94-26.51-51.86-20.89z"/>
			</g>
			<g id="Clip-Path" clip-path="url(#cp12)">
				<path class="s9" d="m301.08 0.53c-23.53 5.53-39.92 33.55-30.76 55.93-14.46-5.08-30.99-5.47-44.77 1.24-13.78 6.72-24.08 21.22-23.61 36.54 0.47 15.32 13.22 29.95 28.53 30.5-15.49 5.34-24.89 23.11-22.57 39.34 2.33 16.23 14.92 29.98 30.23 35.85 15.3 5.87 32.78 4.48 48.01-1.57-4.52 9.55 1.31 21.57 10.42 26.93 9.1 5.36 20.37 5.46 30.84 4.05 11.68-1.57 23.43-4.98 32.74-12.19 9.32-7.22 15.85-18.76 14.8-30.49 14.66 19.41 46.13 19.75 65.42 4.93 9.65-7.42 17.12-18.59 17.27-30.75 0.14-12.17-8.69-24.65-20.78-26.02 24.25 2.23 46.5-23.98 40.36-47.55-6.13-23.56-38.33-35.6-58.42-21.84 5.42-15.73-2.07-34.85-16.74-42.71-7.95-4.26-17.6-4.95-26.23-2.53-15.26 4.26-10.79 9.81-22.88 1.23-16.98-12.06-27.94-26.52-51.86-20.89z"/>
			</g>
		</g>
	</g>
</svg>