<svg version="1.2" xmlns="http://www.w3.org/2000/svg" viewBox="0 0 750 500" width="750" height="500">
	<title>bckgrnd-4</title>
	<defs>
		<clipPath clipPathUnits="userSpaceOnUse" id="cp1">
			<path d="m0 0h750v500h-750z"/>
		</clipPath>
	</defs>
	<style>
		.s0 { fill: #fc6232 } 
		.s1 { fill: #edc137 } 
		.s2 { fill: #4c9e75 } 
		.s3 { fill: #77b384 } 
		.s4 { fill: #c7d1f8 } 
		.s5 { fill: #7b93e0 } 
		.s6 { fill: #522a68 } 
		.s7 { fill: #f4ebd9 } 
		.s8 { fill: #ff9982 } 
		.s9 { fill: #fffcf5 } 
		.s10 { fill: none;stroke: #222221;stroke-linecap: round;stroke-linejoin: round;stroke-width: .4 } 
		.s11 { fill: #222221 } 
		.s12 { fill: #b15941 } 
		.s13 { fill: #ffffff } 
		.s14 { fill: #9bc6fc } 
	</style>
	<g id="OBJECTS">
		<g>
			<path class="s0" d="m375 219.45c-108.43 0-196.32 87.9-196.32 196.32q0.01 13.46 1.77 26.43 5.64-1.48 12.86-3.18c5.91-1.39 12.59-2.87 19.97-4.35q9.56-1.94 20.66-3.84 9.27-1.59 19.55-3.08 8.02-1.16 16.61-2.2 8.94-1.09 18.46-2.03-0.35-3.83-0.35-7.75c0-47.93 38.85-86.79 86.79-86.79 47.93 0 86.79 38.86 86.79 86.79q-0.01 5.41-0.65 10.64 9.46 1.32 18.35 2.81 8.53 1.43 16.51 2.98 10.16 1.97 19.38 4.04 10.91 2.47 20.44 4.96c7.21 1.87 13.8 3.73 19.73 5.52q6.96 2.08 12.67 3.97c2.03-11.33 3.1-23 3.1-34.92 0-108.42-87.9-196.32-196.32-196.32z"/>
			<path class="s1" d="m375 239.48c-94.38 0-170.88 76.51-170.88 170.89q0.01 11.03 1.36 21.69c5.51-1.3 11.74-2.68 18.63-4.06q8.92-1.81 19.27-3.58 8.66-1.49 18.24-2.88 7.49-1.07 15.5-2.05 8.34-1.02 17.22-1.89-0.31-3.58-0.32-7.23c0-44.72 36.25-80.98 80.97-80.98 44.73 0 80.98 36.26 80.98 80.98q0 5.04-0.6 9.92 8.83 1.24 17.12 2.63 7.96 1.33 15.4 2.78 9.48 1.83 18.08 3.77 10.19 2.3 19.08 4.63c6.72 1.75 12.87 3.48 18.4 5.14 1.6-9.38 2.43-19.03 2.43-28.87 0-94.38-76.5-170.89-170.88-170.89z"/>
			<path class="s2" d="m375 258.47c-83.89 0-151.9 68.01-151.9 151.9q0 8.95 1.01 17.63 8.92-1.81 19.27-3.58 8.66-1.49 18.24-2.88 7.49-1.07 15.5-2.05 8.34-1.02 17.22-1.89-0.31-3.58-0.32-7.23c0-44.72 36.25-80.98 80.97-80.98 44.73 0 80.98 36.26 80.98 80.98q0 5.04-0.6 9.92 8.83 1.24 17.12 2.63 7.96 1.33 15.4 2.78 9.48 1.83 18.08 3.77 10.19 2.3 19.08 4.63 1.83-11.61 1.84-23.73c0-83.9-68-151.9-151.89-151.9z"/>
			<path class="s3" d="m375 278.01c-73.09 0-132.35 59.26-132.35 132.36q0 7.12 0.73 14.05 8.66-1.49 18.24-2.88 7.49-1.08 15.5-2.05 8.34-1.02 17.23-1.89-0.32-3.58-0.33-7.23c0-44.72 36.25-80.98 80.98-80.98 44.72 0 80.97 36.26 80.97 80.98q0 5.04-0.6 9.92 8.83 1.24 17.12 2.63 7.96 1.33 15.4 2.78 9.48 1.83 18.08 3.77 1.37-9.37 1.37-19.1c0.01-73.1-59.25-132.36-132.34-132.36z"/>
			<path class="s4" d="m375 296.55c-64.71 0-117.18 49.46-117.18 110.48q0 5.49 0.56 10.84 7.7-1.05 15.95-1.99 8.57-0.99 17.71-1.83-0.33-3.47-0.33-7.02c0-43.37 37.29-78.53 83.29-78.53 46 0 83.29 35.16 83.29 78.53q0 4.9-0.62 9.63 9.08 1.2 17.61 2.54 8.18 1.3 15.84 2.7 1.05-7.3 1.06-14.87c0-61.02-52.47-110.48-117.18-110.48z"/>
			<path class="s5" d="m374.9 317.37c-54.28 0-98.29 44-98.29 98.29q0 4.61 0.42 9.12 8.33-1.02 17.22-1.89-0.32-3.58-0.32-7.23c0-44.72 36.25-80.98 80.97-80.98 44.72 0 80.98 36.26 80.98 80.98q-0.01 5.04-0.61 9.92 8.83 1.24 17.12 2.63 0.79-6.17 0.8-12.55c-0.01-54.29-44.01-98.29-98.29-98.29z"/>
		</g>
		<g>
			<g id="Clip-Path" clip-path="url(#cp1)">
				<g>
					<path class="s3" d="m215.17 393.04c-6.41-11.09-18.62-18.24-30.19-17.69-0.22-6.44-1.22-12.8-3.75-18.87-4.18-10.02-12.85-18.19-23.53-20.85-17.3-4.31-28.55 7.13-34.66 21.51-7.07-4.9-15.76-7.06-24.61-4.34-9.6 2.96-16.8 11.34-19.04 20.74-13.97-1.2-28.31 2.1-33.67 17.12-2.74 7.68-1.32 16.96 4.2 23.1 6.5 7.24 15.84 7.18 24.85 7.31q1.97 0.02 3.94 0.03c3.79 1.16 7.87 1.68 11.85 2.13 10.6 1.21 21.22 2.35 31.86 3.21 20.82 1.67 41.78 2.16 62.53-0.58 8.8-1.16 20.24-1.66 27.41-7.48 7.94-6.45 7.61-17.06 2.81-25.34z"/>
					<path class="s3" d="m757.45 394.12c-6.42-11.08-18.62-18.23-30.19-17.68-0.23-6.44-1.22-12.8-3.76-18.88-4.17-10.01-12.85-18.19-23.53-20.84-17.3-4.31-28.54 7.13-34.66 21.5-7.06-4.89-15.75-7.05-24.61-4.33-9.59 2.95-16.8 11.34-19.03 20.73-13.98-1.19-28.32 2.11-33.67 17.13-2.74 7.68-1.32 16.96 4.19 23.1 6.51 7.24 15.85 7.17 24.85 7.31q1.98 0.02 3.95 0.03c3.78 1.16 7.86 1.68 11.84 2.13 10.61 1.2 21.22 2.35 31.86 3.21 20.82 1.67 41.79 2.16 62.53-0.58 8.8-1.16 20.24-1.66 27.42-7.49 7.94-6.44 7.6-17.05 2.81-25.34z"/>
					<g>
						<path class="s2" d="m603.16 389.02c-5.58-10.83-17.63-16.75-28.96-16.13-2.46-19.75-15.28-38.06-36.37-41.52-13.65-2.24-26.18 3.52-34.12 14.73-4.03 5.68-6.17 12.04-7.05 18.64-3.81-0.41-7.79 0.36-11.71 2.81-5.87 3.65-9.48 10.29-10.9 17.44-8.51 1.75-16.39 9.47-16.43 19.44-0.11 24.74 31.07 21.85 47.76 22.3 23.37 0.65 46.77 0.38 70.12-0.79 9.71-0.49 22.88 0.72 28.76-8.83 5.12-8.31 3.16-19.83-1.1-28.09z"/>
						<path class="s6" d="m541.44 362.14c-3.6-1.4-7.62-1.38-11.28-0.25-1.89 0.58-3.69 1.46-5.29 2.6-1.57 1.12-3.24 2.58-4.07 4.35-0.32 0.67-0.45 1.45-0.4 2.21q-0.62-0.12-1.24-0.11c-1.84 0.02-3.7 0.6-5.33 1.43-3.57 1.8-6.34 4.91-8.54 8.19-0.53 0.8-1.3 1.92-0.47 2.8 0.5 0.53 1.65 0.71 1.97-0.12 0.2-0.51-0.28-1.07-0.73-1.07q0.06-0.1 0.12-0.2 0.26-0.43 0.54-0.83 0.36-0.54 0.74-1.06 0.8-1.08 1.69-2.1c1.21-1.35 2.55-2.61 4.08-3.59 1.47-0.95 3.08-1.65 4.81-1.96 0.83-0.14 1.88-0.21 2.75 0.07 0.36 0.71 0.96 1.28 1.85 1.53 0.6 0.17 0.97-0.39 0.72-0.92-0.34-0.74-0.92-1.26-1.6-1.6-0.11-0.4-0.12-0.83-0.03-1.23 0.25-1.16 1.09-2.14 1.9-2.96 1.49-1.52 3.27-2.73 5.21-3.58 3.92-1.72 8.38-1.97 12.48-0.75 0.54 0.17 0.57-0.68 0.12-0.85z"/>
						<path class="s6" d="m520.95 333.14c-10.86 2.71-19.55 11.44-23.04 21.99-0.91 2.78-1.44 5.68-1.57 8.6-7.37-0.6-14.68 3.36-18.56 9.61-1.12 1.8-1.97 3.82-2.35 5.91-0.14 0.78 1.09 1.33 1.29 0.47 1.59-7 7.24-12.66 14.24-14.33 1.94-0.46 3.94-0.6 5.92-0.37 0.32 0.03 0.64-0.17 0.65-0.52 0.25-10.88 6.46-20.9 15.46-26.81 2.5-1.63 5.25-2.97 8.11-3.84 0.4-0.13 0.26-0.82-0.15-0.71z"/>
					</g>
					<g>
						<path class="s2" d="m78.17 404.38c-3.26-10.12-13.78-15.16-23.79-14.45-0.6-15.99-6.6-31.49-23.97-36.48-9.72-2.79-20.13 0.43-26.88 7.89-3.11 3.45-5.27 7.34-6.74 11.49-2.57-1.28-5.42-2.06-8.64-2.11-10.44-0.16-17.94 8.67-18.99 18.46-3.9 1.08-7.36 3.64-9.52 7.68-4.46 8.33 0 18.78 8.13 22.76 4.4 2.16 9.57 1.93 14.36 2.12q9.18 0.36 18.37 0.7 16.65 0.63 33.3 1.26c10.08 0.38 20.8 1.9 30.85 0.82 10.33-1.12 16.79-9.96 13.52-20.14z"/>
						<path class="s6" d="m72.64 396.8c-1.51-2.24-4.19-3.86-6.59-5-2.41-1.15-5.01-1.87-7.67-2.13q-0.93-0.08-1.87-0.07-0.45 0.01-0.9 0.02c-0.69 0.02-0.65-0.17-0.66-0.79 0-1.56-0.06-3.11-0.22-4.65-0.33-3-0.99-5.99-2.02-8.82-1.03-2.83-2.27-6.13-4.73-8.01-0.15-0.11-0.29 0.12-0.17 0.24 1.13 1.04 1.87 2.47 2.5 3.85q0.97 2.1 1.71 4.28c0.93 2.8 1.58 5.7 1.89 8.64q0.22 2.27 0.19 4.55c0 0.41 0.01 0.84 0.26 1.2 0.35 0.51 0.9 0.53 1.47 0.53 2.68 0.01 5.31 0.45 7.84 1.35q2.05 0.74 3.91 1.86c1.66 1 3.06 2.29 4.59 3.46 0.31 0.23 0.66-0.22 0.47-0.51z"/>
						<path class="s6" d="m42.89 391.25c-1.58-1-3.56-1.5-5.4-1.7-2.23-0.25-6.15-0.25-7.95 1.64-1.13-3.38-6.1-4.91-9.27-5.08-2.29-0.12-4.61 0.29-6.7 1.26-0.74 0.34-1.65 0.82-1.8 1.71-0.11 0.66 0.22 1.37 0.9 1.52 0.36 0.09 0.39-0.48 0.08-0.59-0.97-0.31 0.22-1.23 0.54-1.39q0.51-0.26 1.05-0.46 1.21-0.48 2.49-0.72c1.65-0.31 3.35-0.34 5.01-0.06 2.59 0.42 7.17 2.08 6.84 5.43-0.07 0.67 0.91 1.05 1.08 0.3 0.27-1.22 1.58-1.8 2.68-2.09 1.47-0.39 3.05-0.47 4.56-0.34 2.27 0.19 7.23 1.11 6.58 4.35-0.11 0.54 0.74 1.36 1.09 0.66 0.86-1.71-0.31-3.52-1.78-4.44z"/>
					</g>
					<path fill-rule="evenodd" class="s3" d="m-1.68 409.83h751.68v90.17h-751.68z"/>
					<g>
						<path class="s7" d="m499.92 41.44c4.58 0.33 9.28 0.35 13.83-0.25 2.83-0.38 5.86-1.29 7.1-4.12 1.35-3.06-1.86-6.86-4.36-5.33 0.81-2.8-0.65-6.04-3.26-7.52-2.81-1.6-5.24 0.16-6.63 2.54-1.42-3.84-7.14-2.76-6.61 1.73-4.36-2.53-10.74-0.7-11.45 4.81-0.9 6.92 6.24 7.77 11.38 8.14z"/>
						<path class="s7" d="m636.44 87.61c8.66 0.62 17.56 0.66 26.18-0.48 5.36-0.7 11.09-2.42 13.45-7.79 2.54-5.8-3.52-13-8.25-10.1 1.52-5.29-1.25-11.42-6.18-14.23-5.32-3.03-9.92 0.31-12.55 4.81-2.69-7.28-13.53-5.22-12.52 3.27-8.25-4.79-20.34-1.32-21.69 9.12-1.69 13.1 11.82 14.71 21.56 15.4z"/>
						<path class="s7" d="m86.87 139.27c-8.65 0.62-17.56 0.66-26.18-0.48-5.36-0.71-11.09-2.43-13.45-7.8-2.54-5.79 3.53-12.99 8.26-10.09-1.53-5.29 1.24-11.43 6.17-14.24 5.32-3.03 9.93 0.32 12.56 4.82 2.68-7.28 13.52-5.23 12.51 3.27 8.25-4.79 20.35-1.32 21.69 9.11 1.69 13.11-11.81 14.72-21.56 15.41z"/>
						<path class="s7" d="m759.81 269.89c-8.66 0.61-17.56 0.65-26.18-0.48-5.36-0.71-11.1-2.43-13.45-7.8-2.55-5.8 3.52-12.99 8.25-10.09-1.53-5.29 1.25-11.43 6.18-14.24 5.31-3.03 9.92 0.31 12.55 4.81 2.69-7.27 13.52-5.22 12.51 3.27 8.26-4.78 20.35-1.32 21.7 9.12 1.69 13.1-11.82 14.72-21.56 15.41z"/>
						<path class="s7" d="m257.63 47.1c3.71 0.26 7.52 0.28 11.21-0.21 2.3-0.3 4.75-1.04 5.76-3.34 1.09-2.48-1.51-5.56-3.53-4.32 0.65-2.27-0.54-4.89-2.65-6.1-2.27-1.29-4.25 0.14-5.37 2.06-1.15-3.11-5.79-2.23-5.36 1.4-3.53-2.05-8.71-0.56-9.29 3.91-0.72 5.61 5.06 6.3 9.23 6.6z"/>
						<path class="s7" d="m708.41 30.74c3.71 0.27 7.52 0.28 11.21-0.2 2.3-0.31 4.75-1.04 5.76-3.34 1.09-2.48-1.51-5.56-3.53-4.32 0.65-2.27-0.54-4.9-2.65-6.1-2.27-1.3-4.25 0.13-5.37 2.06-1.15-3.11-5.79-2.23-5.36 1.4-3.53-2.05-8.71-0.56-9.29 3.91-0.72 5.61 5.06 6.3 9.23 6.59z"/>
						<path class="s7" d="m31.61 211.89c3.71 0.26 7.52 0.28 11.21-0.21 2.3-0.3 4.75-1.04 5.76-3.33 1.09-2.49-1.51-5.57-3.53-4.33 0.65-2.26-0.54-4.89-2.65-6.09-2.28-1.3-4.25 0.13-5.38 2.06-1.15-3.12-5.79-2.24-5.35 1.4-3.54-2.05-8.72-0.57-9.29 3.9-0.73 5.61 5.06 6.3 9.23 6.6z"/>
						<path class="s7" d="m659.96 193.29c-1.01-7.82-10.07-10.42-16.25-6.83 0.75-6.37-7.36-7.9-9.38-2.45-1.97-3.37-5.42-5.88-9.4-3.61-3.7 2.11-5.78 6.71-4.63 10.67-3.55-2.17-8.09 3.22-6.19 7.56 1.77 4.02 6.07 5.31 10.08 5.84 6.46 0.85 13.13 0.82 19.61 0.36 7.31-0.52 17.42-1.72 16.16-11.54z"/>
						<path class="s7" d="m30.48 48.23c-1-7.82-10.07-10.42-16.25-6.83 0.76-6.37-7.36-7.9-9.37-2.45-1.97-3.38-5.42-5.88-9.41-3.61-3.69 2.11-5.77 6.7-4.63 10.67-3.54-2.18-8.09 3.21-6.18 7.56 1.77 4.02 6.06 5.31 10.08 5.84 6.46 0.85 13.13 0.82 19.61 0.36 7.3-0.52 17.42-1.73 16.15-11.54z"/>
						<path class="s7" d="m702.42 132.56c-0.73-5.66-7.29-7.54-11.77-4.94 0.55-4.61-5.33-5.72-6.78-1.78-1.43-2.44-3.93-4.25-6.81-2.61-2.67 1.53-4.18 4.85-3.35 7.72-2.57-1.57-5.86 2.33-4.48 5.48 1.28 2.91 4.39 3.84 7.3 4.23 4.67 0.61 9.5 0.59 14.2 0.26 5.28-0.38 12.6-1.25 11.69-8.36z"/>
						<path class="s7" d="m126.56 15.02c-0.73-5.66-7.28-7.54-11.76-4.95 0.55-4.6-5.33-5.72-6.79-1.77-1.42-2.44-3.92-4.25-6.8-2.61-2.68 1.52-4.18 4.85-3.35 7.72-2.57-1.57-5.86 2.33-4.48 5.47 1.28 2.91 4.39 3.85 7.3 4.23 4.67 0.62 9.5 0.6 14.19 0.26 5.29-0.37 12.61-1.25 11.69-8.35z"/>
					</g>
				</g>
			</g>
		</g>
		<g>
			<path class="s6" d="m225.93 456.17q-0.6-1.3-1.47-2.43c-1.22-1.56-2.78-2.82-4.6-3.62-0.6-0.27-0.81 0.68-0.28 0.92 1.57 0.73 2.96 1.86 3.99 3.24q0.76 1.02 1.26 2.19c0.37 0.87 0.53 1.77 0.79 2.67 0.2 0.68 1.18 0.46 1.13-0.23-0.06-0.92-0.44-1.91-0.82-2.74z"/>
			<path class="s6" d="m229.85 458.67q-0.41-1.49-0.95-2.93-1.03-2.82-2.49-5.44c-0.29-0.52-1.08-0.22-0.79 0.33q1.42 2.62 2.4 5.43 0.48 1.4 0.85 2.82c0.22 0.85 0.28 1.93 0.81 2.64 0.14 0.18 0.49 0.16 0.57-0.07 0.29-0.83-0.18-1.97-0.4-2.78z"/>
			<path class="s6" d="m237.31 459.12q0.01-0.6 0-1.21-0.02-1.34-0.05-2.69-0.06-2.62-0.14-5.25c-0.01-0.6-0.92-0.8-0.93-0.13q0 2.67 0.01 5.34 0 1.31 0.02 2.62c0.01 0.77-0.11 1.73 0.19 2.45 0.14 0.36 0.6 0.41 0.77 0.06 0.18-0.37 0.12-0.8 0.13-1.19z"/>
		</g>
		<g>
			<path class="s6" d="m702.12 483.57q-0.6-1.3-1.48-2.43c-1.21-1.57-2.78-2.82-4.6-3.62-0.59-0.27-0.8 0.68-0.27 0.92 1.57 0.73 2.96 1.86 3.99 3.24q0.76 1.02 1.26 2.19c0.37 0.87 0.53 1.77 0.79 2.67 0.2 0.68 1.18 0.46 1.13-0.23-0.06-0.92-0.44-1.91-0.82-2.74z"/>
			<path class="s6" d="m706.03 486.07q-0.41-1.49-0.94-2.93-1.03-2.82-2.5-5.44c-0.29-0.52-1.08-0.22-0.79 0.33q1.42 2.62 2.4 5.43 0.48 1.39 0.85 2.82c0.22 0.85 0.29 1.93 0.82 2.64 0.14 0.18 0.49 0.16 0.56-0.07 0.29-0.83-0.17-1.97-0.4-2.78z"/>
			<path class="s6" d="m713.5 486.52q0-0.6-0.01-1.21-0.01-1.34-0.05-2.69-0.05-2.63-0.13-5.25c-0.02-0.6-0.93-0.8-0.93-0.13q-0.01 2.67 0.01 5.34 0 1.31 0.01 2.62c0.02 0.77-0.1 1.73 0.19 2.45 0.15 0.36 0.6 0.41 0.78 0.06 0.17-0.36 0.12-0.8 0.13-1.19z"/>
		</g>
		<g>
			<path class="s6" d="m520.97 458.02q-0.34-0.88-0.63-1.78-0.6-1.85-1.12-3.72c-0.14-0.52-0.9-0.32-0.82 0.2q0.29 2.05 0.9 4.03 0.27 0.89 0.58 1.77c0.19 0.52 0.4 1.28 0.94 1.54 0.19 0.09 0.39 0.05 0.5-0.15 0.3-0.56-0.15-1.35-0.35-1.89z"/>
			<path class="s6" d="m528.77 457.78q-0.01-1.2-0.03-2.39-0.03-2.43-0.06-4.87c-0.01-0.61-0.95-0.79-0.96-0.11q-0.03 2.38-0.06 4.77-0.02 1.17-0.03 2.33c-0.01 0.85-0.1 1.76 0.02 2.6 0.08 0.57 1 0.85 1.1 0.14 0.11-0.8 0.03-1.66 0.02-2.47z"/>
			<path class="s6" d="m534.1 456.45q-0.99 1.55-1.99 3.09-0.55 0.85-1.11 1.7c-0.32 0.49-0.77 1.01-0.87 1.6-0.06 0.34 0.32 0.94 0.72 0.66 0.56-0.4 0.85-1.08 1.2-1.67q0.51-0.85 1.02-1.7 0.93-1.54 1.87-3.08c0.31-0.51-0.49-1.15-0.84-0.6z"/>
		</g>
		<g>
			<path class="s6" d="m42.57 458.47c-3.88-3.11-8.9-5.04-13.88-5.1-0.5-0.01-0.42 0.76 0.03 0.81 4.91 0.5 9.46 2.21 13.38 5.22 0.59 0.45 0.98-0.52 0.47-0.93z"/>
			<path class="s6" d="m50.52 447.08c-0.98 0.39-1.88 1.33-2.57 2.1q-1.11 1.23-1.87 2.7c-0.76 1.46-1.24 3.09-1.38 4.74q-0.95-1.59-1.9-3.18-1.28-2.14-2.54-4.29c-0.21-0.35-0.61 0.05-0.44 0.37q1.25 2.23 2.48 4.48c0.82 1.5 1.69 2.98 2.44 4.51 0.22 0.44 0.94 0.37 0.92-0.18-0.06-2.07 0.39-4.09 1.37-5.93q0.72-1.35 1.76-2.48 0.5-0.54 1.06-1.01c0.4-0.33 0.88-0.59 1.26-0.96 0.39-0.39-0.09-1.07-0.59-0.87z"/>
		</g>
		<g>
			<path class="s6" d="m21.68 239.13c-10.83 7.03-18.43 17.52-21.58 30.06-0.04 0.17 0.21 0.24 0.26 0.08 3.49-12.28 10.98-22.54 21.71-29.48 0.41-0.26 0.03-0.92-0.39-0.66z"/>
			<path class="s6" d="m33.76 239.86c-8.03 2.8-14.85 7.73-19.86 14.62-0.13 0.19 0.18 0.43 0.33 0.25 5.19-6.53 11.83-11.41 19.72-14.17 0.44-0.15 0.25-0.85-0.19-0.7z"/>
			<g>
				<g>
					<g>
						<g>
							<path fill-rule="evenodd" class="s6" d="m38.2 305.51c-7.98 0-14.43-6.22-14.43-13.9 0-7.69 6.45-13.91 14.43-13.91 7.98 0 14.43 6.22 14.43 13.91 0 7.68-6.45 13.9-14.43 13.9z"/>
							<path fill-rule="evenodd" class="s6" d="m95.37 305.51c-7.98 0-14.43-6.22-14.43-13.9 0-7.69 6.45-13.91 14.43-13.91 7.98 0 14.43 6.22 14.43 13.91 0 7.68-6.45 13.9-14.43 13.9z"/>
							<path class="s6" d="m66.54 353.85c-7.44-0.55-33.38 0.85-34.1-20.62-0.73-21.46 2.82-44.56 28.78-45.49 25.95-0.94 38.9 9.47 39.57 33.08 0.67 23.61-10.81 34.74-34.25 33.03z"/>
						</g>
						<g>
							<path class="s8" d="m74.69 369.82c0 0-1.89-2.48 2.41-6.98 4.29-4.5 26.17-17.34 26.17-17.34 0 0 6.07-2.99 7.68-4 1.6-1 2.67 0.67 1.63 1.74-1.04 1.07-2.78 2.29-2.78 2.29 0 0 2.35-0.56 3.44-1.03 1.08-0.47 2.43 0.76 1.05 1.79-1.37 1.03-3.92 3.25-3.92 3.25 0 0 3-0.74 4.13-0.85 1.14-0.11 1.88 1.41 0.54 2.09-1.34 0.67-5.19 1.3-5.19 1.3 0 0 1.79 0.33 3.04 0.47 1.24 0.14 1.35 2.18-0.81 2.05-2.16-0.13-5.77-0.66-5.77-0.66 0 0-14.93 13.28-18.24 16.11-3.3 2.83-10.13 5.38-13.38-0.23z"/>
							<path class="s8" d="m60.27 369.58c0 0 1.94-2.45-2.29-7.02-4.22-4.57-25.88-17.77-25.88-17.77 0 0-6.03-3.09-7.62-4.12-1.59-1.03-2.68 0.62-1.66 1.71 1.02 1.08 2.75 2.34 2.75 2.34 0 0-2.35-0.6-3.43-1.09-1.08-0.49-2.44 0.72-1.08 1.77 1.36 1.05 3.87 3.32 3.87 3.32 0 0-2.99-0.79-4.12-0.92-1.13-0.13-1.9 1.37-0.57 2.08 1.32 0.7 5.17 1.39 5.17 1.39 0 0-1.8 0.29-3.05 0.42-1.25 0.12-1.39 2.15 0.78 2.06 2.16-0.1 5.77-0.57 5.77-0.57 0 0 14.72 13.52 17.98 16.41 3.26 2.88 10.04 5.54 13.38-0.01z"/>
						</g>
						<g>
							<path class="s1" d="m105.72 351.11c-0.85-1.84-1.88-3.61-3.12-5.22-3.66 2.17-21.65 12.91-25.5 16.95-4.3 4.51-2.41 6.98-2.41 6.98 3.25 5.61 10.08 3.06 13.38 0.23 3.31-2.83 18.24-16.11 18.24-16.11 0 0 0.21 0.03 0.55 0.08q-0.48-1.5-1.14-2.91z"/>
							<path class="s1" d="m57.98 362.56c-3.72-4.03-20.96-14.74-25.02-17.24-0.94 0.96-1.65 2.15-2.25 3.33-0.73 1.46-1.3 2.99-1.83 4.54q0.03-0.01 0.03-0.01c0 0 14.72 13.52 17.98 16.41 3.26 2.88 10.04 5.54 13.38-0.01 0 0 1.94-2.45-2.29-7.02z"/>
						</g>
						<path class="s8" d="m47.51 392.22c0 0-0.83 16.62 0 26.3 0.83 9.68 0.71 10.25 0.71 10.25 0 0-8.87 1.14-8.75 3.76 0.12 2.62 22.34 2.04 22.34 2.04l4.61-26.75h4.02l2.36 26.81c0 0 23.64 1.31 23.53-1.76-0.12-3.08-8.99-4.33-8.99-4.33 0 0 1.1-6.5 1.54-11.05 1.47-15.37-0.83-25.27-0.83-25.27 0 0-40.54 0-40.54 0z"/>
						<path class="s9" d="m48.21 428.01c0.02 0.67 0.01 0.76 0.01 0.76 0 0-8.87 1.14-8.75 3.76 0.12 2.61 22.34 2.04 22.34 2.04l0.76-4.39c-4.88-0.13-9.69-0.73-14.36-2.17z"/>
						<path class="s9" d="m87.34 428.54q0-0.01 0.04-0.21c-4.91 1.28-9.94 1.88-15.02 1.27l0.44 5.03c0 0 23.64 1.31 23.53-1.76-0.12-3.08-8.99-4.33-8.99-4.33z"/>
						<path class="s1" d="m66.54 353.85c-4.58 0.07-11.51 1.48-16.2 16.73-4.72 15.35-9.57 42.98-9.57 42.98 0 0 11.27 4.87 26.69 4.24 15.42-0.64 26.09-4.24 26.09-4.24 0 0-5.62-37.14-9.13-44.76-3.52-7.63-5.17-15.17-17.88-14.95z"/>
						<path class="s8" d="m59.14 347.41c0 0-0.17 5.3 0 8.47 0.31 5.84 17 6.6 16.7 0-0.18-4.02 0-10.16 0-10.16z"/>
						<g>
							<g>
								<path class="s8" d="m96.86 323.51c0-16.61-13.47-30.07-30.08-30.07-12.46 0-20.18 4.18-24.75 14.98-1.52 3.59-4.39 11.05-5.32 15.1-3.84 16.64 13.46 30.07 30.07 30.07 16.61 0 30.08-13.46 30.08-30.08z"/>
								<path fill-rule="evenodd" class="s8" d="m96.51 335c-5.42 0.83-10.47-2.89-11.29-8.31-0.83-5.42 2.89-10.47 8.31-11.3 5.42-0.82 10.47 2.9 11.29 8.32 0.83 5.42-2.89 10.47-8.31 11.29z"/>
							</g>
						</g>
						<path class="s6" d="m61.22 290.05c12.39 0.25 26.71 1.45 32.33 10.28 5.63 8.84 4.66 15.17-1.22 18.44-5.88 3.26-11.39-3.97-11.39-3.97 0 0-1.32 5.66-13.04 4.81-11.73-0.84-8.83-10.64-8.83-10.64 0 0-5.51 6.7-12.58 6.3-12.2-0.7-10.06-12.14-4.06-17.5 5.99-5.37 18.79-7.72 18.79-7.72z"/>
						<path class="s10" d="m100.98 332.1q0.02-0.01 0-0.03"/>
						<path class="s11" d="m98.62 319.15c-0.59-0.31-1.11 0.56-0.53 0.89 1.62 0.9 2.35 2.38 2.53 4.02-0.84-1.05-2.01-1.88-3.27-2.23-0.16-0.04-0.23 0.17-0.11 0.25 1.42 0.97 2.47 2.06 3.32 3.55q0.03 0.04 0.06 0.07c-0.17 1.75-0.82 3.53-1.64 4.9q0 0 0 0 0 0 0 0.01-0.15 0.25-0.31 0.49c-0.08 0.12 0.09 0.23 0.18 0.15 3.27-2.83 4.22-9.82-0.23-12.1z"/>
						<g>
							<g>
								<path class="s10" d="m101.97 333.4q0.02-0.01 0-0.02"/>
								<path class="s11" d="m67.76 332.99q-0.48-2.07-1.16-4.1c-0.1-0.28-0.6-0.25-0.57 0.08q0.13 1.52 0.37 3.02c-1.41-0.89-3.25-1.99-4.24-0.24-1.05 1.85 1.6 5.08 3.42 5.5 0.25 0.06 0.55-0.23 0.37-0.46-0.81-1.05-1.94-1.71-2.55-2.94-0.61-0.79-0.72-2.36 0.78-1.87q0.72 0.25 1.27 0.76c0.47 0.35 0.89 0.66 1.43 0.91 0.47 0.22 1-0.15 0.88-0.66z"/>
								<path class="s11" d="m70.05 337.79c-1.31 1.78-2.12 4.27-4.74 4.59-2.71 0.33-4.56-1.99-6.02-3.84-0.13-0.16-0.4-0.03-0.29 0.16 1.36 2.24 3.32 4.96 6.39 4.6 2.55-0.3 4.83-2.92 5.32-5.24 0.09-0.39-0.43-0.59-0.66-0.27z"/>
								<path class="s12" d="m88.19 339.17c0-2.51-2.11-4.55-4.73-4.55-2.61 0-4.72 2.04-4.72 4.55 0 2.52 2.11 4.56 4.72 4.56 2.62 0 4.73-2.04 4.73-4.56z"/>
								<path class="s12" d="m43.73 339.17c0-2.51 2.11-4.55 4.73-4.55 2.61 0 4.73 2.04 4.73 4.55 0 2.52-2.12 4.56-4.73 4.56-2.62 0-4.73-2.04-4.73-4.56z"/>
							</g>
							<g>
								<path class="s11" d="m57 327.25c-0.37-0.45-1-0.62-1.55-0.41-0.45 0.17-0.8 0.54-0.93 0.99-0.15 0.36-0.09 0.81 0.12 1.14 0.3 0.48 0.86 0.79 1.42 0.78 0.6 0 1.14-0.41 1.3-0.99 0.15-0.53-0.01-1.1-0.36-1.51z"/>
								<path class="s11" d="m75.86 327.35c-0.18-0.63-0.76-1.05-1.41-1.03-0.48 0.01-0.93 0.28-1.16 0.7q-0.19 0.22-0.27 0.51c-0.16 0.61 0.12 1.23 0.67 1.54 0.49 0.28 1.14 0.28 1.61-0.04 0.52-0.37 0.75-1.07 0.56-1.68z"/>
							</g>
							<g>
								<path class="s11" d="m53.53 322.43c-0.54 0.01-1.07 0.28-1.46 0.66-0.41 0.39-0.52 0.83-0.51 1.38 0 0.1 0.15 0.16 0.2 0.06 0.16-0.34 0.5-0.67 0.79-0.9 0.33-0.26 0.69-0.33 1.09-0.39 0.47-0.06 0.35-0.82-0.11-0.81z"/>
								<path class="s11" d="m75.55 321.87c-0.55-0.05-0.55 0.82 0 0.86 0.69 0.05 1.14 0.57 1.56 1.05 0.13 0.16 0.37 0.02 0.37-0.15 0.04-1.03-1.01-1.68-1.93-1.76z"/>
							</g>
							<g>
								<g>
									<path class="s11" d="m53.87 333.92c-0.4 0-0.4 0.62 0 0.62 0.4 0 0.4-0.62 0-0.62z"/>
									<path class="s11" d="m53.6 335.6q-0.06-0.09-0.16-0.12-0.08-0.03-0.16-0.06c-0.1-0.04-0.24 0.01-0.32 0.09q-0.09 0.09-0.09 0.23 0 0.13 0.09 0.23c0.08 0.08 0.22 0.13 0.32 0.09q0.08-0.03 0.16-0.06 0.08-0.03 0.14-0.1 0.05-0.07 0.05-0.16 0-0.07-0.03-0.14z"/>
									<path class="s11" d="m55.8 335.43q-0.02-0.06-0.05-0.12-0.05-0.08-0.14-0.14-0.09-0.09-0.23-0.1-0.13 0.01-0.23 0.1-0.09 0.1-0.1 0.23 0.01 0.05 0.02 0.09 0.02 0.08 0.08 0.14 0.06 0.09 0.14 0.14 0.06 0.03 0.11 0.05 0.04 0.02 0.07 0.03 0.06 0.02 0.12 0.01 0.1-0.02 0.16-0.08 0.06-0.06 0.08-0.13 0.03-0.12-0.03-0.22z"/>
								</g>
								<g>
									<path class="s11" d="m76.47 332.3q-0.1-0.1-0.25-0.1c-0.21 0-0.41 0.22-0.33 0.44q0.02 0.08 0.05 0.15c0.04 0.12 0.15 0.23 0.28 0.22q0.22-0.02 0.29-0.22 0.02-0.07 0.05-0.15c0.04-0.11 0-0.26-0.09-0.34z"/>
									<path class="s11" d="m76.04 334.24c-0.1-0.06-0.21-0.06-0.32-0.07-0.09 0-0.21 0.05-0.27 0.12-0.07 0.07-0.12 0.18-0.12 0.27q0 0.16 0.12 0.28c0.07 0.06 0.17 0.12 0.27 0.11 0.11-0.01 0.22-0.01 0.32-0.07q0.17-0.11 0.18-0.32-0.01-0.21-0.18-0.32z"/>
									<path class="s11" d="m78.07 333.99c-0.52 0-0.52 0.81 0 0.81 0.53 0 0.53-0.81 0-0.81z"/>
								</g>
							</g>
						</g>
						<path class="s11" d="m58.54 287.81c-4.9-0.31-9.5 0.85-13.24 3.3q-0.04-0.16-0.23-0.23c-1.89-0.68-4.21-0.29-5.53 1.31-1.09 1.32-1.37 3.62-0.02 4.85q-1.23 1.98-2.03 4.33c-0.02 0.06 0.06 0.09 0.09 0.04 2.08-3.71 4.21-7.22 7.84-9.65 4.06-2.72 8.47-2.63 13.12-3.21 0.46-0.06 0.49-0.71 0-0.74zm-18.66 8.66c-0.59-1.32-0.59-2.84 0.51-3.95 1.12-1.13 2.81-1.27 4.3-1-1.86 1.33-3.49 2.98-4.81 4.95z"/>
						<path class="s11" d="m99.34 308.87c-1.37-3.59-2.53-7.34-4.85-10.43 1.63-2.26 0.48-5.38-1.81-6.69-1.55-0.88-4.69-1.15-5.32 0.98q-2-0.98-4.14-1.58c-0.07-0.02-0.09 0.08-0.03 0.11 3.89 1.64 7.49 3.72 10.14 7.09 2.47 3.14 3.6 7.11 5.01 10.8 0.23 0.62 1.25 0.35 1-0.28zm-11.61-15.95c1.19-1.43 3.18-1.31 4.67-0.31 1.75 1.17 2.23 3.16 1.41 4.98q-0.09-0.1-0.17-0.21c-1.67-1.86-3.7-3.33-5.91-4.46z"/>
						<path class="s11" d="m95.56 314c-3.32 6.88-11.15 6-14.16-0.45q-0.01-0.15-0.12-0.25 0-0.02-0.01-0.04-0.04-0.08-0.13-0.09c-0.25-0.15-0.6-0.14-0.73 0.17-2.02 4.67-8.55 6.32-13.26 5.89-3.27-0.29-6.39-1.84-7.5-5.17-0.67-2.01-0.31-4.3-0.28-6.37 0-0.31-0.38-0.43-0.58-0.27q-0.21 0-0.37 0.19c-2.63 3.59-6.06 6.91-10.75 7.26-5.81 0.43-10.75-4.27-8.68-10.19 0.08-0.23-0.28-0.37-0.39-0.16-2.56 4.69 0.64 9.98 5.57 11.23 5.79 1.46 10.92-2.18 14.26-6.59-0.63 5.16 1.37 9.77 7.06 10.98 5.25 1.12 13.09-0.53 15.59-5.73 1.82 7.24 12.96 7.17 15.2-0.1 0.13-0.42-0.52-0.72-0.72-0.31z"/>
						<path class="s11" d="m75.78 351.46c-5.03 1.07-9.88 1.32-14.99 0.92-0.1-0.01-0.12 0.14-0.02 0.17 5.01 1.2 10.26 1.09 15.25-0.2 0.58-0.15 0.33-1.01-0.24-0.89z"/>
						<path class="s11" d="m33.75 347.75c-1.26 1.55-2 3.72-2.56 5.61-0.05 0.16 0.19 0.21 0.25 0.07 0.78-1.87 1.87-3.64 2.59-5.52 0.05-0.15-0.18-0.29-0.28-0.16z"/>
						<path class="s11" d="m100.89 348.04c-0.13-0.11-0.3 0.06-0.19 0.18q0.95 1.07 1.69 2.28c0.45 0.74 0.75 1.57 1.23 2.27 0.16 0.24 0.53 0.1 0.46-0.19-0.37-1.75-1.91-3.38-3.19-4.54z"/>
						<path class="s11" d="m49 428.98c-0.28-0.37-0.93-0.02-0.64 0.38 0.31 0.44 0.55 0.92 0.66 1.45 0.07 0.38 0.23 1.45-0.32 1.33-0.4-0.09-0.91-0.79-1.13-1.11-0.31-0.45-0.52-0.92-0.7-1.44-0.06-0.18-0.35-0.17-0.38 0.02-0.21-0.22-0.57 0.05-0.5 0.33 0.11 0.45 0.31 0.88 0.36 1.36 0.04 0.36 0.13 1.22-0.25 1.39-0.69 0.31-1.31-1.93-1.46-2.35-0.1-0.27-0.54-0.25-0.53 0.07 0.04 0.99 0.76 3.56 2.23 3.07 0.71-0.24 0.9-1.06 0.83-1.91q0.06 0.1 0.13 0.19c0.36 0.48 1.09 1.36 1.78 1.24 0.7-0.13 0.75-1.09 0.74-1.65-0.01-0.86-0.29-1.69-0.82-2.37z"/>
						<path class="s11" d="m91.94 430.3c-0.2 0.56-0.37 1.8-1.14 1.88-0.5 0.06-0.77-0.52-0.8-0.94-0.04-0.53 0.2-1.09 0.31-1.6 0.03-0.15-0.12-0.29-0.25-0.25-0.02-0.26-0.41-0.43-0.55-0.14-0.4 0.86-0.63 2.12-1.5 2.69-0.92 0.6-0.72-0.86-0.66-1.33 0.09-0.6 0.3-1.15 0.48-1.72 0.07-0.22-0.25-0.43-0.41-0.24-0.58 0.73-0.84 1.65-0.89 2.57-0.03 0.65 0.02 1.67 0.84 1.81 0.7 0.11 1.29-0.57 1.67-1.05q0.12-0.16 0.23-0.32c0.13 0.63 0.56 1.19 1.22 1.32 1.34 0.25 2.18-1.47 2.16-2.58 0-0.42-0.57-0.47-0.71-0.1z"/>
					</g>
					<path class="s6" d="m110.63 243.5c-17.69-14.01-41.56-13.49-61.8-5.69-20.07 7.74-35.26 22.21-39.94 43.66-4.78 21.86-0.61 50.13 17.33 65.17 0.45 0.38 1.1-0.24 0.66-0.65-14.86-13.87-19.69-35.93-17.77-55.61 2.14-21.84 14.13-38.99 33.99-48.39 19.29-9.12 43.4-12.24 62.21-0.3 16.3 10.34 25.99 29.44 27.3 48.41 1.5 21.59-7.16 43.33-24.16 56.94-0.89 0.71 0.38 1.96 1.26 1.25 31.91-25.53 33.54-78.98 0.92-104.79z"/>
					<path class="s8" d="m29.99 342.31c0.66 0.65 0.15 2.23-1.13 3.51-1.28 1.28-2.85 1.78-3.51 1.13-0.66-0.66-0.16-2.24 1.13-3.52 1.28-1.28 2.85-1.78 3.51-1.12z"/>
					<path class="s8" d="m105.38 343.88c0.7-0.62 2.23-0.02 3.43 1.34 1.2 1.36 1.61 2.96 0.91 3.58-0.7 0.62-2.24 0.01-3.44-1.35-1.2-1.35-1.6-2.96-0.9-3.57z"/>
				</g>
				<g>
					<path class="s6" d="m70.28 385.88q-0.43-0.68-1.12-1.07-0.03-0.56-0.12-1.12c2.45-0.9 4.68-2.77 5.33-5.28q0.06-0.21 0.09-0.43 0.01 0 0.02 0c0.72-0.17 1.39-0.5 2.01-0.91 0.12-0.07 0.05-0.24-0.07-0.27q-0.88-0.2-1.75-0.46 0.71-0.52 1.31-1.17c0.08-0.08 0.01-0.22-0.09-0.23q-0.93-0.15-1.88-0.17c-0.69-1.4-2.01-2.41-3.77-2.47-1.9-0.06-3.6 0.91-5.04 2.06-0.85 0.67-1.62 1.43-2.44 2.13-0.77 0.67-2.28 2.2-3.44 2.02 0.69-1.63-0.43-3.15-1.44-4.41-0.07-0.09-0.22-0.08-0.26 0.04-0.34 0.88-0.43 1.97-0.14 2.9-0.86-0.38-1.79-0.48-2.72-0.47-0.12 0-0.17 0.15-0.11 0.24 0.53 0.66 1.27 1.4 2.11 1.82-0.75 0.19-1.4 0.63-1.95 1.16-0.09 0.08-0.11 0.27 0.04 0.31 1.39 0.43 3.2 0.19 4.22-0.93 0.53 1.62 1.32 3.07 2.82 4.03 1.26 0.8 2.76 1.15 4.24 1.1q0.05 0.54 0.1 1.07-0.19 0.19-0.35 0.41c-0.1 0.15-0.25 0.3-0.19 0.49q0.03 0.06 0.1 0.06c0.19-0.03 0.25-0.21 0.35-0.35q0.06-0.1 0.13-0.2 0.02 0.24 0.04 0.49c0.01 0.26 0.43 0.21 0.41-0.05q-0.01-0.22-0.03-0.45 0.34 0.37 0.7 0.71c0.15 0.14 0.33-0.11 0.19-0.25-0.29-0.3-0.6-0.61-0.93-0.86q-0.06-0.55-0.19-1.1 0.12 0 0.25-0.01 1-0.12 2-0.45 0 0.47 0.03 0.94 0 0.01 0 0.03-0.01 0.01-0.02 0.02-0.24 0.26-0.41 0.57c-0.1 0.16-0.23 0.34-0.2 0.53 0.01 0.09 0.11 0.13 0.19 0.08 0.14-0.11 0.19-0.3 0.27-0.46q0.08-0.15 0.18-0.3c0 0.22 0.02 0.44 0.12 0.61 0.06 0.11 0.23 0.14 0.29 0.01 0.07-0.2 0.06-0.42 0.04-0.64q0.47 0.37 0.78 0.9c0.12 0.21 0.42-0.02 0.3-0.22zm5.72-8.87q-0.71 0.39-1.49 0.65 0.06-0.53 0.01-1.05 0.74 0.22 1.48 0.4zm-0.44-1.83q-0.51 0.51-1.1 0.93-0.11-0.57-0.33-1.1 0.72 0.07 1.43 0.17zm-17.74-0.67c0.95 1.11 1.88 2.51 1.24 3.98q-0.01 0-0.02 0.01c-1.29-1.05-1.7-2.43-1.22-3.99zm-2.74 2.34c0.87-0.03 1.68 0.18 2.51 0.48 0.23 0.54 0.6 0.99 1.15 1.28-1.53 0.16-2.66-0.6-3.66-1.76zm0.2 2.99c0.51-0.46 1.08-0.74 1.72-1.04q0.03-0.02 0.05-0.04c0.61 0.24 1.26 0.31 1.9 0.03q0.03 0.08 0.05 0.15c-1.17 0.75-2.33 1.19-3.72 0.9zm12.18 3.83c-1.69 0.35-3.48 0.18-5.01-0.63-1.64-0.88-2.53-2.39-3.25-4.03q0.06-0.07 0.11-0.14 0.01-0.01 0.01-0.02c0.81 0.13 1.59-0.44 2.25-0.89 1.39-0.96 2.55-2.22 3.87-3.27 1.39-1.11 3-2.02 4.82-1.93 2.07 0.09 3.51 1.63 3.78 3.64 0.51 3.76-3.28 6.59-6.58 7.27z"/>
					<path class="s6" d="m71.85 376.57c0.29-1.01-0.34-2.08-1.45-2.11-0.88-0.03-2.07 1.02-1.45 1.94 0.03 0.05 0.1 0.02 0.11-0.03 0.16-0.7 0.28-1.45 1.17-1.53 0.88-0.08 1.51 0.75 1.26 1.58-0.06 0.24 0.29 0.39 0.36 0.15z"/>
					<path class="s6" d="m70.1 379.64c-0.04-0.16-0.27-0.18-0.3 0-0.09 0.49-0.28 1.04-0.88 1.07-0.49 0.03-0.86-0.38-0.9-0.85q-0.01-0.06-0.06-0.08c-0.07-0.13-0.29-0.12-0.33 0.06-0.19 1.09-1.07 2.3-2.33 1.85-0.64-0.22-1.03-0.86-0.85-1.52 0.14-0.5 0.54-0.82 0.94-1.1q0.06-0.05 0.04-0.12c0.07-0.08 0-0.23-0.13-0.19-0.33 0.09-0.66 0.23-1 0.2-0.28-0.02-0.64-0.2-0.67-0.52-0.07-0.81 1.41-0.6 1.84-0.49 0.06 0.01 0.11-0.08 0.07-0.13-0.29-0.33-0.91-0.32-1.31-0.27-0.44 0.06-0.9 0.33-0.93 0.82-0.01 0.4 0.31 0.73 0.67 0.86q0.35 0.11 0.73 0.02c-0.79 0.72-0.93 1.96 0.14 2.63 1.29 0.81 2.65-0.25 3.04-1.51 0.18 0.39 0.6 0.68 1.04 0.67 0.65-0.01 1.33-0.73 1.18-1.4z"/>
				</g>
			</g>
		</g>
		<g>
			<g>
				<g>
					<g>
						<path class="s8" d="m704.62 354.93c0 0-3.17-3.05-10.16 2.24-7 5.29-28.48 33.85-28.48 33.85 0 0-13.85 6.18-0.66 15.56 8.66 6.16 11.99-9.95 11.99-9.95 0 0 20.98-18.77 25.47-22.94 4.5-4.17 9.16-13.31 1.84-18.76z"/>
					</g>
					<path class="s11" d="m670.08 401.38c-0.24-0.26-0.53-0.48-0.94-0.6 1.92-1.57-1.87-4.58-3.01-5.36-0.22-0.15-0.47 0.19-0.28 0.38 0.51 0.51 3.61 3.79 2.25 4.23-0.61 0.21-1.54-0.38-2.02-0.69-0.72-0.47-1.29-1.06-1.82-1.73-0.38-0.48-1.18 0.08-0.97 0.59-2.16 0.2-5.17 3.31-3.52 5.38 0.56 0.7 1.4 0.75 2.18 0.51 0.09 1.45 1.75 2.4 3.23 2.01q0.22-0.07 0.42-0.16c0.17 0.78 0.95 1.23 1.73 1.26q0.67 0.01 1.22-0.31c-0.04 0.12 0 0.27 0.15 0.33 2.01 0.73 4.16-0.53 4.45-2.67 0.21-1.6-1.25-4.11-3.07-3.17zm-9.57 1.13c-0.4-1.7 1.96-3.03 3.08-3.87q0.41 0.49 1 1.02c-0.38 0.8-0.72 1.58-1.3 2.27-0.53 0.62-2.4 2.17-2.78 0.58zm2.04 1.32q0.26-0.13 0.49-0.31c1.04-0.8 1.89-2.1 2.07-3.44 0.68 0.52 1.46 0.95 2.21 1.1-0.15 1.31-0.34 2.63-1.45 3.52-1.16 0.93-2.96 0.58-3.32-0.87zm3.42 1.95c1.51-0.83 2.2-2.7 2.26-4.41q0.08 0.13 0.25 0.17c3.13 0.62 0.08 6.77-2.51 4.24zm6.17-0.58c-0.53 1.3-2 1.85-3.31 1.54q-0.01 0-0.03 0.01c0.41-0.28 0.76-0.65 1.05-1.05 0.68-0.96 1.04-2.44 0.69-3.55 1.51-0.55 2.02 2.03 1.6 3.05z"/>
				</g>
				<path class="s8" d="m743.36 354.7c0 0 3.16-3.05 10.15 2.24 7 5.3 28.48 33.85 28.48 33.85 0 0 4.33 1.92 6.83 2.41 2.49 0.48 1.99 2.56 0 2.72-2 0.16-3.5 0-3.5 0 0 0 1.83 2.89 3.5 4.97 1.66 2.09-0.5 3.86-2.17 2.57-1.66-1.28-3.66-3.53-3.66-3.53 0 0 1.16 3.21 2 4.65 0.83 1.45-0.67 3.53-2.33 1.77-1.67-1.77-5.19-4.97-5.19-4.97 0 0 1.52 4.07 1.86 5.64 0.33 1.57-1.67 2.86-2.84 1.09-1.16-1.76-2.66-7.05-2.66-7.05 0 0-0.17 2.56-0.17 4.33 0 1.76-2.83 2.24-2.99-0.81-0.17-3.04 0-8.18 0-8.18 0 0-20.98-18.77-25.48-22.93-4.5-4.18-9.16-13.32-1.83-18.77z"/>
				<path class="s6" d="m802.07 319.08c3.32-22.54-12.62-25.31-12.62-25.31 0 0-13.65-60.15-71.83-54.23-58.17 5.92-51.69 66.7-51.69 66.7 0 0-16.57 2.29-12.62 19.74 8.87 39.19 142.18 37.77 148.76-6.9z"/>
				<path class="s8" d="m765.02 300.13c0-23.4-18.97-42.37-42.37-42.37-17.55 0-28.43 5.9-34.87 21.1-2.14 5.07-6.18 15.57-7.5 21.27-5.4 23.45 18.97 42.37 42.37 42.37 23.4 0 42.37-18.97 42.37-42.37z"/>
				<path fill-rule="evenodd" class="s8" d="m778.93 310.94c-3.56 6.86-11.97 9.53-18.83 5.98-6.86-3.56-9.53-11.98-5.98-18.83 3.56-6.86 11.98-9.53 18.83-5.98 6.86 3.56 9.53 11.98 5.98 18.83z"/>
				<path class="s8" d="m696.03 396.92c0 0-1.17 23.42 0 37.05 1.17 13.64 1 14.44 1 14.44 0 0-12.49 1.6-12.32 5.29 0.16 3.69 31.47 2.89 31.47 2.89l6.49-37.7h5.66l3.33 37.77c0 0 33.31 1.85 33.14-2.48-0.17-4.33-12.65-6.09-12.65-6.09 0 0 1.55-9.16 2.16-15.56 2.08-21.66-1.17-35.61-1.17-35.61 0 0-57.11 0-57.11 0z"/>
				<path class="s13" d="m698.11 453.48q-0.07 0.05-0.14 0.08-0.52 0.17-1.04 0.35c-0.25 0.08-0.48-0.02-0.66-0.19q-0.81 0.11-1.6 0.21c-0.29 0.04-0.62-0.24-0.67-0.51q-0.46-2.23-1.66-4.14c-3.53 0.83-7.73 2.27-7.63 4.42 0.16 3.69 31.47 2.89 31.47 2.89l0.39-2.25c-5.72-2.33-12.3-1.66-18.46-0.86z"/>
				<path class="s5" d="m742.75 447.63c3.13-0.43 6.36-0.64 9.53-0.36 0.39-2.37 1.53-9.47 2.03-14.74 2.08-21.65-1.17-35.61-1.17-35.61h-57.11c0 0-1.17 23.42 0 37.05 0.66 7.78 0.9 11.38 0.97 13.04 6.89 0.03 13.9 0.31 20.35 2.78l5.32-30.9h5.66l2.83 32.09c3.54-1.92 7.64-2.82 11.59-3.35z"/>
				<path class="s13" d="m760.64 450.32c-1.01 1.04-1.43 2.74-1.64 4.14-0.06 0.36-0.53 0.58-0.86 0.48-8.65-2.62-17.99-2.11-26.59 0.48l0.11 1.24c0 0 33.31 1.86 33.14-2.48-0.06-1.64-1.9-2.91-4.16-3.86z"/>
				<g>
					<path class="s4" d="m688.87 357.68c0 0 18.14-19.72 26.47-10.98 8.33 8.73-8.82 27.46-8.82 27.46 0 0-7.66 0.04-11.82-5.1-4.17-5.13-5.83-11.38-5.83-11.38z"/>
					<path class="s4" d="m759.28 357.68c0 0-18.14-19.72-26.47-10.98-8.33 8.73 8.82 27.46 8.82 27.46 0 0 7.66 0.04 11.83-5.1 4.16-5.13 5.82-11.38 5.82-11.38z"/>
					<path class="s4" d="m722.84 342.11c-6.45 0.09-16.21 1.63-22.81 18.34-6.65 16.82-13.49 47.1-13.49 47.1 0 0 15.87 5.33 37.59 4.64 21.73-0.7 36.77-4.64 36.77-4.64 0 0-7.92-40.7-12.88-49.05-4.95-8.36-7.27-16.62-25.18-16.39z"/>
				</g>
				<path class="s8" d="m712.42 333.8c0 0-0.24 7.46 0 11.93 0.43 8.23 23.95 9.29 23.53 0-0.25-5.66 0-14.32 0-14.32z"/>
				<path class="s6" d="m684.37 274.1c0 0-2.58 8.55 6.56 9.53 9.13 0.99 12.2-6.57 12.2-6.57 0 0-2.51 12.24 14.27 11.87 16.78-0.37 15.19-12.53 15.19-12.53 0 0 2.62 11.51 11.49 9.86 8.87-1.64 6.82-12.16 6.82-12.16 0 0 4.13 9.66 12.64 6.15 8.52-3.52-3.09-21.27-11.27-24.55-8.19-3.29-55.28-9.54-67.9 18.4z"/>
				<path class="s11" d="m771.29 295.99c-0.83-0.43-1.56 0.8-0.74 1.26 2.28 1.27 3.31 3.35 3.56 5.66-1.18-1.48-2.83-2.64-4.61-3.13-0.21-0.06-0.32 0.23-0.15 0.35 2 1.36 3.48 2.89 4.68 4.99q0.04 0.06 0.08 0.1c-0.23 2.46-1.16 4.98-2.31 6.91q0 0 0 0 0 0 0 0.01-0.21 0.36-0.44 0.7c-0.11 0.16 0.13 0.32 0.26 0.2 4.61-3.98 5.94-13.83-0.33-17.05z"/>
				<path class="s11" d="m733.02 339.62c-6.33 2.18-12.61 2.68-19.24 1.81-0.15-0.01-0.17 0.22-0.03 0.26 6.46 2.07 13.33 1.7 19.63-0.79 0.78-0.3 0.47-1.56-0.36-1.28z"/>
				<g>
					<g>
						<path class="s10" d="m772.09 308.36c0.02 0 0.02-0.04 0-0.04"/>
						<path class="s11" d="m723.9 307.78q-0.68-2.92-1.64-5.77c-0.13-0.4-0.84-0.36-0.8 0.1q0.18 2.14 0.52 4.26c-1.98-1.25-4.58-2.81-5.98-0.34-1.47 2.61 2.26 7.16 4.82 7.75 0.35 0.09 0.78-0.32 0.52-0.65-1.13-1.47-2.72-2.4-3.59-4.14-0.86-1.11-1.01-3.33 1.1-2.64q1.01 0.36 1.79 1.08c0.66 0.49 1.26 0.92 2.01 1.27 0.67 0.31 1.42-0.2 1.25-0.92z"/>
						<path class="s11" d="m727.12 314.55c-1.84 2.5-2.99 6.01-6.67 6.46-3.82 0.46-6.43-2.8-8.48-5.42-0.18-0.22-0.57-0.03-0.41 0.23 1.91 3.16 4.67 6.99 8.99 6.48 3.6-0.42 6.81-4.1 7.5-7.37 0.12-0.56-0.6-0.84-0.93-0.38z"/>
						<path class="s12" d="m752.68 316.49c0-3.54-2.98-6.42-6.66-6.42-3.68 0-6.66 2.88-6.66 6.42 0 3.54 2.98 6.42 6.66 6.42 3.68 0 6.66-2.88 6.66-6.42z"/>
						<path class="s12" d="m690.04 316.49c0-3.54 2.98-6.42 6.66-6.42 3.68 0 6.66 2.88 6.66 6.42 0 3.54-2.98 6.42-6.66 6.42-3.68 0-6.66-2.88-6.66-6.42z"/>
					</g>
					<g>
						<path class="s11" d="m708.74 299.68c-0.53-0.63-1.41-0.87-2.19-0.57-0.63 0.24-1.12 0.77-1.31 1.4-0.2 0.5-0.12 1.13 0.17 1.6 0.42 0.68 1.21 1.12 2.01 1.11 0.84-0.01 1.6-0.59 1.82-1.4 0.22-0.75-0.01-1.55-0.5-2.14z"/>
						<path class="s11" d="m735.32 299.83c-0.27-0.88-1.08-1.47-2-1.45-0.68 0.01-1.31 0.39-1.63 0.98q-0.27 0.31-0.38 0.72c-0.22 0.86 0.17 1.74 0.94 2.18 0.69 0.39 1.61 0.39 2.27-0.07 0.74-0.51 1.05-1.49 0.8-2.36z"/>
					</g>
					<g>
						<path class="s11" d="m703.86 292.9c-0.77 0.01-1.52 0.4-2.07 0.93-0.57 0.56-0.74 1.18-0.71 1.95 0 0.14 0.21 0.22 0.28 0.08 0.22-0.47 0.7-0.94 1.11-1.27 0.46-0.36 0.97-0.47 1.54-0.55 0.66-0.09 0.49-1.15-0.15-1.14z"/>
						<path class="s11" d="m734.87 292.11c-0.77-0.07-0.77 1.15 0 1.21 0.97 0.08 1.61 0.8 2.2 1.49 0.18 0.21 0.52 0.03 0.53-0.22 0.05-1.44-1.44-2.36-2.73-2.48z"/>
					</g>
					<g>
						<g>
							<path class="s11" d="m704.33 309.08c-0.56 0-0.56 0.88 0 0.88 0.56 0 0.56-0.88 0-0.88z"/>
							<path class="s11" d="m703.95 311.46q-0.09-0.13-0.23-0.18-0.11-0.04-0.22-0.08c-0.14-0.05-0.34 0.01-0.45 0.12q-0.13 0.14-0.13 0.33 0 0.19 0.13 0.33c0.11 0.11 0.3 0.17 0.45 0.12q0.11-0.04 0.22-0.08 0.12-0.04 0.2-0.14 0.08-0.1 0.08-0.23-0.01-0.1-0.05-0.19z"/>
							<path class="s11" d="m707.05 311.21q-0.03-0.08-0.07-0.16-0.08-0.12-0.19-0.2-0.14-0.13-0.33-0.14c-0.12 0-0.25 0.05-0.33 0.14q-0.13 0.14-0.14 0.33 0.01 0.06 0.02 0.12 0.03 0.12 0.12 0.21 0.08 0.11 0.2 0.19 0.08 0.03 0.16 0.07 0.05 0.02 0.1 0.04 0.08 0.02 0.16 0 0.14-0.01 0.23-0.11 0.08-0.08 0.11-0.18 0.04-0.16-0.04-0.31z"/>
						</g>
						<g>
							<path class="s11" d="m736.17 306.8q-0.15-0.13-0.35-0.14c-0.3 0-0.57 0.32-0.47 0.62q0.03 0.11 0.07 0.22c0.06 0.17 0.21 0.31 0.4 0.3 0.19 0 0.34-0.12 0.4-0.3q0.04-0.11 0.08-0.22c0.05-0.16-0.01-0.36-0.13-0.48z"/>
							<path class="s11" d="m735.56 309.54c-0.14-0.08-0.3-0.08-0.45-0.09-0.13-0.02-0.3 0.07-0.39 0.16-0.09 0.09-0.16 0.25-0.16 0.38q0.01 0.23 0.16 0.39c0.11 0.09 0.25 0.17 0.39 0.16 0.15-0.01 0.31-0.01 0.45-0.1 0.16-0.09 0.26-0.26 0.26-0.45 0-0.18-0.1-0.35-0.26-0.45z"/>
							<path class="s11" d="m738.43 309.19c-0.74 0-0.74 1.14 0 1.14 0.73 0 0.73-1.14 0-1.14z"/>
						</g>
					</g>
				</g>
				<path class="s11" d="m766.25 275.63c-1.63 3.55-4.54 5.75-8.61 4.4-2.71-0.91-4.29-2.99-5.93-5.1q-0.19-0.45-0.43-0.88c-0.28-0.51-0.96-0.14-0.87 0.37 0.44 2.55 0.8 4.7-0.29 7.12-1.26 2.83-4.15 4.61-7.25 4.17-4.72-0.67-6.87-4.7-8.56-8.64q0.05-0.58 0.05-1.19c0-0.68-1.06-0.86-1.21-0.17-1.38 6.68-5.05 12.26-12.25 13.41-8.82 1.4-17.75-4.03-16.38-13.8 0.06-0.42-0.35-0.66-0.63-0.51q-0.13 0.01-0.24 0.14c-3.14 3.93-6.29 8.53-12.04 7.92-7.93-0.84-6.5-10.38-3.92-15.46 0.12-0.25-0.21-0.54-0.41-0.31-3.95 4.38-4.98 13.52 1.29 16.47 5.59 2.65 11.23-1.22 14.45-5.87-2.18 15.45 27.66 18.16 31.02 1.5 1.61 4.65 5.65 8.75 10.9 8 4.65-0.66 7.64-5.11 7.39-9.49 1.7 2.2 4.19 3.8 6.97 4.08 3.73 0.36 7.45-2.04 7.76-5.94 0.03-0.41-0.63-0.6-0.81-0.22z"/>
				<path class="s11" d="m683.88 339.53c-5.12 0.01-9.16-4.08-6.81-9.32 0.21-0.47-0.37-1.05-0.77-0.6-2.68 3.03-7.45 3.98-10.41 0.73-3.07-3.38-1.66-7.67 1.27-10.49 0.22-0.21-0.05-0.54-0.31-0.41-4.44 2.27-5.24 8.18-1.85 11.8 3.01 3.22 7.55 3.04 10.63 0.48-0.8 4.85 2.82 9.67 8.34 8.46 0.37-0.07 0.28-0.65-0.09-0.65z"/>
				<path class="s11" d="m790.65 321.5c-0.66 2.15-1.31 5.53-3.08 6.91-4.2 3.28-9.49 2.46-12.15-2.31-0.34-0.61-1.33-0.2-1.13 0.48 1.11 3.9 0.63 5.73-2.27 8.69q-1.9 4.23-5.6 1.77-3.48 0.18-4.38-3.05c-0.1-0.22-0.48-0.06-0.4 0.17 1.51 3.96 5.55 5.86 9.56 3.96 3.71-1.75 4.96-5.43 4.72-9.13 2.03 2.28 4.91 3.5 8.2 2.78 4.79-1.04 6.93-5.54 7.54-9.99 0.09-0.65-0.81-0.95-1.01-0.28z"/>
				<path class="s11" d="m696.62 365.82c-1.5-2.97-3.36-5.72-4.75-8.77-0.08-0.18-0.38-0.06-0.32 0.13 1.01 3.11 2.41 6.54 4.6 9 0.24 0.27 0.61-0.07 0.47-0.36z"/>
				<path class="s11" d="m757.59 356.53c-1.87 3.25-3.92 6.34-6.03 9.42-0.06 0.07 0.06 0.16 0.12 0.09 2.59-2.71 4.77-5.83 6.59-9.11 0.24-0.44-0.43-0.83-0.68-0.4z"/>
				<path class="s11" d="m737.55 344.98c-0.46-0.55-1.22 0.23-0.78 0.78 6.73 8.23-9.48 16.63-12.25 6.73-0.15-0.53-0.91-0.51-1.07 0-1.56 5.05-7.36 6.44-10.72 2.26-2.2-2.75-2.09-5.26-0.53-8.46 0.14-0.3-0.26-0.68-0.49-0.38-3.02 3.77-2.44 9.41 2.02 11.88 1.87 1.03 4.1 1.28 6.12 0.54 0.38-0.13 3.61-2.67 4.16-3.78 0.53 0.7 1.68 1.86 1.54 1.75 0.75 0.63 1.67 1.09 2.59 1.4 2.48 0.82 5.25 0.41 7.45-0.95 4.31-2.65 5.22-7.96 1.96-11.77z"/>
				<path class="s11" d="m704.04 416.23c-0.85 1.26-1.24 2.61-2.32 3.76-1.11 1.19-2.47 2.08-3.99 2.63-0.1 0.04-0.06 0.19 0.05 0.16 1.65-0.39 3.15-1.16 4.39-2.34 1.06-1 2.33-2.56 2.43-4.06 0.02-0.32-0.4-0.38-0.56-0.15z"/>
				<path class="s11" d="m751.53 419.52c-1.38-0.99-2.79-1.97-4-3.17-1.22-1.2-1.87-2.55-2.55-4.09-0.13-0.3-0.62-0.15-0.6 0.16 0.21 3.56 4.11 6.01 6.87 7.58 0.31 0.17 0.56-0.27 0.28-0.48z"/>
				<path class="s11" d="m714.91 453.33c-6.17-2.23-14.15-1.32-20.33 0.6 0.27-0.68-0.1-1.54-0.39-2.15-0.38-0.79-0.94-1.45-1.69-1.91-0.18-0.11-0.35 0.14-0.22 0.29 0.54 0.6 1 1.25 1.26 2.02 0.2 0.61 0.1 1.33 0.42 1.88 0.07 0.12 0.2 0.17 0.33 0.15-0.02 0.19 0.11 0.38 0.35 0.34 3.57-0.7 7.09-1.25 10.74-1.21 3.18 0.03 6.26 0.71 9.41 0.87 0.54 0.03 0.57-0.71 0.12-0.88z"/>
				<path class="s11" d="m759.98 450.53c-1.28 0.52-2.13 1.85-2.07 3.2-7.74-2.41-16.03-2.33-23.7 0.32-0.34 0.11-0.21 0.61 0.15 0.53 8.07-1.78 15.54-1.64 23.54 0.46 0.43 0.11 0.71-0.18 0.76-0.52q0.11-0.09 0.12-0.27c-0.02-1.23 0.54-2.19 1.59-2.79 0.49-0.28 0.16-1.15-0.39-0.93z"/>
				<path class="s11" d="m716.04 448.91c-5.58-2.64-12.67-2.8-18.67-1.84-0.16 0.02-0.12 0.28 0.03 0.27 6.54-0.58 12.08 0.7 18.35 2.26 0.4 0.1 0.69-0.5 0.29-0.69z"/>
				<path class="s11" d="m750.92 446.53c-6.73-0.45-13.87 1.07-19.56 4.78-0.29 0.19-0.04 0.59 0.27 0.46 6.36-2.74 12.33-4.19 19.29-4 0.8 0.02 0.79-1.19 0-1.24z"/>
			</g>
			<g>
				<path class="s14" d="m665.15 270.61c0.71-7.26-0.04-15.1-2.9-21.86-2.93-6.9-9.25-11.28-15.85-14.38-11.86-5.57-25.97-3.17-35.29 6.13-9.07 9.04-11.25 23.52-6.34 35.18 3.46 8.22 10.56 15.19 17.25 20.88 5.09 4.32 11.44 9.25 18.34 10.09-3.05 1.21-7.24 3.51-6.59 6.6 0.25 1.16 1.33 1.73 2.45 1.6 1.31-0.15 2.19-1.11 2.84-2.17 0.06 0.84 0.39 1.7 0.82 2.43 0.72 1.21 1.89 3.11 3.57 2.87 1.52-0.22 2.28-1.95 2.36-3.32 0.05-0.99-0.15-1.95-0.54-2.82 1.09 0.7 2.31 1.23 3.49 1.55 1.34 0.37 3.59 0.58 4.1-1.15 0.52-1.76-1.65-3.07-2.89-3.83-1.89-1.17-4.08-2.02-6.31-2.21 12.06-7.97 20.06-21.19 21.49-35.59z"/>
				<path class="s14" d="m654.26 342.3c1.89-2.49 3.23-6.5 1.06-9.25-1.94-2.44-5.05-1.98-7.22-0.11-3.96 3.42-4.2 7.89-2.9 12.31-5.91-1.26-7.95-9.47-7.54-14.59 0.43-5.43 2.91-9.64 6.45-13.63 0.15-0.16-0.03-0.49-0.24-0.34-6.62 4.62-8.92 14.25-6.35 21.69 1.42 4.11 4.53 7.03 7.96 7.74 1.46 4.3 4.24 8.49 6.38 11.57 9.16 13.27 14.44 28.44 7.68 44.03-0.06 0.15 0.2 0.28 0.27 0.12 3.64-7.69 4.58-16.02 2.56-24.32-2.4-9.85-8.53-17.3-13.45-25.9-0.92-1.63-1.76-3.45-2.34-5.34 2.67 0.17 5.43-1 7.68-3.98zm-7.91 3.11c-0.82-3.22-0.8-6.6 0.95-9.55l1.23-1.64c1.38-1.84 3.51-2.48 5.21-1.47 2 0.94 2.24 3.99 1.17 6.03q-0.46 0.99-0.92 1.97c-1.54 2.57-4.54 4.8-7.64 4.66z"/>
			</g>
		</g>
	</g>
</svg>