<svg version="1.2" xmlns="http://www.w3.org/2000/svg" viewBox="0 0 750 500" width="750" height="500">
	<title>bckgrnd-2</title>
	<defs>
		<clipPath clipPathUnits="userSpaceOnUse" id="cp1">
			<path d="m16 14h750v500h-750z"/>
		</clipPath>
		<clipPath clipPathUnits="userSpaceOnUse" id="cp2">
			<path d="m0 0h750v500h-750z"/>
		</clipPath>
		<clipPath clipPathUnits="userSpaceOnUse" id="cp3">
			<path d="m0 0h750v500h-750z"/>
		</clipPath>
		<clipPath clipPathUnits="userSpaceOnUse" id="cp4">
			<path d="m245.68 360.92q0.63-1.98 1.39-3.94c7.92-20.61 28.61-44.18 50.56-49.66 20.13-5.03 36.72 5.5 46.21 18.77-3.21-1.7-10.84-0.08-15.32 5.2-4.48 5.29-5.76 9.07-6.64 15.16-5.85-0.55-12.91 2.64-17.53 7.93-4.62 5.28-6.59 12.43-4.88 17.73-7.1-1.87-17.03 0.39-21.51 9.22-2.85 5.61-2.37 11.64 0.07 16.03-2.38-4.29-12.39-1.7-16.34 1.68-2.04 1.75-3.71 3.45-4.58 5.83-0.9 2.45-1.57 5.05-0.98 7.25q-4.92-6.43-8.88-13.6c-2.89-5.25-4.76-10.76-4.79-17.41-0.03-6.55 1.04-13.39 3.22-20.19z"/>
		</clipPath>
		<clipPath clipPathUnits="userSpaceOnUse" id="cp5">
			<path d="m245.68 360.92q0.63-1.98 1.39-3.94c7.92-20.61 28.61-44.18 50.56-49.66 20.13-5.03 36.72 5.5 46.21 18.77-3.21-1.7-10.84-0.08-15.32 5.2-4.48 5.29-5.76 9.07-6.64 15.16-5.85-0.55-12.91 2.64-17.53 7.93-4.62 5.28-6.59 12.43-4.88 17.73-7.1-1.87-17.03 0.39-21.51 9.22-2.85 5.61-2.37 11.64 0.07 16.03-2.38-4.29-12.39-1.7-16.34 1.68-2.04 1.75-3.71 3.45-4.58 5.83-0.9 2.45-1.57 5.05-0.98 7.25q-4.92-6.43-8.88-13.6c-2.89-5.25-4.76-10.76-4.79-17.41-0.03-6.55 1.04-13.39 3.22-20.19z"/>
		</clipPath>
		<clipPath clipPathUnits="userSpaceOnUse" id="cp6">
			<path d="m0 0h750v500h-750z"/>
		</clipPath>
		<clipPath clipPathUnits="userSpaceOnUse" id="cp7">
			<path d="m0 0h750v500h-750z"/>
		</clipPath>
		<clipPath clipPathUnits="userSpaceOnUse" id="cp8">
			<path d="m67-50h750v500h-750z"/>
		</clipPath>
		<clipPath clipPathUnits="userSpaceOnUse" id="cp9">
			<path d="m0 0h750v500h-750z"/>
		</clipPath>
		<clipPath clipPathUnits="userSpaceOnUse" id="cp10">
			<path d="m0 0h750v500h-750z"/>
		</clipPath>
		<clipPath clipPathUnits="userSpaceOnUse" id="cp11">
			<path d="m0 0h750v500h-750z"/>
		</clipPath>
		<clipPath clipPathUnits="userSpaceOnUse" id="cp12">
			<path d="m0 0h750v500h-750z"/>
		</clipPath>
		<clipPath clipPathUnits="userSpaceOnUse" id="cp13">
			<path d="m0 0h750v500h-750z"/>
		</clipPath>
		<clipPath clipPathUnits="userSpaceOnUse" id="cp14">
			<path d="m0 0h750v500h-750z"/>
		</clipPath>
		<clipPath clipPathUnits="userSpaceOnUse" id="cp15">
			<path d="m0 0h750v500h-750z"/>
		</clipPath>
		<clipPath clipPathUnits="userSpaceOnUse" id="cp16">
			<path d="m0 0h750v500h-750z"/>
		</clipPath>
		<clipPath clipPathUnits="userSpaceOnUse" id="cp17">
			<path d="m0 0h750v500h-750z"/>
		</clipPath>
		<clipPath clipPathUnits="userSpaceOnUse" id="cp18">
			<path d="m0 0h750v500h-750z"/>
		</clipPath>
		<clipPath clipPathUnits="userSpaceOnUse" id="cp19">
			<path d="m0 0h750v500h-750z"/>
		</clipPath>
		<clipPath clipPathUnits="userSpaceOnUse" id="cp20">
			<path d="m-159 145h750v500h-750z"/>
		</clipPath>
		<clipPath clipPathUnits="userSpaceOnUse" id="cp21">
			<path d="m0 0h750v500h-750z"/>
		</clipPath>
	</defs>
	<style>
		.s0 { fill: #ffffff } 
		.s1 { fill: #55b01c } 
		.s2 { fill: #ffcb0f } 
		.s3 { fill: #f64e33 } 
		.s4 { fill: #000000 } 
		.s5 { fill: none;stroke: #171714;stroke-miterlimit:10;stroke-width: 2 } 
		.s6 { fill: #1d6fab } 
		.s7 { fill: #57b4f7 } 
		.s8 { fill: #171714 } 
		.s9 { fill: #77e6ac } 
		.s10 { fill: #6edeeb } 
		.s11 { fill: #99ebda } 
		.s12 { fill: none;stroke: #1b0512;stroke-linecap: round;stroke-miterlimit:10;stroke-width: 2 } 
		.s13 { fill: #ffbb97 } 
		.s14 { fill: none;stroke: #57b4f7;stroke-linecap: round;stroke-miterlimit:10;stroke-width: 2;stroke-dasharray: 7.9711,7.9711 } 
		.s15 { fill: none;stroke: #57b4f7;stroke-linecap: round;stroke-miterlimit:10;stroke-width: 2 } 
		.s16 { fill: none;stroke: #57b4f7;stroke-linecap: round;stroke-miterlimit:10;stroke-width: 2;stroke-dasharray: 8 } 
		.s17 { fill: #e6e89f } 
		.s18 { fill: #ff7c69 } 
		.s19 { fill: #ffa649 } 
	</style>
	<g id="BACKGROUND">
		<path fill-rule="evenodd" class="s0" d="m0 0h750v500h-750z"/>
	</g>
	<g id="OBJECTS">
		<g>
			<g id="Clip-Path" clip-path="url(#cp1)">
				<g>
					<path class="s1" d="m718.6 197.8c-0.5-2.4-3.1-2.2-4.9-1.7-2.2 0.5-4.2 1.8-5.9 3.3-1.6 1.5-2.9 3.4-4 5.4q0-11.1 0.1-22.1 0.3-15.5 0.9-31c0.1-2.1-3.1-2.6-3.2-0.5q-0.7 17.3-0.9 34.6-0.3-0.4-0.5-0.7c-1.5-2.1-3.3-3.9-5.3-5.5-1-0.7-2.3-1.5-3.4-0.7-0.8 0.6-1 1.6-0.9 2.5 0.1 1.1 0.7 1.9 1.2 2.8q1 1.4 2.2 2.6 0.4 0.3 0.8 0.6 0.2 0.6 0.5 1.1c0.8 1.2 2.1 2.1 3.6 2.4q0.7 0.7 1.4 1.3 0.1 0.1 0.3 0.2-0.1 7 0 14 0 0.7 0 1.5-1.9-3.7-4.1-7.2c-2.1-3.2-4.7-6.9-8.2-8.5-1.3-0.6-3.1-0.8-4.2 0.2-1.5 1.4-0.5 3.6 0.2 5.2 1.8 3.9 4.3 7.4 7.1 10.7 1.5 1.8 3.1 3.5 4.7 5.2 1.3 1.4 2.7 2.7 4.5 2.9q0.2 22.6 1.2 45.2 0.6 13.3 1.5 26.6c-0.2 0.1-0.3 0.2-0.3 0.4q0.3 15.4 0.7 30.8c0 0.6 1 0.5 1-0.2v-6.8q0 1.1 0.1 2.3c0.1 0.6 1.1 0.5 1-0.1q0-0.5 0-0.9c0.3 0.1 0.7-0.1 0.7-0.5q0-1.1-0.1-2.2 0 0.1 0.1 0.2 0.2 4.3 0.4 8.7c0 0.2 0.2 0.4 0.4 0.4q0.1 2.6 0 5.3c0 0.6 1 0.5 1-0.1 0.1-10.8-0.5-21.5-1.7-32.2q0.2-0.4 0.2-0.9-1.9-27.3-2.6-54.7-0.3-11.7-0.4-23.5 0.2 0 0.4 0c1.1-0.2 2-0.8 2.9-1.4 1.9-1.2 3.7-2.7 5.4-4.3q2.4-2.4 4.2-5.2c1-1.6 2.3-3.5 1.9-5.5zm-21.2 14.2q-1.9-2-3.7-4c-2.2-2.6-4.4-5.3-6.1-8.3-0.8-1.5-1.9-3.3-2.2-4.9-0.3-1.3 0.7-1.2 1.6-0.9-0.7 0.1-1.2 0.9-0.7 1.6q0.3 0.6 0.6 1.1c2.2 6 6 11.2 11 15.1q1 1.2 2.1 2.4 0.2 0.2 0.3 0.2c-1.1-0.4-2.1-1.4-2.9-2.3zm-4.8-31.2q0-0.1 0-0.2 0 0 0 0c0.4 0 0.8 0.4 1.1 0.6q0.3 0.2 0.5 0.5c-0.5 0.1-1 0.6-0.8 1.1q-0.1-0.1-0.3-0.3c-0.3-0.5-0.6-1.1-0.5-1.7zm12.4 30.9c-0.1 0.1-0.8 0.5-1.2 0.5q0-0.3 0-0.7 0.2-0.3 0.4-0.5 0.2-0.2 0.4-0.5 0.3 0.3 0.7 0.3 0.2 0 0.5 0 0.2 0.1 0.5 0.1-0.6 0.4-1.3 0.8zm8.5-7.4q0 0 0 0-0.7 0.7-1.4 1.4 0.6-0.7 1.1-1.5 1-1 1.7-2.3-0.5 1.4-1.4 2.4zm2.7-6q0-0.3-0.2-0.6c0.2 0 0.5 0.1 0.6 0.3q0.1 0.3 0.1 0.7-0.2-0.2-0.5-0.4z"/>
					<g>
						<path class="s2" d="m747.1 132.5c-2.2-1.9-5.2-2.9-8-3.6-4.4-1.2-9-1.4-13.4-0.8 1.8-1.5 3.5-3.2 4.9-5.1 2.6-3.4 5.2-7.8 4.4-12.2-0.8-4-4.6-7-8.5-7.7-4.3-0.9-8.7 0.7-12.3 3.2-3.4 2.3-6.3 5.4-8.4 8.9-0.3-3.3-0.8-6.5-2.2-9.4-1.6-3.4-4.7-6.4-8.5-7.3-3.8-0.8-7.6 0.8-10 3.7-2.6 3.1-3.7 7-3.4 10.9 0.2 3.2 1.1 6.2 2.3 9.2-5.4-1.8-11.1-2.3-15.9 1.5-2.8 2.2-4.8 5.6-4.2 9.3 0.6 4.3 4.3 7.3 8.3 8.6 2.7 0.8 5.7 0.8 8.5 0.3q-1.9 1.4-3.6 3c-1.8 1.3-3.4 2.8-4.6 4.7-2.5 3.9-3.1 9 0.1 12.8q1.3 1.5 3 2.5c0.9 0.8 2 1.4 3.3 1.7q1.6 0.4 3.2 0.1c2 0.1 3.9-0.4 5.7-1.2 3.9-1.5 7.1-4.3 9.8-7.4q1.1-1.2 2-2.4c0.5 4.2 1.3 8.3 2.6 12.2 1.8 5.7 5.2 11.2 10.9 13.6 4.9 1.9 10.3 0.7 13.7-3.3 3.3-4 4.5-9.4 3.3-14.3-0.5-2.6-1.6-5-3-7.2q1.1 0.3 2.2 0.5c5.1 1 10.2-0.3 14.2-3.6 3.9-3.3 6.4-8.1 6.6-13.2 0.1-3-0.7-6-3-8zm-22.8 25.9q0.7 1.1 1.1 2.4c-0.3-0.1-0.6 0-0.8 0.2q-0.2-1-0.4-1.9-0.1-0.3-0.3-0.5 0.2 0 0.4-0.2zm-1.7-0.2q0 0.1 0.1 0.2-0.3 0.1-0.6 0.4-0.1-0.9-0.2-1.8 0.3 0.6 0.7 1.2zm-1.2 3.3q0 0.2 0 0.4-0.1 1-0.2 1.9-0.1-1.2-0.3-2.3 0.3 0.1 0.5 0zm-2.3-9.8q0.1 0.1 0.3 0.2c-0.3 0.2-0.4 0.5-0.4 0.8q0.1 0.2 0.1 0.4-0.1 0.1-0.1 0.2-0.5-1-1.1-1.9 0.6 0.1 1.2 0.3zm0.2 7.3q-0.2 0-0.4 0.1-0.3-1.1-0.5-2.1 0.5 0.9 0.9 2zm-1.7 3.4c0.1 0.4 0.3 0.6 0.5 0.8q-0.1 0.5-0.2 1-0.3 0.9-0.6 1.7-0.1-2-0.2-4.1 0.2 0.4 0.5 0.6zm-1.6-4.5q0.2 0.7 0.4 1.4-0.2-0.1-0.5-0.1 0-0.6 0.1-1.3zm-37.9-4.5q0.4 0 0.8-0.4 0.1 0 0.1-0.1 0 0.2-0.1 0.3l-0.7 1.2q0-0.5-0.1-1zm-2.2-2q-0.7 1.2-1.1 2.5-0.3 0.7-0.5 1.4c0.3-1.8 1-3.6 2.1-5.1q0.1-0.2 0.2-0.3c0 0.4 0.2 0.8 0.5 1-0.4-0.1-0.9 0-1.2 0.5zm-0.8 8.2c0.9 1.4 2.2 2.2 3.7 2.7q0 0.1-0.1 0.2c-0.1 0.8 0.6 1.7 1.4 1.4q1.1-0.4 2.1-0.8c0.2 0.6 1.1 1.1 1.7 0.7q0.9-0.6 1.7-1.2 0.4 0 0.9-0.1c-1.3 1-2.8 1.8-4.4 2.1-2.7-0.2-5.2-1.8-6.7-4.3q-0.4-0.7-0.7-1.5 0.2 0.4 0.4 0.8zm23-23.3q1.1-0.7 2.1-1.4l-1.9 2.1q-0.5 0.3-0.9 0.7 0.5-0.7 0.7-1.4zm4 21.4q-0.3-2.3-0.4-4.6 0.1-0.1 0.2-0.3 0.1 1.6 0.3 3.2-0.1 0.8-0.1 1.7zm24.1 17.6c-2.4 3.9-6.7 5.9-11.2 4.5-3.5-1-6.1-3.6-8-6.6 1.2 1.6 2.6 3.1 4.1 4.3 1.6 1.1 3.3 2 5.2 2.2 1.2 0.2 2.3 0 3.4-0.3 2-0.3 3.9-1.4 5.1-3.1q1-0.9 1.8-1.8 0 0 0.1-0.1-0.3 0.5-0.5 0.9zm3.6-40.6q-0.3-0.4-0.6-0.7 0.6 0.1 1.2 0.2-0.4 0.1-0.6 0.5zm13.8 2.6q-0.3-0.5-0.5-1 0.8 0.9 1.4 2-0.1 0.1-0.1 0.4-0.1 0.1-0.1 0.2c-0.2-0.2-0.5-0.3-0.8-0.3 0.3-0.3 0.4-0.8 0.1-1.3zm-0.8-4.8q0.7 0.3 1.4 0.7-0.4 0.2-0.8 0.3c-1.1-0.8-2.3-1.5-3.6-2.1q1.6 0.5 3 1.1zm-3.3 10.7q-0.2 0.3-0.3 0.5 0 0-0.1 0-0.5-0.1-1-0.2zm-6.7-3.9c-0.5-1-1.1-2-1.7-2.9q0.7 0.2 1.4 0.3c-0.6 0.5-0.6 1.7 0.4 2q0.8 0.2 1.6 0.4-0.8 0.1-1.7 0.2zm5.9 8.2q-0.5 0.3-1 0.6-0.8 0.3-1.7 0.6 0-0.3-0.2-0.6l2.1-0.4c0.9-0.2 1-1.1 0.6-1.7q0.1 0 0.1 0c0.3 0.4 0.9 0.6 1.4 0.4q-0.6 0.6-1.3 1.1zm1.9-9.1q-0.6-0.1-1.1-0.2 0.3-0.1 0.6-0.1 0.3 0 0.5-0.2 0 0.3 0 0.5zm1.9 10.1q0.1-0.2 0.1-0.5 1.1-1 2-2.1c-0.5 1-1.3 1.8-2.1 2.6zm5.3-7.4q0-0.6-0.2-1.1 0.1-0.5 0.2-0.9 0.1 1 0 2z"/>
						<path class="s3" d="m725.1 130.6q0.1-0.4-0.1-0.7c-1.8-3.4-4.1-6.8-7.3-9-3-2-6.4-3-10-3-6.9-0.1-13.3 4.2-16.1 10.5-3 6.9-1 15.6 4 21 2.7 2.9 6.2 4 10.1 4.2 3.9 0.2 7.6-0.3 11-2.3 5.2-2.9 8.3-8.3 8.7-14q0-0.1 0-0.2c0.4-2.2 0.2-4.4-0.3-6.5zm-19.3-2.3q0.2-0.3 0.5-0.5 0 0.2 0.1 0.4-0.3 0.2-0.5 0.4 0-0.2-0.1-0.3zm11 6q0 0 0.1 0 0 0.2 0 0.3-0.1 0.4-0.1 0.8-0.1 0-0.2 0-0.1 0-0.1 0.1 0.1-0.6 0.3-1.2zm3.4 0.1q0.2 0.4 0.4 0.7-0.2 1.6-0.7 3.2 0-1.1 0-2.2 0.2-0.8 0.3-1.7zm-11.6 9.5q0.4-0.1 0.7-0.2 0 0.2 0 0.5-0.6 0.4-1.2 0.7 0.2-0.5 0.5-1zm8.2-0.8q0.1 0.5 0.1 1-1.1 1.2-2.6 2 1.4-1.4 2.5-3zm-8.7-20.9q0.1 0.1 0.2 0.1 0 0 0.1 0.1-0.2 0.1-0.4 0.2 0 0-0.1 0c-0.5-0.2-1-0.1-1.5 0.2q-0.3 0.1-0.7 0.2c-0.1-0.3-0.3-0.5-0.6-0.5q0.8-0.3 1.6-0.4 0.7 0.1 1.4 0.1zm-5.3 19.1c-6.9 5.2-13.2 11.2-19 17.6-0.4 0.5 0.4 1.2 0.9 0.7 5.7-6.4 11.9-12.2 18.7-17.5 0.5-0.4-0.1-1.3-0.6-0.8zm5.7 10.7c-3.6 0.1-7.6-0.2-10.5-2.6q-1.6-1.3-2.8-3.1 0.1 0 0.2 0 0.6 0.9 1.3 1.7c1.7 1.7 3.9 2.6 6.2 3.1 3.9 0.9 8.1 0.8 11.8-0.6-1.9 0.8-4 1.4-6.2 1.5zm-4.7-5.5c0.4 0.1 0.8-0.1 0.9-0.6 0.4 0.1 0.7 0 0.9-0.3q0.3-0.4 0.5-0.7 0.1 0.1 0.2 0.1c0.1 0.6 0.3 1.1 0.8 1.5q0.2 0.1 0.5 0.2-0.7 0.2-1.4 0.3c-0.9 0.1-1.7-0.1-2.4-0.5zm26.5-34q-4.1 4.7-8.2 9.3c-2.4 2.6-4.8 5.3-6.3 8.6-0.3 0.7 0.7 1.1 1 0.5 1.5-3.3 3.9-6 6.3-8.6q4-4.6 8.1-9.1c0.4-0.5-0.4-1.2-0.9-0.7zm-33.9 17.1q-1.6-0.4-3.1-0.8c-2.6-0.4-5.1-0.5-7.7-0.7-5.2-0.3-10.1-2.1-15.2-2.2-0.7 0-0.9 1-0.2 1 5.1 0.1 9.9 1.9 15 2.3 2.5 0.2 4.9 0.2 7.4 0.6q2.9 0.5 5.7 1.5c-7.3 1.9-14.7 3.3-22.2 4-0.7 0-0.6 1.1 0.1 1 7.9-0.7 15.7-2.1 23.4-4.2-1.1-0.8-2.2-1.6-3.2-2.5zm-4.5 5.3q0 0.1 0 0.1c0 0.5 0.5 0.8 1 0.7q0 0 0 0-0.2 3.6 0.4 7.1c-1-2.5-1.5-5.2-1.4-7.9zm12 14.5q0.5 0.3 1.1 0.5-0.8-0.2-1.7-0.4 0.3 0 0.6-0.1zm32.2-2.2c-3.3 0.1-6.5 0.3-9.7-0.1-3.2-0.4-6.4-1.2-9.4-2.4-0.6-0.3-1.1 0.7-0.4 0.9 3.1 1.3 6.3 2.2 9.6 2.5 3.3 0.4 6.7 0.3 10 0.2 0.7 0 0.6-1.1-0.1-1.1zm-13.1-7.4q0.4-1.8 0.4-3.7 0.2-0.1 0.3-0.3 0.1 0.4 0.1 0.7-0.3 1.7-0.8 3.3zm-28.4-18.5q2 2.9 3.8 5.9 0.2 0.4 0.4 0.7 0.1 0.1 0.3 0.2c1.2 1.2 2.6 2.1 3.9 3.1q0.1-0.1 0-0.3c-1.9-9.5-6.1-18.4-10.3-27.1-0.3-0.6-1.3-0.3-1 0.4 4 8.3 8 16.7 10 25.7-1.2-0.9-2-2.7-2.8-3.9q-1.8-2.9-3.7-5.8-3.9-5.7-8.3-11.1c-0.4-0.5-1.3 0.1-0.9 0.6q4.6 5.6 8.6 11.6zm2.6 7.4c0 0.6 0.6 1.1 1.2 0.8q-0.4 0.7-0.7 1.4c-0.3-0.7-1.5-0.8-1.6 0.1q-0.1 1.4-0.2 2.7c-0.1-0.2-0.4-0.3-0.7-0.3 0.4-1.7 1.1-3.3 2-4.7zm1.8 9q-11.3 7.6-22.7 15.2c-0.5 0.3 0.1 1.2 0.7 0.8q11.3-7.5 22.6-15.1c0.6-0.4 0-1.3-0.6-0.9zm4 4.8q0 0.5 0.1 1-0.1 0.2-0.2 0.2-0.1 0-0.2-0.2 0.2-0.5 0.3-1zm11.4 29.8c-2.4-8.4-3.3-17.1-4.2-25.7-0.1-0.7-1.1-0.6-1.1 0.1 0.9 8.7 1.8 17.5 4.3 26 0.2 0.6 1.2 0.2 1-0.4zm4.9-0.9q-3.7-11.6-6.6-23.4c-0.1-0.6-1.2-0.5-1 0.1q2.8 12 6.6 23.6c0.2 0.7 1.2 0.3 1-0.3zm4.1-8.1q-3.4-7.2-6.8-14.3c-0.3-0.6-1.3-0.2-1 0.4q3.4 7.1 6.8 14.3c0.3 0.6 1.3 0.2 1-0.4zm-7.3-15.4q0.7-0.5 1.2-1.1 0.1 0.1 0.2 0.2-0.6 0.5-1.4 0.9zm24.4-7.7q-10.6 0.6-21.2-0.4c-0.7 0-0.8 1-0.1 1.1 7.1 0.7 14.2 0.8 21.4 0.3 0.7 0 0.6-1.1-0.1-1zm-17.6-10.6c-0.2 0.2-0.3 0.5-0.2 0.8q-0.1 0.1-0.2 0.2c-0.9-2.7-2.2-5.1-4.2-7.1q-0.1 0-0.1-0.1c1.9 1.7 3.4 3.9 4.7 6.2zm2.8-20.6c-5.7 5.1-10.9 10.6-15.4 16.7-0.4 0.5 0.4 1.2 0.8 0.7 4.5-6 9.6-11.5 15.2-16.5 0.5-0.4-0.1-1.3-0.6-0.9zm12 24.8q-9.5 1.4-19.1 1.9c-0.7 0-0.5 1.1 0.2 1.1q9.5-0.6 19-1.9c0.7-0.1 0.6-1.2-0.1-1.1z"/>
						<path class="s4" d="m703.6 131q0-0.2 0-0.3 0-0.2-0.1-0.3-0.1-0.2-0.2-0.3-0.1 0-0.2-0.1-0.2-0.1-0.4-0.1-0.1 0.1-0.2 0.1-0.2 0.1-0.4 0.2-0.1 0.2-0.1 0.3-0.1 0-0.1 0.1 0 0.1-0.1 0.2 0 0.1 0 0.2 0 0 0 0.1 0 0.1 0 0.3 0 0.2 0.1 0.4 0 0.2 0.1 0.3 0.1 0.1 0.3 0.2 0.2 0 0.3 0 0.2 0.1 0.3 0 0.1-0.1 0.2-0.1 0.2-0.1 0.3-0.4 0-0.1 0.1-0.2 0-0.1 0-0.2 0-0.1 0-0.1 0 0 0 0 0-0.1 0-0.1 0 0 0 0 0 0 0 0 0-0.1 0.1-0.2z"/>
						<path class="s4" d="m715.3 130.1q0-0.2-0.2-0.3l-0.2-0.1q-0.2-0.1-0.4-0.1-0.1 0.1-0.2 0.1-0.2 0.1-0.4 0.3-0.2 0.2-0.4 0.5-0.1 0.2-0.1 0.3-0.1 0.2-0.1 0.4 0 0.1 0.1 0.3 0.1 0.1 0.2 0.2l0.2 0.1q0.2 0.1 0.5 0.1 0.1 0 0.2 0 0.2-0.1 0.3-0.3 0.2-0.3 0.4-0.6 0.2-0.1 0.2-0.3 0.1-0.1 0-0.3 0-0.2-0.1-0.3z"/>
						<path class="s4" d="m716.9 135.5c-1.6 3.1-4.7 4.3-7.9 4.7-1.6 0.2-3.3 0.3-4.9-0.3-1.5-0.6-2.7-1.8-3.8-3-0.7-0.8-2.1 0.2-1.4 1 1.3 1.4 2.7 2.9 4.6 3.5 1.8 0.7 3.8 0.7 5.7 0.5 3.9-0.5 7.3-2.1 9.2-5.7 0.5-0.9-1-1.6-1.5-0.7z"/>
					</g>
				</g>
			</g>
			<g id="Clip-Path" clip-path="url(#cp2)">
				<g>
					<path fill-rule="evenodd" class="s5" d="m34.4 178.3l5.6 29.1h7.4l7-30.2"/>
					<path fill-rule="evenodd" class="s5" d="m54.6 201.4l8.1-26.8-37.8 1.2v4l10.9 29.6"/>
					<path class="s6" d="m53.4 212.9h-19c-0.6 0-1.2-0.4-1.4-1l-2.5-10.3c-0.2-0.8 0.5-1.5 1.4-1.5h24c1 0 1.6 0.7 1.4 1.5l-2.5 10.3c-0.2 0.6-0.7 1-1.4 1z"/>
					<path class="s7" d="m43.9 96.1c-44.1 0-47.7 30.2-42 50.4 3.6 13 12.7 27.6 22.8 36.7h36.7c10-9.1 20.6-23.7 24.5-36.7 6-20.2 3-50.4-42-50.4z"/>
					<path class="s2" d="m43.9 96.1c-25.2 0-27.2 30.2-24 50.4 2.1 13 8.5 27.6 14.2 36.7h19.9c5.7-9.1 11.7-23.7 14-36.7 3.4-20.2 1.7-50.4-24.1-50.4z"/>
					<path class="s3" d="m44 96.1c-9.9 0-10.7 30.2-9.4 50.4 0.8 13 3.3 27.6 5.6 36.7h7.7c2.2-9.1 4.6-23.7 5.5-36.7 1.3-20.2 0.6-50.4-9.4-50.4z"/>
					<path class="s4" d="m69.6 167.7c-0.4-0.3-1.1-0.3-1.4 0.2q-2.1 2.7-4.2 5.5c-0.3 0.4-0.3 1.1 0.2 1.4 0.4 0.3 1 0.3 1.4-0.1q2-2.8 4.1-5.6c0.3-0.4 0.3-1-0.1-1.4z"/>
					<path class="s4" d="m80.9 129.6c0.1 9.6-1.9 19.1-5.8 27.9-0.5 1.1 1.3 2 1.9 0.8 4-9.1 6-19 5.9-28.9-0.1-1.3-2-1.1-2 0.2z"/>
					<path class="s4" d="m64.7 128.7c0-0.5-0.5-1-1.1-0.9-0.5 0.1-0.9 0.5-0.8 1.1l0.3 4.1c0 0.6 0.6 1 1.1 0.9 0.6-0.1 0.9-0.5 0.9-1.1q-0.2-2.1-0.4-4.1z"/>
					<path class="s4" d="m41.6 129.7c-0.1-0.5-0.6-1-1.1-0.9-0.6 0.1-1 0.6-0.9 1.1q0.1 2.1 0.3 4.2c0.1 0.5 0.6 0.9 1.1 0.9 0.6-0.1 0.9-0.6 0.9-1.1q-0.2-2.1-0.3-4.2z"/>
					<path class="s4" d="m26.1 126.6c-1.1 4.4-1.3 9.1-0.6 13.7 0.2 1.3 2.2 1 2-0.2-0.7-4.5-0.5-8.9 0.6-13.2 0.3-1.3-1.7-1.6-2-0.3z"/>
					<path class="s4" d="m18.1 160.9l-4.5-8.6c-0.3-0.5-0.8-0.8-1.3-0.6-0.5 0.2-0.8 0.8-0.6 1.3l4.5 8.6c0.3 0.5 0.7 0.8 1.3 0.6 0.5-0.2 0.8-0.8 0.6-1.3z"/>
					<path class="s2" d="m52.2 205.6c0 1.2-1.5 1.8-2.4 1.1-0.8-0.5-1.1-1.4-1.8-2-1.9-1.6-3.9-0.1-5.4 1.2-0.7 0.6-1.7 1.5-2.5 0.6-0.5-0.7-0.8-1.4-1.5-2-2-1.6-4.1 0.4-5.1 2.1-0.7 1 0.8 2.3 1.5 1.2 0.4-0.7 1.5-2.5 2.5-1.6 0.7 0.6 0.9 1.6 1.6 2.1 0.9 0.7 2 0.8 3 0.4 1.1-0.5 1.8-1.4 2.8-2.1 0.4-0.4 1-0.8 1.5-0.5 0.5 0.1 0.7 0.6 1 1 0.7 0.8 1.3 1.6 2.4 1.8 2.4 0.6 4.3-1.3 4.4-3.6 0-1.3-2-1-2 0.3z"/>
					<path class="s2" d="m41 201.2c-1.3 0-1 2 0.2 2 1.3 0 1.1-2-0.2-2z"/>
					<path class="s2" d="m50 202c-1.3 0-1.1 2 0.2 2 1.3 0 1.1-2-0.2-2z"/>
					<path class="s2" d="m36.4 208.9c-1.3 0-1.1 2 0.2 2 1.3 0 1-2-0.2-2z"/>
					<path class="s2" d="m45.3 208.9c-1.2 0-1 2 0.3 2 1.2 0 1-2-0.3-2z"/>
					<path class="s2" d="m33.1 201.9c-1.3 0-1.1 1.9 0.2 1.9 1.3 0 1.1-1.9-0.2-1.9z"/>
				</g>
			</g>
			<g id="Clip-Path" clip-path="url(#cp3)">
				<g>
					<path class="s8" d="m286 353.3c0.6 1.9 2.8 3.6 4 4.9l5.9 6.8c3.8 4.4 7.8 8.8 11.6 13.3 3.8 4.4 7.5 9.2 11.6 13.2q0.9-0.7 1.8-1.4-13.1-14.9-26.2-29.9c-1.6-1.8-3.1-3.6-4.9-5.2-1.2-1.1-2.5-2.1-4-2.6q0 0.4 0.2 0.9z"/>
					<path class="s9" d="m245.7 360.9q0.6-2 1.4-3.9c7.9-20.6 28.6-44.2 50.5-49.7 20.2-5 36.7 5.5 46.2 18.8-3.2-1.7-10.8-0.1-15.3 5.2-4.5 5.3-5.7 9.1-6.6 15.2-5.9-0.6-12.9 2.6-17.6 7.9-4.6 5.3-6.5 12.4-4.8 17.7-7.1-1.9-17.1 0.4-21.5 9.2-2.9 5.6-2.4 11.7 0 16.1-2.4-4.3-12.4-1.7-16.3 1.6-2 1.8-3.7 3.5-4.6 5.9-0.9 2.4-1.6 5-1 7.2q-4.9-6.4-8.9-13.6c-2.8-5.2-4.7-10.7-4.7-17.4-0.1-6.5 1-13.4 3.2-20.2z"/>
					<g>
						<g id="Clip-Path" clip-path="url(#cp4)">
							<path class="s2" d="m312.4 333.1c-5.1-4.5-11.6-7.9-18.8-9.6-4.5-1-9.3-1.9-14.4-1.6-2.3 0.2-4.9 0.5-7.3 1.6-3.2 1.3-3.7 3.1-5.2 6.1-5.7 11.7-7.8 23.7-6.5 34.8 1.4 12.2 6.5 22.7 13.3 31.7 1.6 2 3.8 4 7 3.4 2.3-0.4 4.6-1.6 6.8-2.9 4.7-2.6 9.4-5.3 13.7-8.7 7.8-6.1 13.7-14.2 19-22.4 1-1.5 2.1-3.2 3.6-4.4 1.4-1.2 3.5-1.9 4.8-1.2l1-0.3c-4.3-9.8-9-19.6-17-26.5z"/>
						</g>
						<g id="Clip-Path" clip-path="url(#cp5)">
							<path class="s3" d="m311 329.4c-5.5-4-9.6-6.1-17.1-7.3-6.4-1-19.4 0.1-26.3 5q-0.9 0.6-1.6 1.5c1.1 1 2 2.1 3 3.2 5.8 6.6 11 13.7 16.7 20.4 0.9 1.1 1.9 2.1 2.9 3.2 2.8 2.9 8.4 12.6 11 15.8 3.3 3.9 3.6 1.4 7.4 4.9l24.1-19c-5.2-9.3-11.5-21.5-20.1-27.7z"/>
						</g>
					</g>
					<path class="s8" d="m265.9 323.5q-0.3-0.3-0.7-0.4c-1.5-0.4-2.2 1-1.9 2.2 0.1 0.4 0.2 0.7 0.4 1.1 0.5 1 1 2 1.8 2.8 2 1.8 3.4-1.1 2.8-2.9-0.1-0.3-0.4-0.7-0.6-1q-0.6-0.7-1.2-1.4-0.3-0.2-0.6-0.4z"/>
					<path class="s8" d="m266.8 332.6c0.4-1.2-1.4-2-1.8-0.8-2.1 5.9-3.6 11.9-4.6 18.1-0.9 5.9-1.5 12.2 0.4 18 0.4 1.2 2.2 0.5 1.8-0.7-1.8-5.6-1-11.8-0.1-17.5 0.9-5.8 2.3-11.5 4.3-17.1z"/>
					<path class="s8" d="m318.6 337.1c-8-12.2-22.9-17.8-37.1-16.1-4.5 0.6-8.9 1.8-13.1 3.5-1.1 0.5-0.4 2.4 0.8 1.9 8.8-3.7 18.7-4.9 28-2.3 8 2.2 15.2 7.2 19.8 14.2 0.7 1.1 2.3-0.1 1.6-1.2z"/>
					<path class="s8" d="m299.7 369.9c-1.7-3.2-3.8-6.1-6-9q-3.7-4.8-7.4-9.6-7.3-9.5-14.7-19c-0.8-1-2.4 0.1-1.6 1.2q7.2 9.3 14.4 18.6 3.5 4.6 7.1 9.2c2.3 3 4.6 6 6.3 9.3 0.6 1.1 2.4 0.4 1.9-0.7z"/>
					<path class="s8" d="m258.8 381.7c-3-7.8-3.8-16.2-2.3-24.4 0.2-1.2-1.8-1.5-2-0.3-1.5 8.5-0.7 17.3 2.4 25.4 0.5 1.2 2.3 0.5 1.9-0.7z"/>
					<path class="s8" d="m254.5 381.5q-1.2-3.9-2.3-7.8c-0.1-0.5-0.8-0.7-1.3-0.5-0.5 0.2-0.7 0.7-0.5 1.3q1.1 3.8 2.2 7.7c0.2 0.5 0.8 0.8 1.3 0.6 0.5-0.2 0.7-0.8 0.6-1.3z"/>
					<path class="s8" d="m275.2 374q-1.2-2-2.4-4.1c-0.2-0.5-1-0.6-1.4-0.2-0.4 0.3-0.5 0.9-0.2 1.3q1.2 2.1 2.4 4.2c0.3 0.4 1 0.5 1.4 0.2 0.5-0.3 0.5-0.9 0.2-1.4z"/>
					<path class="s8" d="m277.6 370.8q-1.1-2.3-2.2-4.7c-0.3-0.4-0.8-0.8-1.3-0.5-0.5 0.2-0.8 0.7-0.6 1.3q1.1 2.3 2.2 4.6c0.3 0.5 0.8 0.8 1.3 0.6 0.5-0.2 0.9-0.8 0.6-1.3z"/>
					<path class="s3" d="m325.3 344.8c-7.1-0.4-14.2 2.1-19.4 7-5.2 5-8 12.1-7.8 19.3 0.1 1.3 2.1 1.1 2-0.2-0.2-6.5 2.4-13 7.1-17.6 4.6-4.5 11.3-6.9 17.8-6.5 1.3 0.1 1.6-1.9 0.3-2z"/>
					<path class="s2" d="m299.1 370.2c-4-0.2-8.1-0.8-11.8 1.2-3 1.6-5.5 3.9-7.4 6.7-3.7 5.5-5 12.4-3.2 18.8 0.3 1.2 2.2 0.5 1.8-0.8-1.5-5.6-0.3-11.9 3-16.7 1.6-2.4 3.7-4.5 6.2-5.9 3.4-2.1 7.3-1.5 11.1-1.4 1.3 0.1 1.6-1.9 0.3-1.9z"/>
					<path class="s9" d="m277.8 396c-4.3-4.2-11.4-1.7-15.5 1.3-4.7 3.4-7.8 8.6-7.8 14.4 0 1.3 2 1 2-0.2 0-5 2.8-9.5 6.7-12.4 3.4-2.6 9.6-5.2 13.3-1.6 0.9 0.9 2.2-0.6 1.3-1.5z"/>
				</g>
			</g>
			<g id="Clip-Path" clip-path="url(#cp6)">
				<path class="s10" d="m175.9 213.5q-1.5-0.9-3-1.9-0.8-0.5-1.5-0.9-0.4-0.3-0.8-0.5-0.1-0.1-0.3-0.2c-0.1-0.1-0.3-0.1-0.4-0.2-0.1-0.3 0.2-0.8 0.2-1l0.3-0.8 0.5-1.9 1.1-3.5c0.1-0.2-0.2-0.4-0.3-0.2-2.2 1.4-4.1 3.1-5.9 5-1.5-1-3.9-2.6-5.7-3.1-0.2-0.1-0.3 0.1-0.3 0.3 0.3 1.7 1.4 4.3 1.9 5.9q-2.2 1.8-4 4c-0.2 0.2-0.1 0.5 0.2 0.4q1.5-0.4 3.1-0.8 0.7-0.2 1.5-0.3c0.2-0.1 0.5-0.2 0.7-0.2 0.4 0 0.4 0.3 0.4 0.5q0.8 3.2 1.5 6.4c0.1 0.3 0.4 0.3 0.5 0l1.6-6.4q0.1-0.4 0.2-0.8c0-0.2 0-0.5 0.2-0.6 0.2-0.3 0.5-0.1 0.8-0.1q0.3 0.1 0.7 0.1 1.6 0.3 3.2 0.6 1.7 0.3 3.5 0.7c0.2 0 0.4-0.3 0.1-0.5z"/>
			</g>
			<g id="Clip-Path" clip-path="url(#cp7)">
				<path class="s11" d="m38.6 356.6q-0.4-1.7-0.9-3.5-0.2-0.9-0.4-1.8-0.1-0.4-0.2-0.8 0-0.2-0.1-0.4c0-0.1-0.1-0.3-0.1-0.4 0.1-0.3 0.7-0.4 0.9-0.5l0.7-0.5 1.7-0.9 3.2-1.7c0.2-0.1 0.2-0.4 0-0.4-2.5-0.5-5.1-0.7-7.7-0.5q-0.6-2.8-2-5.2c-0.1-0.1-0.3-0.1-0.4 0.1q-1.5 2-2.7 4.3-2.8-0.3-5.7 0c-0.2 0-0.4 0.3-0.1 0.5q1.3 0.8 2.7 1.6 0.7 0.4 1.4 0.8c0.2 0.1 0.4 0.2 0.6 0.4 0.2 0.2 0 0.4-0.1 0.7q-1.7 2.7-3.5 5.5c-0.1 0.2 0.2 0.5 0.4 0.4l5.6-3.5q0.4-0.2 0.7-0.4c0.2-0.1 0.4-0.3 0.6-0.3 0.3 0 0.5 0.3 0.6 0.5q0.2 0.3 0.5 0.6 0.9 1.4 1.8 2.7 1 1.4 2 2.9c0.2 0.2 0.5 0.1 0.5-0.2z"/>
			</g>
			<g id="Clip-Path" clip-path="url(#cp8)">
				<g>
					<path class="s9" d="m222.8 117.9c2-2.5 4.5-4.7 7.3-6.2 7.2-3.9 20.3-4.4 26.4 2.1 4.5 4.9 4.7 16.6 4.2 22.7 3.6-4.1 8.4-7.2 13.7-8 5.3-0.8 11.2 1.1 14.5 5.4 4.6 6 2.9 12.1-3.3 16.2 4.4-0.8 8.8 3.1 9.4 7.6 0.6 4.5-2 8.9-5.8 11.4-3.8 2.5-8.4 3.2-13 3-5.6-0.2-11.7-2.2-14.8-7-1.9 9.5-11.7 16.7-21.3 15.5-9.5-1.1-17.4-10.4-17-20-6.6 7.5-20.4 6.4-25.7-2.1-5.4-8.4-0.4-21.3 9.2-24.1 4.2-1.1 9.6 0.1 11.1 4.1-1.5-7.2 0.6-14.9 5.1-20.6z"/>
					<path class="s12" d="m223.8 144.3c-0.2-2.9 2.2-5.2 4.8-6 3.6-1.1 7 2.9 4.3 6.1"/>
					<path class="s12" d="m267.2 152.4c-0.5-1.7 0.9-3.4 2.4-4.4 1.7-1 4.1-1.3 5.5 0 1.4 1.3 1.3 3.6 1.1 5.5"/>
					<path class="s12" d="m247 149.3c1.7 0.8 3.6 1.1 5.5 1"/>
					<path class="s0" d="m290.4 157.7c-0.5 0-1.1 0.3-1.1 0.9-0.1 1.8-1 3.4-2.4 4.6-1.5 1.2-3.4 1.9-5.3 2.2-1.3 0.1-1.1 2.1 0.2 2 2.3-0.4 4.6-1.2 6.4-2.7 1.7-1.5 2.9-3.5 3.1-5.8 0-0.6-0.3-1.1-0.9-1.2z"/>
					<path class="s0" d="m238.1 172.5c-1.7-1.7-2.7-4.1-2.7-6.6 0-0.5-0.6-0.9-1.1-0.9-0.6 0.1-0.9 0.6-0.9 1.1 0 3 1.3 5.9 3.4 8 0.4 0.4 1.1 0.2 1.4-0.2 0.4-0.4 0.3-1-0.1-1.4z"/>
					<path class="s0" d="m242.1 170.7q-0.2-0.7-0.3-1.5 0-0.2-0.2-0.4 0-0.2-0.2-0.3c-0.2-0.1-0.5-0.2-0.7-0.2-0.3 0-0.5 0.1-0.7 0.4-0.1 0.2-0.3 0.4-0.2 0.7q0.2 0.8 0.3 1.6 0 0.1 0.1 0.3 0.1 0.2 0.3 0.3c0.2 0.2 0.5 0.3 0.7 0.2 0.3 0 0.5-0.1 0.7-0.3 0.1-0.2 0.3-0.5 0.2-0.8z"/>
					<path class="s0" d="m249.3 172.4q-0.1-0.2-0.2-0.3-0.1-0.2-0.3-0.3c-0.3-0.1-0.5-0.1-0.8 0q-0.1 0.1-0.2 0.1-0.2 0.2-0.3 0.4-0.4 0.6-0.7 1.2-0.1 0.2-0.1 0.4 0 0.2 0 0.4 0.1 0.2 0.3 0.3 0.1 0.2 0.3 0.3c0.2 0.1 0.5 0.1 0.7 0q0.2-0.1 0.3-0.1 0.2-0.2 0.3-0.4 0.3-0.6 0.7-1.3 0.1-0.1 0.1-0.3 0-0.2-0.1-0.4z"/>
					<path class="s0" d="m255.1 122c-0.6 0-1.1 0.3-1.2 0.9q-0.3 2.1-0.6 4.3c-0.1 0.5 0.3 1.1 0.8 1.1 0.5 0.1 1-0.3 1.1-0.8q0.4-2.2 0.7-4.3c0.1-0.6-0.3-1.1-0.8-1.2z"/>
					<path class="s0" d="m231.6 117.5c-4.6 3.2-8.1 7.7-10 12.9-0.5 1.2 1.4 2 1.8 0.8 1.8-4.9 5-9.1 9.3-12 1.1-0.8-0.1-2.4-1.1-1.7z"/>
					<path class="s0" d="m235.7 120.2c-0.4-0.3-1.1-0.3-1.4 0.1q-1.6 2.1-2.9 4.4c-0.3 0.4 0 1.1 0.5 1.3 0.6 0.2 1 0 1.3-0.5q0.2-0.3 0.3-0.5 0.1-0.2 0.2-0.3c0-0.1 0.2-0.4 0.1-0.1q0.3-0.5 0.6-1 0.7-1.1 1.5-2c0.3-0.4 0.3-1.1-0.2-1.4z"/>
					<path class="s0" d="m204.1 157.6c-1.4-1.7-2.7-3.7-2.5-6.1 0.3-2.3 1.4-4.5 2-6.8 0.3-1.2-1.7-1.5-2-0.3-0.6 2.5-1.9 4.9-2 7.5-0.1 2.7 1.3 4.9 2.9 6.9 0.8 1 2.4-0.1 1.6-1.2z"/>
					<path class="s13" d="m276.2 157.6c-1-0.6-2.3-0.7-3.5-0.7q-1 0-2.1 0.1c-0.6 0.1-1.2 0.1-1.8 0.4-0.6 0.4-1 1-0.9 1.7q0 0.3 0.1 0.5c-0.1 0.4 0 0.8 0.3 1.2 0.7 0.8 1.9 1.3 2.9 1.4 1 0.2 2 0.2 3 0 1-0.3 2.2-0.6 2.8-1.5 0.6-1 0.2-2.4-0.8-3.1z"/>
					<path class="s13" d="m229.9 150.9c-0.2-0.6-0.7-1-1.3-1.4-0.9-0.5-1.9-0.6-2.9-0.6q-0.8 0.1-1.6 0.2c-0.6 0.1-1.2 0.2-1.7 0.5-0.7 0.3-1.1 1.1-0.8 2q0.1 0.4 0.4 0.7 0.1 0.2 0.3 0.4c0.3 0.5 0.9 0.7 1.4 0.8 1.9 0.6 4.4 1 5.9-0.7 0.4-0.6 0.6-1.3 0.3-1.9z"/>
				</g>
			</g>
			<g id="Clip-Path" clip-path="url(#cp9)">
				<g>
					<g>
						<path class="s14" d="m354.7 200.4c34.4-3.5 70.4 15.5 87.5 47.7 4.2 7.9 6.9 16.5 9.6 25 4.6 14.3 9.3 29.3 6.5 44-5.8 30-33.6 42.6-56.6 57-18.8 11.9-41.6 30.9-24.4 54.2 4.1 5.6 10.4 9.2 16.9 11.7 23.9 9.2 56 0.7 65-23.3 1.1-3.1 1.9-6.4 1.3-9.6-1.4-6.7-8.3-10.9-15.1-11.8-14.6-1.9-28.9 8.3-35.5 21.5-15.9 32.2-0.2 58.3 34.3 62.1 22.6 2.5 44.2-6.5 66.3-9.2 12.4-1.6 22.4 0.2 34.3 3.2 10.5 2.5 20.4 3.3 27.8 12.5 5.8 7 7.7 17.4 3.9 25.7-5.1 11-18.1 15.7-27 23.9-15.9 14.7-16.9 41.9-3.7 59.1 11.6 15 32.2 21.6 50.9 18.2"/>
						<path class="s15" d="m764.6 617.4q1.9-0.5 3.8-1.1"/>
					</g>
				</g>
			</g>
			<g id="Clip-Path" clip-path="url(#cp10)">
				<path class="s16" d="m69.9-31.3c-6.5 17.3-1 39.4-13.6 53-4.8 5.3-11.6 8.2-18.3 10.7-13.7 5-27.9 8.4-41.1 14.4-13.3 6-25.8 15-32.5 27.9-6.4 12.5-6.7 27.4-4.7 41.3 1.7 11.3 4.9 22.8 12.2 31.6 10.8 13 29.2 17.8 46.1 16.6 17-1.3 33-7.8 48.9-13.9 15.9-6.1 32.3-12 49.3-12 62.1 0.1 88.8 71.4 71.2 122.6-22.2 64.9-88.3 95.6-147 121.1-15.4 6.7-31.2 12.8-45 22.5-13.7 9.7-25.4 23.6-28.5 40.1-2.3 12.4 0.3 25.1 3.8 37.2 5.4 18.6 12.7 36.6 21.9 53.7 6.9 12.7 15.9 25.8 29.7 29.9 11 3.2 22.7 0 34-2 29.9-5.2 60.5-2 90.8-2.7 30.6-0.8 62.3-7.1 87.7-25.1 11.3-8.1 17.2-22.1 25.1-33.3 10.2-14.4 21.7-28 35.7-38.9 19.1-14.8 45.4-24.3 67.4-14.3 22 9.8 32.5 36.2 31.2 60.2-1.4 24-12.2 46.3-22.8 67.8"/>
			</g>
			<g id="Clip-Path" clip-path="url(#cp11)">
				<path class="s2" d="m153.7 364.7q-0.3-0.5-0.6-1-0.1-0.1-0.1-0.1-0.2-0.3-0.3-0.6-0.6-1.2-1.2-2.4c-0.9-1.8-1.8-3.5-3-5.1-0.7-1-2.4-1.4-3.4-0.5-1.1 0.8-1.5 2.4-0.6 3.5q0.3 0.4 0.7 0.9c0.8 1.7 2.9 5.7 2.9 5.7q0.2 0.5 0.4 1.1c0.2 0.9-0.5 1.8-1.4 1.8q-0.2 0-0.5 0-2.4-2.3-4.9-4.6c-1.9-1.7-3.9-3.8-6.4-4.8-1.2-0.5-2.8-0.1-3.3 1.2-0.5 1.3 0 2.8 1.3 3.3q0.2 0.1 0.5 0.3c0.9 0.8 1.8 1.5 2.6 2.3 1.7 1.6 3.6 3.1 5.2 4.8q0.2 0.2 0.3 0.5c-4.5-1.7-9.1-3.1-13.7-4.6-1.3-0.4-2.7 0-3.3 1.3-0.2 0.4-0.3 2.1 0.2 2.5 1.9 1.4 5.1 1.8 7.4 2.4 2 0.4 4.3 1.4 6.1 2.4 1.2 0.6 1.8 0.8 1.4 2.2-1.5 0-3.1-0.7-4.6-0.8-2-0.3-4.1-0.2-6.1-0.5-1.3-0.2-3.1-0.5-4.3 0.4-0.8 0.7-1.2 2.6-0.3 3.5 0.9 0.8 3.4 0.6 4.6 0.8q3.2 0.5 6.4 0.9c3.2 0.4 6.9 1.3 9.5 3 0.5 0.3 0.9 0.7 1.1 1.2q0.3 0.6 0.2 1.2c-3.2 2.3-6.1 5.1-8.9 7.8-0.9 0.9-0.6 2.8 0.4 3.6 1.1 0.8 2.5 0.6 3.5-0.4q0.4-0.4 0.8-0.8c2-1.5 4.3-2.3 6.6-2.9 4.9-1.3 8-0.7 11-4.9 2.3-3.2 6.6-8.7 6.6-12.8 0.1-7.1-8.7-7.5-12.8-11.8z"/>
			</g>
			<g id="Clip-Path" clip-path="url(#cp12)">
				<path class="s17" d="m578.5 91.3q-3.1 0.6-6.2 1.1-0.4 0.1-0.8 0.2c-0.2 0-0.5 0.1-0.7-0.1-0.2-0.1-0.3-0.4-0.4-0.6q-0.2-0.3-0.4-0.7-0.8-1.4-1.7-2.8c-0.1-0.2-0.4-0.2-0.5 0q-1.1 2.2-1.5 4.7-3.3 1.3-6.6 2.6c-0.3 0.1-0.3 0.5 0 0.6q2.9 0.6 6 0.6-1.6 3.5-2.7 7.2c0 0.2 0.2 0.4 0.4 0.3 1.6-0.5 2.6-1.9 3.7-3.1q0.4-0.5 0.8-1c0.2-0.2 0.4-0.4 0.7-0.5 0.3 0 0.5 0.1 0.8 0.2 0.8 0.4 1.6 0.9 2.4 1.3 0.9 0.5 1.8 0.8 2.8 0.7 0.2 0 0.3-0.2 0.3-0.3q-0.9-2.6-2.3-5c2.4-1.2 4.5-2.8 6.2-4.9 0.2-0.3 0-0.6-0.3-0.5z"/>
			</g>
			<g id="Clip-Path" clip-path="url(#cp13)">
				<path class="s17" d="m665.5 201.8q-3.2 0.5-6.3 1.1-0.3 0.1-0.7 0.1c-0.3 0.1-0.6 0.2-0.8 0-0.1-0.2-0.2-0.4-0.4-0.6q-0.2-0.3-0.4-0.7-0.8-1.4-1.6-2.8c-0.1-0.2-0.4-0.2-0.5 0q-1.1 2.2-1.6 4.7-3.3 1.3-6.6 2.6c-0.2 0.1-0.3 0.5 0 0.6q3 0.6 6 0.6-1.5 3.5-2.6 7.2c-0.1 0.2 0.1 0.4 0.3 0.3 1.6-0.5 2.7-1.9 3.7-3.2q0.4-0.5 0.9-0.9c0.2-0.2 0.4-0.5 0.7-0.5 0.2 0 0.5 0.1 0.7 0.2 0.9 0.3 1.7 0.9 2.5 1.3 0.8 0.5 1.8 0.8 2.7 0.7 0.2 0 0.4-0.2 0.3-0.4q-0.9-2.5-2.3-4.9c2.4-1.2 4.6-2.9 6.2-5 0.2-0.2 0-0.5-0.2-0.4z"/>
			</g>
			<g id="Clip-Path" clip-path="url(#cp14)">
				<path class="s2" d="m209 343.4q-3.1 0.6-6.2 1.2-0.4 0-0.7 0.1c-0.3 0.1-0.6 0.2-0.8 0-0.2-0.2-0.3-0.4-0.4-0.6q-0.2-0.4-0.4-0.7-0.8-1.4-1.6-2.8c-0.1-0.2-0.4-0.2-0.5 0q-1.1 2.2-1.6 4.7-3.3 1.3-6.6 2.6c-0.2 0.1-0.3 0.5 0 0.5q3 0.7 6 0.7-1.5 3.5-2.6 7.1c-0.1 0.2 0.1 0.5 0.3 0.4 1.6-0.5 2.7-1.9 3.7-3.2q0.4-0.5 0.9-0.9c0.2-0.2 0.4-0.5 0.7-0.5 0.2 0 0.5 0.1 0.7 0.2 0.9 0.3 1.6 0.8 2.5 1.3 0.8 0.4 1.7 0.8 2.7 0.7 0.2 0 0.4-0.2 0.3-0.4q-0.9-2.6-2.3-5c2.4-1.1 4.6-2.8 6.2-4.9 0.2-0.2 0-0.5-0.3-0.5z"/>
			</g>
			<g id="Clip-Path" clip-path="url(#cp15)">
				<path class="s3" d="m739.2 323.9q0.3-0.2 0.5-0.5 0.6-0.5 1.1-1 1.1-1.1 2.2-2.1c0.2-0.2 0-0.5-0.2-0.4q-2.4 0.4-4.9 0.8c-0.3 0-0.8 0.2-1.1-0.1-0.3-0.3-0.4-0.7-0.6-1q-0.7-1.1-1.3-2.2c-0.1-0.2-0.4-0.2-0.4 0q-0.7 2.9-1.3 5.8 0 0 0 0.1-2.6 0.4-4.9 1.6c-0.2 0.1-0.1 0.4 0.1 0.5q1.3 0.4 2.6 0.9 0.6 0.2 1.3 0.4c0.1 0.1 0.5 0.1 0.6 0.3 0.1 0.1 0 0.4 0 0.6-0.2 1.7-0.8 3.3-0.1 5 0.1 0.1 0.3 0.1 0.4 0q1.8-2.9 3.3-6.1 3.1 1.5 6.1 2.9c0.2 0.1 0.5-0.2 0.3-0.4q-1-1.1-2-2.3-0.5-0.5-1-1.1c-0.3-0.4-0.6-0.7-0.9-1.1-0.2-0.2 0-0.4 0.2-0.6z"/>
			</g>
			<g id="Clip-Path" clip-path="url(#cp16)">
				<g>
					<g>
						<path class="s9" d="m116.9 382.2c-0.5-4.5-3.3-8.5-7.2-10.7-2.1-1.2-4.3-1.9-6.5-2.4q0.9-0.5 1.7-1.1c3.6-2.7 5.8-6.8 6.1-11.4 0.2-4.4-1.4-9-4.6-12.1-1.9-1.9-4.3-3.2-7-2.9-2.5 0.3-5 1.7-7.1 3-3.2 2.1-6 4.8-8.3 7.9 0-3.8-0.2-7.7-2-11.2q-0.1-0.1-0.2-0.3c-0.8-1.8-2-3.4-3.7-4.5-2.3-1.5-5.2-1.4-7.8-0.4-2.3 0.4-4.5 1.5-6.2 3.1-2.9 2.6-3.7 6.4-3.8 10.2-0.1 2.3 0.1 4.6 0.7 6.8-1.5-1-3.1-1.8-4.9-2.4-3.2-1-7-0.8-9.8 1.1-2.8 2-4 5.4-3.6 8.7 0.4 3.5 2.3 6.6 5 8.8 2.2 1.8 4.7 3 7.3 3.9-4.3 2.5-8 5.9-8.5 11.3-0.3 3.1 0.8 6.4 3.5 8.3 3.1 2.1 7.3 1.6 10.5-0.3 2.2-1.3 3.9-3.2 5.4-5.3-0.4 2.4-0.5 4.8 0 7.2 0.6 3.7 2.6 6.7 5.8 8.6 2.8 1.6 6.4 2 9.1 0.2q1.2-0.9 1.9-2c2.7-2.7 3.5-6.7 3.6-10.3 0-2.7-0.3-5.4-0.8-8.1 3.1 2.4 6.5 4.5 10 6.1 4.8 2.2 10.4 3.3 15.4 1 4.2-2 6.6-6.2 6-10.8zm-9.8-28q-0.1-0.2-0.3-0.4 0-1.2-0.2-2.5c0.3 0.9 0.4 1.9 0.5 2.9zm-25.5 24.4q0 0 0.1 0.1-0.1 0.3 0 0.7 0.2 0.6 0.4 1.3-0.2 0-0.5 0.2-0.1-0.6-0.2-1.2 0.1-0.6 0.2-1.1zm-19.1-29.2q0-1.6 0.2-3.1 0.2 0 0.3-0.1-0.1 0.5-0.2 1-0.2 1.3-0.3 2.6 0-0.2 0-0.4zm0.2-7.1q-0.1 0.4-0.2 0.9-0.3 0.6-0.4 1.3-0.1 0.3-0.2 0.5-0.1 0.2 0 0.4c-0.2 0-0.4 0.1-0.4 0.3-0.5 3.5-0.4 7 0.4 10.4-0.5-1.6-0.7-3.4-0.8-5.1-0.1-2.9 0.2-6.1 1.6-8.7zm2.6-2q-0.2 0-0.3 0.1-0.2 0.3-0.4 0.6c-0.1-0.2-0.5-0.4-0.7-0.1q-0.2 0.2-0.4 0.4 0-0.1-0.1-0.1 0.1-0.2 0.2-0.3c1-1.2 2.2-2.1 3.6-2.8q-1.1 0.9-1.9 2.2zm3.3 57.7q-0.1-0.2-0.1-0.3c0.3 0.2 0.6 0.3 1 0.3-0.4 0.2-0.6 0.6-0.4 1.1q0.3 1.1 0.9 2.1 0.3 0.6 0.6 1.2c-1-1.2-1.7-2.8-2-4.4zm4.4-24.6l0.1 2.5q0 0.5-0.1 1-0.1-0.7-0.4-1.3 0.1-1.1 0.4-2.2zm-1.3 25.4q0.2-0.3 0.2-0.7 0-0.1 0-0.2 0.1 0.2 0.2 0.3 0.1 0.6 0.3 1.2-0.4-0.3-0.7-0.6zm9.6 4.1c-1.8 1.7-4.3 2.3-6.8 1.8q-0.7-0.2-1.4-0.5 0.4 0.2 0.8 0.3c1.4 0.2 2.8-0.1 3.9-0.8q0.1 0.1 0.1 0.2c0.5 0.6 1.4 0.6 1.8-0.1q0.4-0.9 0.7-1.9c0.5 0.3 1.3 0 1.5-0.6q0.3-2.2 0.3-4.4 0.1-0.8 0.2-1.6c0.4 2.6 0.3 5.4-1.1 7.6zm3.5-20.2q0-0.1-0.1-0.3 1.5 1.2 3.1 2.4 0.5 0.5 1 1-2-1.4-4-3.1zm4.9-28.6q0.4-0.3 0.8-0.6-0.1 0.3 0 0.7-0.4-0.1-0.8-0.1zm21.2 36.7c-2.8 1.6-6 1.8-9.1 1.2 1.7 0.2 3.5 0.2 5.2-0.2 1.7-0.2 3.3-0.8 4.6-2 0.8-0.6 1.3-1.4 1.8-2.3 1-1.5 1.4-3.4 1-5.2q0.1-1.1 0-2.3 0 0 0 0 0.1 0.4 0.2 0.8c1.1 3.9-0.2 7.9-3.7 10zm-6.4-2.7q1.7-0.1 3.3-0.5 0 0 0-0.1c-0.7 0.7-2.1 1-3.5 1.1q0.2-0.2 0.2-0.5zm0.3-15.5c-0.2 0.2-0.4 0.4-0.4 0.7q-0.7-0.5-1.5-0.9-0.2-0.1-0.4-0.1 0.1-0.2 0.1-0.4 1.1 0.2 2.2 0.7zm-0.6 4.6q-0.8-0.7-1.7-1.3 0.2-0.1 0.4-0.3 0.1 0.2 0.2 0.3 0.5 0.6 1.1 1.3zm-1.2-21.9q0-0.1 0.1-0.1c0.4 0.1 0.9-0.2 1.1-0.7q0 0.8 0 1.6-0.2 0.5-0.3 1-0.3 0.7-0.6 1.4-0.3-0.1-0.5-0.1l1-1.7c0.4-0.6-0.2-1.3-0.8-1.4zm-1-1.8q-0.1 0-0.1 0-0.3 0.3-0.7 0.5l0.6-1q0.1 0.2 0.2 0.5zm-0.4-6.8q0.1 0.2 0.2 0.4 0 0.1 0.1 0.1c-0.3 0.1-0.5 0.2-0.7 0.4 0-0.4-0.2-0.7-0.7-0.8q-0.5-0.1-1-0.3 1.1 0 2.1 0.2zm-8.2 6.9c0 0.7 0.8 1.4 1.5 0.9q0.7-0.4 1.3-0.7-0.5 0.6-1 1.2c-0.9-0.3-1.9-0.5-2.8-0.6q0.5-0.4 1-0.8zm0.8 18.2q0.4-0.3 0.9-0.6 0.1 0 0.3 0c0 0.3 0.1 0.5 0.3 0.7q0.2 0.1 0.3 0.2 0 0.1 0.1 0.2-1-0.3-1.9-0.5zm3.7-27.2q-1.8 0.3-3.5 1.1 1.2-0.7 2.5-1.3 0.6-0.3 1.3-0.4-0.2 0.3-0.3 0.6zm0.2 33.2q-0.4-0.4-0.9-0.8 0.6 0.3 1.2 0.6-0.2 0.1-0.3 0.2zm1.6-2q-0.8-0.5-1.6-0.9 0.9 0.2 1.9 0.5-0.2 0.2-0.3 0.4zm1.7-2.9q0.1 0 0.2 0-0.2 0.3-0.1 0.6-0.6-0.4-1.3-0.9 0.6 0.2 1.2 0.3zm-0.2 5.7c0.2 0.2 0.5 0.2 0.8 0.2q0.2 0.4 0.5 0.7 0.4 0.7 0.8 1.4-1.4-1.2-2.8-2.3 0.4 0.1 0.7 0zm10.1 4.2c0.4 0.9 0.6 1.8 0.6 2.7q-0.1 0-0.1 0.1c-0.1 0.3-0.3 0.9-0.5 1-0.3 0.1-0.5-0.2-0.7-0.4q-0.2-0.1-0.4-0.3c0.7-0.9 1-1.9 1.1-3.1z"/>
						<g>
							<path class="s3" d="m86.4 362.8l15.4-11.8c0.4-0.3 0-1-0.5-0.7q-7.7 5.9-15.3 11.7 0.2 0.4 0.4 0.8z"/>
							<path class="s3" d="m105.4 357.7c-4 1.5-8 3.1-12.1 4.2-2.2 0.5-4.4 0.9-6.6 1.4q0.2 0.4 0.4 0.8c2.2-0.6 4.5-0.9 6.7-1.5 4-1.1 8-2.6 11.9-4.1 0.5-0.2 0.2-1-0.3-0.8z"/>
							<path class="s3" d="m74.3 348.1q0.2 2.8 0.5 5.5 0.3 2.8 0.7 5.6 0.4-0.1 0.9-0.2-0.5-3-0.8-6-0.3-2.8-0.5-5.6c-0.1-1.6-0.3-3.3-1-4.7-0.3-0.5-1-0.1-0.8 0.4 0.8 1.5 0.8 3.3 1 5z"/>
							<path class="s3" d="m72.2 360.3q0.4-0.2 0.8-0.4-1.3-8.1-3.6-16.1c-0.1-0.5-0.9-0.3-0.8 0.3q2.3 8 3.6 16.2z"/>
							<path class="s3" d="m67 365.2q0.1-0.1 0.2-0.3c0-0.1 0-0.3-0.2-0.4q-3.9-1.8-7.9-3.5c-2.4-1.2-4.9-2.4-7.5-2.9-0.6-0.1-0.8 0.8-0.2 0.9 2.7 0.4 5.1 1.7 7.5 2.8q3.9 1.7 7.7 3.5c0.2 0 0.3 0 0.4-0.1z"/>
							<path class="s3" d="m66.1 367.1q-7.7-0.5-15.4-1.1c-0.5 0-0.5 0.8 0.1 0.9q7.5 0.5 15 1 0.2-0.4 0.3-0.8z"/>
							<path class="s3" d="m66.8 375.8q-7.5 4.7-14.6 9.7c-0.5 0.4 0 1.1 0.4 0.8q7.2-5.1 14.6-9.8-0.2-0.3-0.4-0.7z"/>
							<path class="s3" d="m67.7 377.4q-6.7 6.4-13.5 12.8c-0.4 0.4 0.3 1 0.7 0.6q6.6-6.4 13.3-12.7-0.3-0.4-0.5-0.7z"/>
							<path class="s3" d="m72.3 381.4q-0.8 6.3-1.2 12.6c-0.1 0.6 0.8 0.5 0.8 0q0.5-6.1 1.2-12.2-0.4-0.2-0.8-0.4z"/>
							<path class="s3" d="m77.2 383.3c0-0.5-0.9-0.5-0.9 0.1q-0.1 5.7-0.3 11.5c0 0.5 0.9 0.5 0.9-0.1q0.1-5.7 0.3-11.5z"/>
							<path class="s3" d="m103.7 387.1q0.1-0.2 0.2-0.4c-1.1-0.3-2.2-0.8-3.2-1.4q-2.8-1.3-5.5-2.7-3.7-1.9-7.5-3.9-0.3 0.4-0.6 0.7 4 2.1 8.1 4.1c1.9 1 3.7 1.9 5.6 2.9 0.9 0.4 1.8 0.8 2.7 1.1q0.1-0.2 0.2-0.4z"/>
							<path class="s3" d="m108.2 377.5q-10-1.5-20.1-2.4-0.1 0.4-0.3 0.9 10.1 0.8 20.2 2.3c0.6 0.1 0.7-0.8 0.2-0.8z"/>
							<path class="s3" d="m97.5 370.7q-4.5 0.2-8.9 1 0 0 0 0 0 0.1-0.1 0.1 0 0.4 0 0.7 4.5-0.7 9-0.9c0.6 0 0.5-0.9 0-0.9z"/>
						</g>
						<path class="s3" d="m91.2 367c-0.5-3.4-1.8-7.1-4.7-9.4-3.1-2.5-7.3-2.5-11-1.8q-0.4 0.1-0.7 0.3c-7.5 1.2-13.5 6.9-13.6 14.7-0.1 7.5 5.2 12.8 12.2 14.4 3.4 0.8 7.3 0.8 10.5-0.8 6.4-3.1 8.4-10.8 7.3-17.4zm-16.5-1.8q0 0 0 0-0.5 1.1-0.8 2.3 0-0.9-0.1-1.8c0-0.3-0.2-0.6-0.5-0.8q0.4-0.3 0.8-0.6 0.2-0.1 0.4-0.4 0 0 0-0.1 0 0 0 0 0 0.2-0.1 0.5c-0.1 0.3 0 0.7 0.3 0.9zm-3.5 2q-0.2 0.6-0.4 1.3-0.1-0.4-0.1-0.8 0.3-0.3 0.5-0.5zm3.2 6.9q0.2-1.4 0.5-2.9 0.1 1.7 0.2 3.3c-0.2-0.2-0.4-0.3-0.7-0.4zm10.2 7.6c-3.8 2.8-9.2 2.6-13.6 0.7q-0.1-0.4-0.3-0.7 0-0.1 0.1-0.1 0.6 0.3 1.2 0.5c2.3 1.8 5.6 1.9 8.3 1.2q1.3-0.4 2.6-1.2 0 0 0 0 0.2-0.1 0.4-0.2 0.5-0.1 1-0.3c0.2 0 0.3-0.2 0.2-0.4 1.5-1.1 2.7-2.4 3.6-3.9-0.8 1.7-1.9 3.2-3.5 4.4zm-8.3-16.7q0-0.1 0-0.1 0.4-0.7 0.7-1.4 0.1 0 0.1 0.1-0.3 1-0.5 2-0.1-0.4-0.3-0.6zm1 9.2q0.2-0.7 0.3-1.5 0.1 2.2 0.2 4.4-0.1 0.2-0.3 0.3-0.1-0.1-0.2-0.2 0-1.5 0-3zm2.8 3.3q0 0.1 0 0.2 0 0.5 0.2 0.7-0.6 0.2-1.3 0.4 0.6-0.6 1.1-1.3zm-0.3-3.6q0-1 0.2-2 0 0.7 0 1.4-0.1 0.3-0.2 0.6zm2.9-9.7q0.1-0.1 0.2-0.2 0.1 0.3 0.2 0.6-0.2 0-0.5 0.1 0.1-0.1 0.1-0.3 0-0.1 0-0.2zm0.6 12.6q-0.6 0.5-1.3 0.8 0 0 0 0 0.1-0.2 0.1-0.4c0.3 0 0.7-0.2 0.8-0.6q0.1-0.3 0.3-0.7 0 0.1 0.1 0.2 0 0.3 0 0.7zm5.6-10.1q0-0.1-0.1-0.3 0-0.2 0-0.5-0.1-0.3 0-0.6 0 0 0 0 0.2 0.7 0.3 1.4-0.1 0-0.2 0zm-1.7-5.3q0 0.1-0.1 0.2c-0.2-0.5-0.6-0.7-1-0.6q-0.1-0.3-0.2-0.6-0.1-0.4-0.2-0.8 0.8 0.8 1.5 1.8zm-4.4-3.1c0.3 0.3 0.8 0.3 1.2 0.1q0 0 0.1 0c-0.5 0.2-0.8 0.6-0.6 1.2q0.1 0.2 0.1 0.3-0.1 0-0.2 0.1-0.2-0.6-0.4-1.2-0.1-0.2-0.3-0.4 0 0 0.1-0.1zm-10.5 4.8q-0.2 0.3-0.4 0.5-0.1-0.4-0.1-0.7 0.2 0.2 0.5 0.2zm-2.8-0.1q-0.6 0.9-1.1 1.8c-0.2 0-0.4 0-0.6 0.2q-0.2 0.4-0.4 0.8 0-0.2 0-0.3 0.8-1.3 1.7-2.7 0.1 0.1 0.4 0.2zm-3.6 3.6q0 0 0 0-0.2 0.8-0.3 1.5-0.2 0.7-0.4 1.4 0-0.7 0-1.4 0.4-0.7 0.7-1.5zm-1.2 10.5q0.1-0.1 0.1-0.2 0.4-1 0.8-2-0.1 1.7 0 3.5-0.5-0.6-0.9-1.3zm2.4 2.8c0.2-0.1 0.4-0.3 0.5-0.6q0-0.1 0-0.2 0.4 0.5 0.8 0.9 0 0 0 0 0 0 0 0 0.2 0.1 0.4 0.3 0.2 0.2 0.4 0.5 0.4 0.5 0.7 1 0 0 0 0-1.3-0.6-2.3-1.4-0.3-0.2-0.5-0.5zm8.1-0.7q-0.3 0-0.7 0 0.1-0.3 0.2-0.6 0 0 0 0.1c0.1 0.3 0.3 0.4 0.5 0.5zm13.2-2.5c0-0.2-0.3-0.4-0.5-0.4q0 0 0.1-0.1 0.1-0.2 0-0.5 0.3 0.3 0.6 0.4-0.1 0.3-0.2 0.6z"/>
						<path class="s4" d="m72.5 364.7c-0.2-0.2-0.5-0.3-0.7-0.2-0.3 0-0.5 0.1-0.7 0.3q-0.1 0.1-0.2 0.2-0.1 0.2-0.1 0.5l-0.1 1.7c0 0.3 0.2 0.6 0.4 0.7 0.1 0.2 0.4 0.3 0.7 0.3 0.2 0 0.5-0.1 0.7-0.3q0.1-0.2 0.1-0.3 0.2-0.2 0.1-0.5l0.1-1.7c0-0.2-0.1-0.5-0.3-0.7z"/>
						<path class="s4" d="m82.7 365.2q0-0.2-0.2-0.3-0.1-0.2-0.3-0.2-0.2-0.1-0.4-0.1c-0.3 0.1-0.5 0.2-0.7 0.4q-0.1 0.1-0.1 0.2-0.2 0.2-0.1 0.5l-0.1 1q0 0.2 0.1 0.4 0.1 0.2 0.2 0.3 0.2 0.2 0.4 0.2 0.2 0.1 0.4 0.1c0.2-0.1 0.5-0.2 0.6-0.4q0.1-0.1 0.2-0.2 0.1-0.2 0.1-0.5v-1q0-0.2-0.1-0.4z"/>
						<path class="s4" d="m83 372.5c-1.4 2.7-4.1 4.4-7.1 4.4-3 0.1-5.8-1.8-7.2-4.5-0.5-1.2-2.2-0.1-1.6 1.1 1.6 3.3 5.2 5.5 8.9 5.4 3.7 0 7.1-2.2 8.8-5.4 0.6-1.2-1.2-2.1-1.8-1z"/>
					</g>
				</g>
			</g>
			<g id="Clip-Path" clip-path="url(#cp17)">
				<path class="s18" d="m384.8 364.2c-2.1-3.7-7-5-10.9-3.8-3.5 1-5.8 3.5-7.4 6.4-1.3-2.8-3.3-5.3-6.4-6.5-4.4-1.7-8.9 0.2-10.7 4.5-2.7 6.3 1.8 13 4.5 18.5 0.7 1.4 10.4 16.8 11 16.3 6.9-6.4 12.8-13.9 17.3-22.1 2.2-3.9 4.9-9 2.6-13.3z"/>
			</g>
			<g id="Clip-Path" clip-path="url(#cp18)">
				<g>
					<path class="s3" d="m415 392.5c-1.8-5.2-0.2-11.2 5-14.5 4.6-2.9 11.1-2.4 15.1 1.2-1.2-4.8-1.1-10.1 1.5-14.4 2.5-4.2 7.9-7 12.6-5.5 2.5 0.8 4.5 2.5 6.2 4.5 5.8 6.6 5.1 13.3 4.9 21.6-0.2 6.3 0.4 14.9-1.5 20.8-2.1 6.7-13.2 1.1-18.2 0.1-7.7-1.5-16.7-3.2-22.5-8.9-1.4-1.5-2.4-3.2-3.1-4.9z"/>
					<path class="s4" d="m452.9 392.6c-0.9 3.9-4.6 6.9-8.6 6.9-1.3 0.1-1.3 2.1 0 2 4.9 0 9.4-3.6 10.6-8.4 0.2-1.3-1.7-1.7-2-0.5z"/>
					<path class="s4" d="m429.6 386c-2.3-1-5.2-0.5-6.9 1.4-1.7 1.9-1.9 4.9-0.5 7 0.7 1.1 2.4 0.1 1.7-1-0.9-1.4-0.8-3.4 0.3-4.6 1-1.3 3-1.7 4.5-1 0.5 0.2 1.1 0.1 1.3-0.4 0.3-0.5 0.1-1.2-0.4-1.4z"/>
					<path class="s4" d="m446.5 367c-2.1 1.5-2.6 4.3-2.1 6.7 0.2 0.5 0.8 0.8 1.3 0.7 0.5-0.2 0.8-0.8 0.7-1.3-0.2-0.7-0.3-1.6-0.1-2.4 0.2-0.7 0.6-1.5 1.1-1.9 0.6-0.5 1.3-0.7 2.1-0.6 0.6 0.1 1.3 0.4 1.6 1 0.7 1.1 2.4 0 1.7-1.1-1.3-2.1-4.4-2.5-6.3-1.1z"/>
				</g>
			</g>
			<g id="Clip-Path" clip-path="url(#cp19)">
				<g>
					<path class="s3" d="m694.7 255.4c-0.2-1.5-0.3-3 0-4.5 1-5.4 7.9-8.5 13-6.4 5.1 2 8 8.1 7.3 13.5 0.6-5.1 4.3-8.2 9.1-9.2 1.3-0.3 2.6-0.5 3.9-0.3 4.8 0.6 7.6 6.3 6.7 11.1-0.8 4.7-4.3 8.6-7.8 11.9-5.7 5.5-12.1 11-19 14.8-6.1-9.1-10.9-18.7-13-29.7q-0.1-0.6-0.2-1.2z"/>
					<path class="s2" d="m730.1 260.8c-0.6-0.3-1.2 0-1.5 0.5 0.1-0.2 0 0 0 0.1q-0.1 0.1-0.2 0.2-0.1 0.2-0.2 0.4-0.3 0.4-0.7 0.9-0.6 0.8-1.3 1.5-0.4 0.4-0.7 0.7 0 0.1-0.1 0.1-0.1 0.1-0.2 0.2-0.2 0.1-0.4 0.3-0.8 0.7-1.6 1.3c-0.5 0.3-0.7 1.1-0.3 1.5 0.4 0.5 1 0.6 1.5 0.3 2.6-1.7 4.7-4 6.2-6.6 0.3-0.5 0-1.2-0.5-1.4z"/>
					<path class="s2" d="m724.5 259.8c-0.4-0.4-1.1-0.4-1.5 0.1q-1.6 1.9-3.1 3.8c-0.4 0.5-0.3 1.2 0.1 1.6 0.5 0.4 1.2 0.3 1.6-0.2l3.1-3.8c0.4-0.4 0.3-1.2-0.2-1.5z"/>
					<path class="s2" d="m703.4 263.7q-2.2-5.9-3-12c-0.2-1.5-2.4-1.2-2.2 0.2 0.5 4.3 1.6 8.5 3.1 12.6 0.5 1.3 2.5 0.5 2.1-0.8z"/>
					<path class="s2" d="m709 276.4q-0.8-0.9-1.5-1.9-0.1-0.3-0.3-0.5-0.1-0.2-0.1-0.3-0.1-0.1-0.1-0.1-0.3-0.6-0.5-1.1c-0.3-0.6-0.9-0.9-1.5-0.7-0.5 0.3-0.9 0.9-0.6 1.5 0.7 1.6 1.6 3.1 2.8 4.4 0.2 0.2 0.4 0.4 0.8 0.5 0.2 0 0.6-0.1 0.8-0.2 0.4-0.4 0.6-1.1 0.2-1.6z"/>
					<path class="s2" d="m715.3 273.2q-0.1-0.2-0.3-0.3-0.1-0.2-0.3-0.3c-0.3-0.1-0.6-0.1-0.9 0q-0.4 0.2-0.6 0.6-0.4 0.8-0.8 1.5-0.1 0.2 0 0.4-0.1 0.3 0 0.5 0.1 0.2 0.3 0.3 0.1 0.2 0.3 0.3c0.3 0.1 0.6 0.1 0.9 0q0.4-0.2 0.6-0.6 0.4-0.7 0.7-1.5 0.1-0.2 0.1-0.4 0-0.3 0-0.5z"/>
					<path class="s2" d="m710.6 254.5c-0.7 0-1.2 0.3-1.3 0.9l-0.8 4.3c-0.1 0.5 0.4 1.2 1 1.2 0.6 0.1 1.1-0.3 1.2-0.9q0.4-2.1 0.8-4.2c0.1-0.6-0.4-1.2-0.9-1.3z"/>
				</g>
			</g>
			<g id="Clip-Path" clip-path="url(#cp20)">
				<g>
					<path class="s6" d="m350.1 217.8c4.4-0.4 11.2-2.6 11.1-8.3-0.1-0.7-0.2-1.3-0.4-2-1.1-4-2.3-8-3.9-11.8-0.7-1.7-1.6-3.5-3.2-4.5-3.8-2.5-15.5 4.5-19.2 6.3-5.4 2.7-10.1 5.9-14.9 9.3-4.5 3.3-10.2 5.1-15.3 7.4-5.3 2.5-10.5 5.6-14.1 10.3 19.9-3.1 39.8-4.9 59.9-6.7z"/>
					<path class="s7" d="m353.9 209.7c-4.7 0.6-9.3 1.1-14 1.8-9.1 1.5-44.3 9.8-43.9 9.6 3.4-1.9 23.1-9.5 26.6-11.2 6.2-3 12.5-5.9 18.7-9 3.1-1.6 6.3-3.2 9.5-4.6 1.2-0.5 4.5-1.2 5.3-2.1 0.7-1 0.1-1.6 0.4-2.9 1.5-6.7 0.6-14.8 0-21.6-0.1-1.2-0.3-2.4-0.8-3.5-0.6-1.1-1.6-2-2.8-2.1-0.8 0-1.6 0.3-2.3 0.7-2.6 1.2-4.9 3.1-7.3 4.9-21.6 16.9-43.7 33-62.7 52.9-1.2 1.2-3.3 3.2-2.7 5.1 0.5 1.8 2.7 2.2 4.4 2.3 20.9 1.3 41.9 1.8 62.7 3.4 5.4 0.4 10.6 0.4 15.9 0.3 4.8-0.2 9.4 0.4 14.2-0.7-1.1-4.5-3.5-8.5-6-12.5-1.8-3-3.8-8.1-6.4-10.4-2.6-2.2-5.3-0.9-8.8-0.4z"/>
					<path class="s8" d="m359.8 207.4q-9 0.7-17.9 2.4c-1.3 0.2-1.1 2.2 0.2 2q8.9-1.8 17.9-2.4c1.3-0.1 1.1-2.1-0.2-2z"/>
					<path class="s8" d="m355.9 220.5q-3.2-0.2-6.5-0.4c-0.6 0-1.1 0.3-1.2 0.9 0 0.5 0.3 1.1 0.9 1.1q3.3 0.2 6.5 0.3c0.6 0.1 1.1-0.2 1.2-0.8 0.1-0.5-0.3-1.1-0.9-1.1z"/>
					<path class="s8" d="m359.1 224.9q-3.1 0.7-6.3 0.1c-0.5-0.1-1 0.3-1.1 0.8-0.1 0.6 0.3 1 0.8 1.1 2.3 0.5 4.6 0.5 6.9 0 0.5-0.1 0.9-0.5 0.8-1.1 0-0.5-0.5-1-1.1-0.9z"/>
					<path class="s8" d="m344 182c-0.4-0.3-1.1-0.3-1.4 0.1l-3.8 4.9c-0.3 0.4-0.3 1.1 0.1 1.4 0.4 0.3 1.1 0.3 1.4-0.1q1.9-2.5 3.8-4.9c0.4-0.4 0.3-1.1-0.1-1.4z"/>
				</g>
			</g>
			<g id="Clip-Path" clip-path="url(#cp21)">
				<g>
					<g>
						<path class="s2" d="m600 362.9c4.2-2.2 9.5-2.3 13.2 0.6-0.6-5.7 3.7-11.6 9.3-12.6 5.7-1.1 11.8 2.9 13.2 8.5-0.4-7.2 3.9-14.4 10.4-17.7 6.4-3.2 14.6-2.6 20.6 1.3 6.5 4.2 9.9 11.4 10.3 18.9 4.9 0.4 9.3 1.6 13.1 4.9 6.7 5.8 10.4 16.3 4.8 24.7-4.9 7.4-14.3 9-21.7 6.2-2.9 6.7-9.7 10.9-16.7 12.3-6.5 1.2-15.6 1-21.2-2.8-4.2-2.8-7.1-7.5-7.8-12.5-6.3 2-13 3.5-19.6 2.6-7.2-0.9-15.7-5.4-17.2-13.2-1.3-6.9 1.8-15.6 7.4-19.9q0.9-0.7 1.9-1.3z"/>
						<path class="s12" d="m677 376.1c-0.8-2.1-2.2-4-4.2-5-2-1-4.6-1-6.4 0.3-1.9 1.2-2.8 3.8-1.9 5.8"/>
						<path class="s12" d="m648.6 380.3c-3 2.5-7.8 2.5-10.7-0.1"/>
						<path class="s12" d="m620.5 380.4c0.5-1.6-0.1-3.4-1.1-4.6-1.1-1.3-2.7-2.1-4.3-2.4-1.4-0.4-3-0.4-4.2 0.5-1.8 1.4-1.6 4.1-1.2 6.4"/>
					</g>
					<path class="s0" d="m668.3 395.6c-1.5 3.6-4.5 6.3-8.2 7.5-0.5 0.2-0.7 0.8-0.5 1.3 0.2 0.5 0.7 0.7 1.3 0.6 4.1-1.4 7.5-4.5 9.2-8.5 0.6-1.2-1.3-2-1.8-0.9z"/>
					<path class="s0" d="m651.2 403.7q-1.4 0.3-2.9 0.5-0.4 0.1-0.7 0.4c-0.1 0.2-0.2 0.5-0.2 0.7 0.1 0.5 0.6 1 1.1 0.9q1.5-0.2 2.9-0.5 0.4-0.1 0.7-0.4c0.2-0.1 0.3-0.4 0.2-0.7 0-0.5-0.5-1-1.1-0.9z"/>
					<path class="s0" d="m643.6 348c-0.5-0.2-1 0.1-1.3 0.5-1.3 2.7-2.1 5.6-2.3 8.6 0 0.5 0.3 1 0.8 1.1 0.5 0.1 1.1-0.3 1.2-0.8 0.1-2.8 0.9-5.5 2.2-8 0.2-0.5-0.1-1.2-0.6-1.4z"/>
					<path class="s0" d="m649.5 348.4c-0.1-0.2-0.3-0.5-0.5-0.5-0.3-0.1-0.5-0.2-0.8-0.1-0.2 0.1-0.5 0.3-0.5 0.6q-0.5 1.2-0.9 2.4c-0.1 0.2-0.1 0.5 0 0.7 0.1 0.3 0.3 0.5 0.5 0.6 0.2 0.1 0.5 0.1 0.8 0 0.2-0.1 0.4-0.3 0.5-0.5q0.5-1.2 0.9-2.4c0.1-0.3 0.1-0.5 0-0.8z"/>
					<path class="s0" d="m628 356.5c-1.4-2-3.9-3.1-6.3-2.7-0.5 0.1-1 0.6-0.9 1.1 0.1 0.6 0.6 1 1.1 0.9q0.4 0 0.7-0.1 0.1 0 0.2 0 0 0 0 0 0 0 0 0 0.2 0.1 0.4 0.1 0.3 0 0.7 0.1 0 0 0 0 0.1 0 0.1 0 0.2 0.1 0.4 0.2 0.3 0.1 0.6 0.3 0.1 0 0.1 0 0 0.1 0.1 0.1 0.1 0.1 0.3 0.2 0.1 0.1 0.3 0.2 0 0.1 0.1 0.2 0 0 0 0 0.1 0.1 0.1 0.1 0.1 0 0.1 0.1 0.1 0.2 0.3 0.3c0.2 0.5 0.9 0.6 1.3 0.3 0.5-0.4 0.6-1 0.3-1.4z"/>
					<path class="s0" d="m602.3 366.6c-4.8 1.7-8.1 6.6-8 11.6 0 0.6 0.6 1 1.1 0.9 0.6-0.1 0.9-0.6 0.9-1.1-0.1-4.2 2.8-8.1 6.7-9.6 1.2-0.4 0.5-2.3-0.7-1.8z"/>
					<path class="s0" d="m691.4 383c-0.6-0.1-1 0.3-1.2 0.8q-0.5 2.1-1 4.2c-0.2 0.5 0.3 1.1 0.8 1.1 0.6 0.1 1-0.3 1.1-0.8q0.6-2.1 1.1-4.2c0.1-0.5-0.3-1-0.8-1.1z"/>
					<path class="s19" d="m676.4 382.5c-0.6-1-1.8-1.4-2.9-1.4-1.6-0.1-3.3 0.1-4.8 0.4-0.4 0-0.8 0.3-0.9 0.7-0.3 0.2-0.5 0.5-0.7 0.8q-0.2 0.3-0.2 0.7c-0.4 0.4-0.3 1.1 0.1 1.4q0.1 0.1 0.1 0.1 0.1 0.1 0.2 0.2c0.1 0.2 0.4 0.4 0.6 0.4q0.2 0 0.3 0c2.1 0.9 4.5 0.5 6.6-0.2 0.7-0.2 1.4-0.3 1.8-0.9 0.5-0.7 0.3-1.6-0.2-2.2z"/>
					<path class="s19" d="m623.3 387c-0.7-1.8-2.5-2.4-4.3-2.6-1.2-0.1-2.5-0.2-3.7 0.1q-1.2 0.3-2.3 0.8c-0.6 0.4-0.4 1.2 0 1.6 2.5 2.7 6.5 2.3 9.7 1.4 0.6-0.2 0.8-0.9 0.6-1.3z"/>
				</g>
			</g>
		</g>
	</g>
</svg>