<svg version="1.2" xmlns="http://www.w3.org/2000/svg" viewBox="0 0 750 500" width="750" height="500">
	<title>bckgrnd-3</title>
	<defs>
		<clipPath clipPathUnits="userSpaceOnUse" id="cp1">
			<path d="m0 0h750v500h-750z"/>
		</clipPath>
	</defs>
	<style>
		.s0 { fill: #f4ebd9 } 
		.s1 { fill: #e06232 } 
		.s2 { fill: #edc137 } 
	</style>
	<path id="Layer copy 4" class="s0" d="m595.99 268.39c-0.92-7.14-9.19-9.51-14.83-6.24 0.69-5.81-6.72-7.21-8.56-2.23-1.8-3.08-4.95-5.37-8.58-3.29-3.37 1.92-5.27 6.11-4.23 9.73-3.23-1.98-7.38 2.94-5.64 6.9 1.61 3.67 5.53 4.85 9.2 5.33 5.89 0.78 11.98 0.75 17.9 0.33 6.66-0.47 15.89-1.57 14.74-10.53z"/>
	<path id="Layer copy 2" class="s0" d="m483.41 19.89c-0.69-5.8 6.72-7.21 8.56-2.23 1.8-3.08 4.95-5.36 8.58-3.29 3.37 1.92 5.27 6.11 4.23 9.73 3.23-1.98 7.38 2.94 5.64 6.9-1.61 3.67-5.53 4.85-9.2 5.33-5.89 0.78-11.98 0.75-17.9 0.33-6.66-0.47-15.89-1.57-14.74-10.53 0.92-7.14 9.19-9.51 14.83-6.24z"/>
	<g id="BACKGROUND">
	</g>
	<g id="OBJECTS">
		<g>
			<g id="Clip-Path" clip-path="url(#cp1)">
				<g>
					<g>
						<path class="s1" d="m533.28 44.32c0.83 0.14 1.68 0.06 2.5-0.07 0.58-0.1 1.32-0.13 1.81-0.48q2.71 4.42 5.02 9.21c0.2 0.41 0.39 0.98 1.28-0.05 4.56-5.3 10.47-9.33 15.81-13.87q9.02-7.65 18.42-14.84c0.4-0.31 0.25-0.96-0.3-0.97-17.56-0.21-54.22 1.29-54.35 1.38 2.01 2.26 6.11 7.34 8.58 10.79q-0.05 0.06-0.05 0.15c0.11 2.65 0.44 5.3 0.7 7.94 0.02 0.26 0.36 0.78 0.58 0.81zm-0.71-8.45q0.07 0.02 0.16 0.01c0.59-0.07 27.66-6.26 40.18-10.23-5.47 2.11-10.82 4.58-16.33 6.57-7.08 2.56-14.28 4.58-21.71 5.77-0.17 0.03-0.63 0.27-0.7 0.44q-0.56 1.34-0.94 2.73c-0.19-1.77-0.38-3.54-0.66-5.29zm42.98-11.58c-14.11 3.55-28.11 7.49-42.31 10.74-2.51-3.52-5.27-6.85-8.29-9.87 8.66 0.1 17.36-0.52 26.02-0.71q12.29-0.26 24.58-0.16zm-32.21 28.16c-2.18-4.59-4.67-9.17-7.48-13.53 13.19-2.13 26.62-6.96 38.53-13.15-10.71 8.25-21.77 16.8-30.98 26.58q-0.05 0.04-0.07 0.1zm-10-8.65q0.09-0.07 0.13-0.21 0.47-2.21 1.23-4.33 1.26 1.88 2.46 3.81c-0.45 0.03-0.91 0.22-1.34 0.3-0.82 0.15-1.67 0.23-2.48 0.43z"/>
						<path class="s1" d="m442.68 84.88c4.15 1.71 8.6 1.3 12.64-0.58 4.56-2.13 7.44-5.79 11.13-9.01 2.69-2.37 6.23-3.35 9.76-3.23q-0.09 0.68-0.11 1.37c-0.14 3.99 2.37 10.81 7.54 9.73 5.48-1.15 2.86-7.82-0.34-9.99-1.63-1.1-3.67-1.74-5.8-1.96 0.57-2.72 1.94-5.2 3.85-7.2 4.7-4.9 12.51-7.33 19.2-7.47 1.53-0.03 3.05 0.08 4.52 0.39-1.19 4.2-0.93 8.94 1.7 12.36 2.82 3.65 8.27 3.2 8.84-1.88 0.6-5.44-4.36-9.96-9.17-11.32q0.58-1.66 1.49-3.15c3.8-6.16 10.86-8.35 17.74-8.22 0.23 0 0.27-0.38 0.04-0.41-6.77-0.96-14.06 1.61-18.11 7.28-0.89 1.25-1.63 2.7-2.18 4.25-10.78-2.39-26.79 3.67-29.06 15.29-3.43-0.11-6.98 0.83-9.43 2.7-3.46 2.63-5.94 6.19-9.7 8.52-4.44 2.74-9.36 3.69-14.37 2.05-0.28-0.09-0.45 0.37-0.18 0.48zm63.42-27.69c1.34 0.38 2.63 0.94 3.82 1.77 2.6 1.8 5.66 5.76 4.37 9.22-2.27 4.87-5.93 2.34-7.28-0.63q-0.62-1.16-0.95-2.42c-0.42-1.46-0.58-2.99-0.51-4.5q0.08-1.75 0.55-3.44zm-28.75 14.95q0.72 0.08 1.43 0.21c1.76 0.33 3.46 0.95 4.8 2.18q2.01 1.76 2.24 4.48c-0.23 3.91-3.74 4.63-5.5 2.98-3.88-4.2-3.28-6.96-2.97-9.85z"/>
						<path id="Layer copy 36" class="s1" d="m406.54 372.95c0.47 0.08 0.94 0.03 1.41-0.04 0.32-0.06 0.74-0.08 1.01-0.27q1.53 2.46 2.83 5.12c0.11 0.23 0.21 0.54 0.71-0.03 2.57-2.95 5.89-5.19 8.89-7.7q5.07-4.26 10.35-8.25c0.23-0.17 0.14-0.53-0.16-0.54-9.87-0.11-30.48 0.72-30.55 0.77 1.13 1.25 3.43 4.08 4.82 5.99q-0.03 0.04-0.03 0.09c0.07 1.47 0.25 2.94 0.4 4.41 0.01 0.14 0.2 0.43 0.32 0.45zm-0.4-4.7q0.04 0.02 0.09 0.01c0.33-0.04 15.55-3.48 22.59-5.68-3.08 1.17-6.08 2.54-9.18 3.65-3.98 1.42-8.03 2.54-12.21 3.2-0.09 0.02-0.35 0.15-0.39 0.24q-0.31 0.75-0.53 1.52-0.14-1.47-0.37-2.94zm24.16-6.43c-7.93 1.97-15.8 4.16-23.78 5.97-1.41-1.96-2.96-3.81-4.66-5.49 4.87 0.06 9.76-0.29 14.62-0.39q6.91-0.14 13.82-0.09zm-18.1 15.64c-1.23-2.55-2.63-5.09-4.2-7.51 7.41-1.19 14.96-3.87 21.65-7.31-6.02 4.58-12.24 9.33-17.42 14.77q-0.02 0.02-0.03 0.05zm-5.63-4.8q0.06-0.04 0.08-0.12 0.26-1.23 0.69-2.4 0.71 1.04 1.38 2.11c-0.25 0.02-0.51 0.12-0.75 0.17-0.46 0.09-0.94 0.13-1.4 0.24z"/>
						<path id="Layer copy 37" class="s1" d="m355.62 395.48c2.34 0.95 4.83 0.72 7.11-0.32 2.56-1.18 4.18-3.22 6.25-5.01 1.52-1.31 3.5-1.86 5.49-1.79q-0.05 0.37-0.07 0.76c-0.07 2.22 1.34 6.01 4.24 5.4 3.08-0.63 1.61-4.34-0.19-5.54-0.91-0.62-2.06-0.97-3.26-1.1 0.32-1.5 1.09-2.88 2.17-3.99 2.64-2.72 7.03-4.08 10.78-4.15q1.3-0.04 2.55 0.21c-0.67 2.34-0.53 4.97 0.96 6.87 1.58 2.03 4.64 1.78 4.96-1.05 0.34-3.02-2.45-5.53-5.15-6.28q0.32-0.93 0.84-1.75c2.13-3.43 6.1-4.64 9.96-4.57 0.14 0 0.16-0.21 0.03-0.23-3.81-0.53-7.9 0.89-10.18 4.04q-0.76 1.06-1.22 2.37c-6.06-1.33-15.06 2.04-16.34 8.49-1.93-0.06-3.92 0.46-5.3 1.5-1.94 1.46-3.34 3.44-5.45 4.73-2.5 1.53-5.26 2.05-8.08 1.15-0.15-0.06-0.25 0.2-0.1 0.26zm35.65-15.38q1.13 0.3 2.14 0.98c1.47 1 3.18 3.2 2.46 5.12-1.28 2.71-3.34 1.31-4.09-0.34q-0.35-0.65-0.54-1.35-0.35-1.23-0.28-2.5 0.04-0.97 0.31-1.91zm-16.17 8.3q0.41 0.04 0.81 0.12c0.99 0.18 1.95 0.53 2.7 1.21q1.13 0.98 1.26 2.49c-0.13 2.17-2.1 2.57-3.09 1.65-2.18-2.33-1.85-3.86-1.68-5.47z"/>
					</g>
					<g>
						<path class="s2" d="m285.23 35.75c-6.72-12.43-21.34-19.6-35.28-16.59-12.85 2.77-22.47 13.16-24.29 26.15-1.89 13.51 4.74 29.12 17.52 34.87q0.02 0.01 0.04 0.03c12.53 6.02 27.57 3.83 37.2-6.44 9.61-10.24 11.48-25.71 4.81-38.02zm-41.56 43.38c-11.56-5.99-20.12-23.9-15.29-38.85 5.24-16.24 23.75-24.07 39.38-17.88 15.65 6.2 24.07 24.6 17.8 40.37-6.58 16.55-26.17 24.5-41.89 16.36z"/>
						<path class="s2" d="m253.72 0.56c-0.08-0.85-1.38-0.82-1.49 0.01-0.61 4.91 0.26 9.95 0.91 14.8 0.02 0.12 0.22 0.12 0.22-0.01 0.14-4.9 0.82-9.9 0.36-14.8z"/>
						<path class="s2" d="m238.09 19.37c-0.98-1.3-1.87-2.67-2.84-3.98q-0.42-0.53-0.85-1.05-0.22-0.27-0.43-0.54-0.04-0.06-0.09-0.11-0.03-0.11-0.12-0.21c-0.18-0.18-0.32-0.27-0.57-0.33-0.23-0.06-0.53 0.09-0.67 0.28-0.67 0.96 0.8 2.01 1.36 2.62 1.2 1.28 2.32 2.88 3.94 3.68 0.22 0.1 0.41-0.18 0.27-0.36z"/>
						<path class="s2" d="m297.68 20.25c0.68-0.53-0.06-1.61-0.82-1.24-4.44 2.17-8.19 5.64-11.9 8.83-0.09 0.08 0.02 0.25 0.13 0.19 4.18-2.56 8.74-4.72 12.59-7.78z"/>
						<path class="s2" d="m273.39 17.42c0.56-1.53 1.22-3.02 1.79-4.55q0.22-0.64 0.41-1.29 0.11-0.33 0.22-0.66 0.03-0.06 0.05-0.13 0.07-0.09 0.1-0.21c0.06-0.25 0.06-0.42-0.03-0.66-0.08-0.22-0.36-0.4-0.59-0.41-1.17-0.04-1.25 1.77-1.45 2.57-0.43 1.71-1.16 3.52-0.94 5.31 0.03 0.23 0.37 0.24 0.44 0.03z"/>
						<path class="s2" d="m303.49 67.16c0.8 0.29 1.33-0.9 0.62-1.35-4.18-2.64-9.1-4.01-13.77-5.49-0.11-0.03-0.2 0.14-0.09 0.2 4.37 2.22 8.61 4.97 13.24 6.64z"/>
						<path class="s2" d="m293.14 45c1.6-0.33 3.21-0.55 4.81-0.87q0.66-0.15 1.32-0.32 0.34-0.08 0.67-0.16 0.07-0.01 0.14-0.03 0.11 0.02 0.23-0.02c0.25-0.09 0.39-0.17 0.55-0.37 0.15-0.19 0.15-0.52 0.03-0.73-0.58-1.01-2.16-0.13-2.95 0.12-1.67 0.53-3.6 0.86-5 1.99-0.19 0.14-0.01 0.44 0.2 0.39z"/>
						<path class="s2" d="m266.93 98.53c0.19 0.83 1.48 0.62 1.47-0.22-0.07-4.94-1.61-9.81-2.92-14.53-0.03-0.11-0.23-0.09-0.21 0.03 0.52 4.88 0.53 9.93 1.66 14.72z"/>
						<path class="s2" d="m279.85 77.76c1.14 1.16 2.21 2.39 3.35 3.56q0.49 0.47 0.99 0.93 0.25 0.24 0.5 0.47 0.05 0.06 0.1 0.1 0.05 0.11 0.15 0.19c0.2 0.16 0.35 0.23 0.61 0.25 0.23 0.02 0.51-0.16 0.62-0.37 0.53-1.04-1.06-1.88-1.7-2.4-1.37-1.12-2.69-2.55-4.4-3.11-0.23-0.08-0.38 0.23-0.22 0.38z"/>
						<path class="s2" d="m216.37 76.69c-0.71 0.48-0.05 1.61 0.73 1.3 4.59-1.85 8.58-5.04 12.51-7.96 0.09-0.07 0-0.25-0.11-0.19-4.36 2.25-9.06 4.08-13.13 6.85z"/>
						<path class="s2" d="m240.39 81.26c-0.66 1.49-1.43 2.93-2.1 4.41q-0.27 0.63-0.51 1.26-0.14 0.32-0.27 0.64-0.03 0.06-0.05 0.13-0.08 0.08-0.12 0.2c-0.07 0.25-0.09 0.41-0.02 0.66 0.07 0.23 0.34 0.42 0.57 0.45 1.16 0.12 1.37-1.67 1.63-2.46 0.55-1.67 1.41-3.43 1.32-5.22-0.01-0.24-0.36-0.27-0.45-0.07z"/>
						<path class="s2" d="m212.32 28.69c-0.79-0.33-1.37 0.84-0.69 1.32 4.05 2.84 8.91 4.44 13.5 6.13 0.11 0.05 0.21-0.13 0.1-0.19-4.27-2.42-8.37-5.37-12.91-7.26z"/>
						<path class="s2" d="m221.6 51.31c-1.61 0.26-3.23 0.4-4.84 0.65q-0.67 0.11-1.34 0.26-0.34 0.06-0.67 0.12-0.08 0.01-0.14 0.03-0.12-0.03-0.24 0.01c-0.24 0.07-0.39 0.15-0.56 0.34-0.16 0.18-0.17 0.51-0.07 0.72 0.54 1.04 2.15 0.24 2.95 0.03 1.7-0.46 3.64-0.7 5.1-1.75 0.19-0.14 0.03-0.44-0.19-0.41z"/>
						<path class="s2" d="m239.44 48.71c-1.67 0.57-1.28 2.2-0.88 2.72 0.91 1.16 2.97 0.7 3.22-0.77 0.23-1.33-1.2-2.43-2.34-1.95z"/>
						<path class="s2" d="m265.97 42.67c-0.3-0.8-1.68-0.44-1.47 0.41 0.5 1.99 1.35 3.97 1.58 6.02 0.44 3.93-2.12 7.53-5.97 8.41-6.45 1.47-10.21-3.91-13.2-8.67-0.15-0.24-0.51 0-0.42 0.25 2.25 6.13 7.55 12.01 14.71 9.84 7.74-2.35 7.06-10.17 4.77-16.26z"/>
						<path class="s2" d="m236.11 42.61c-1.53-0.06-2.47 1.68-2.35 3.04 0.02 0.29 0.49 0.29 0.52 0 0.1-1.28 1-1.86 1.98-2.5 0.22-0.13 0.11-0.53-0.15-0.54z"/>
						<path class="s2" d="m269.88 34.05c1.48-0.95 2.52 0.36 2.67 1.01 0.34 1.43-1.3 2.75-2.61 2.03-1.19-0.65-1.15-2.45-0.06-3.04z"/>
						<path class="s2" d="m267.18 27.65c0.91-1.24 2.85-0.89 3.84 0.05 0.22 0.2-0.08 0.57-0.32 0.4-1.07-0.71-2.08-0.38-3.19 0-0.24 0.08-0.49-0.25-0.33-0.45z"/>
						<path id="Layer copy 20" class="s2" d="m376.93 238.15c-3.78-7.02-11.99-11.06-19.82-9.37-7.23 1.57-12.63 7.43-13.65 14.77-1.07 7.62 2.66 16.43 9.84 19.67q0.01 0.01 0.02 0.02c7.04 3.4 15.49 2.16 20.9-3.63 5.4-5.79 6.45-14.51 2.71-21.46zm-23.35 24.48c-6.5-3.38-11.31-13.49-8.6-21.92 2.95-9.17 13.35-13.59 22.13-10.1 8.79 3.5 13.52 13.89 10 22.79-3.69 9.34-14.7 13.83-23.53 9.23z"/>
						<path id="Layer copy 21" class="s2" d="m359.22 218.29c-0.04-0.48-0.78-0.46-0.83 0.01-0.35 2.76 0.14 5.61 0.51 8.34 0.01 0.07 0.12 0.08 0.12 0 0.08-2.76 0.46-5.58 0.2-8.35z"/>
						<path id="Layer copy 22" class="s2" d="m350.44 228.9c-0.55-0.73-1.05-1.5-1.6-2.24q-0.23-0.3-0.47-0.6-0.12-0.15-0.25-0.3-0.02-0.03-0.04-0.06-0.02-0.07-0.07-0.12c-0.1-0.1-0.18-0.15-0.32-0.19-0.13-0.03-0.3 0.05-0.38 0.16-0.37 0.54 0.45 1.14 0.77 1.48 0.67 0.73 1.3 1.63 2.21 2.08 0.12 0.05 0.23-0.11 0.15-0.21z"/>
						<path id="Layer copy 23" class="s2" d="m383.92 229.4c0.38-0.3-0.04-0.91-0.46-0.7-2.5 1.22-4.6 3.18-6.69 4.99-0.05 0.04 0.01 0.14 0.07 0.1 2.35-1.44 4.92-2.66 7.08-4.39z"/>
						<path id="Layer copy 24" class="s2" d="m370.28 227.8c0.31-0.86 0.68-1.7 1-2.57q0.12-0.36 0.23-0.72 0.06-0.19 0.12-0.37 0.02-0.04 0.03-0.08 0.04-0.05 0.06-0.12c0.03-0.14 0.03-0.23-0.02-0.37-0.04-0.13-0.2-0.22-0.33-0.23-0.66-0.02-0.71 1-0.82 1.45-0.24 0.96-0.65 1.99-0.52 2.99 0.01 0.14 0.2 0.14 0.25 0.02z"/>
						<path id="Layer copy 25" class="s2" d="m387.18 255.88c0.45 0.16 0.75-0.51 0.35-0.77-2.34-1.49-5.11-2.26-7.73-3.09-0.07-0.02-0.12 0.08-0.05 0.11 2.45 1.25 4.83 2.8 7.43 3.75z"/>
						<path id="Layer copy 26" class="s2" d="m381.37 243.37c0.9-0.19 1.8-0.31 2.7-0.49q0.37-0.09 0.74-0.18 0.19-0.05 0.38-0.09 0.04-0.01 0.08-0.02 0.06 0.01 0.13-0.01c0.13-0.05 0.21-0.1 0.3-0.21 0.09-0.11 0.09-0.3 0.02-0.41-0.32-0.57-1.21-0.08-1.65 0.06-0.95 0.31-2.03 0.49-2.82 1.13-0.1 0.08 0 0.25 0.12 0.22z"/>
						<path id="Layer copy 27" class="s2" d="m357.65 273.58c0.11 0.47 0.84 0.35 0.83-0.13-0.04-2.78-0.9-5.53-1.64-8.19-0.02-0.07-0.13-0.06-0.12 0.01 0.3 2.75 0.3 5.6 0.93 8.31z"/>
						<path id="Layer copy 28" class="s2" d="m373.9 261.86c0.64 0.65 1.24 1.35 1.89 2q0.27 0.27 0.55 0.53 0.14 0.13 0.28 0.27 0.03 0.03 0.06 0.05 0.02 0.06 0.08 0.11c0.11 0.09 0.2 0.13 0.34 0.14 0.14 0.01 0.29-0.09 0.35-0.21 0.3-0.58-0.59-1.06-0.96-1.36-0.76-0.62-1.51-1.43-2.47-1.75-0.12-0.04-0.21 0.13-0.12 0.22z"/>
						<path id="Layer copy 29" class="s2" d="m338.24 261.25c-0.4 0.27-0.03 0.91 0.41 0.73 2.58-1.03 4.82-2.84 7.02-4.49 0.06-0.04 0.01-0.14-0.06-0.1-2.44 1.27-5.09 2.3-7.37 3.86z"/>
						<path id="Layer copy 30" class="s2" d="m351.74 263.83c-0.38 0.84-0.81 1.66-1.19 2.49q-0.15 0.36-0.28 0.71-0.08 0.18-0.15 0.36-0.02 0.04-0.03 0.08-0.05 0.04-0.07 0.11c-0.04 0.14-0.05 0.23-0.01 0.37 0.04 0.13 0.19 0.24 0.32 0.26 0.65 0.07 0.77-0.95 0.92-1.39 0.3-0.94 0.78-1.94 0.73-2.95 0-0.13-0.19-0.15-0.24-0.04z"/>
						<path id="Layer copy 31" class="s2" d="m351.2 245.46c-0.94 0.33-0.72 1.25-0.49 1.54 0.51 0.65 1.66 0.39 1.81-0.44 0.12-0.75-0.68-1.37-1.32-1.1z"/>
						<path id="Layer copy 32" class="s2" d="m366.1 242.05c-0.16-0.45-0.94-0.25-0.82 0.23 0.28 1.13 0.76 2.25 0.89 3.4 0.24 2.22-1.2 4.25-3.36 4.75-3.62 0.83-5.73-2.21-7.41-4.89-0.09-0.14-0.29 0-0.24 0.14 1.26 3.46 4.24 6.78 8.26 5.55 4.36-1.33 3.97-5.74 2.68-9.18z"/>
						<path id="Layer copy 33" class="s2" d="m349.33 242.02c-0.86-0.03-1.39 0.95-1.32 1.72 0.01 0.16 0.28 0.16 0.29-0.01 0.06-0.72 0.56-1.04 1.11-1.4 0.12-0.08 0.07-0.3-0.08-0.31z"/>
						<path id="Layer copy 34" class="s2" d="m368.3 237.19c0.83-0.54 1.41 0.2 1.5 0.57 0.19 0.8-0.73 1.55-1.47 1.14-0.66-0.36-0.64-1.38-0.03-1.71z"/>
						<path id="Layer copy 35" class="s2" d="m366.78 233.57c0.51-0.7 1.6-0.5 2.16 0.03 0.12 0.12-0.04 0.32-0.18 0.23-0.6-0.4-1.17-0.21-1.79 0-0.14 0.05-0.27-0.14-0.19-0.26z"/>
					</g>
					<path class="s0" d="m220.19 70.03c0.66-2.27-0.53-4.89-2.64-6.1-2.28-1.29-4.25 0.14-5.38 2.07-1.15-3.12-5.79-2.24-5.36 1.4-3.53-2.05-8.71-0.57-9.28 3.9-0.73 5.61 5.06 6.3 9.23 6.6 3.7 0.26 7.52 0.28 11.21-0.21 2.29-0.3 4.75-1.04 5.76-3.34 1.09-2.48-1.51-5.56-3.54-4.32z"/>
					<path class="s0" d="m257.09 224.31c0.66-2.27-0.53-4.89-2.64-6.1-2.28-1.29-4.25 0.14-5.38 2.07-1.15-3.12-5.79-2.24-5.36 1.4-3.53-2.06-8.71-0.57-9.28 3.9-0.73 5.61 5.06 6.3 9.23 6.6 3.71 0.26 7.52 0.28 11.21-0.21 2.29-0.3 4.75-1.04 5.76-3.34 1.09-2.48-1.51-5.56-3.54-4.32z"/>
					<path class="s0" d="m547.97 425.96c0.66-2.26-0.53-4.89-2.64-6.09-2.28-1.3-4.25 0.13-5.38 2.06-1.15-3.12-5.79-2.24-5.36 1.4-3.53-2.05-8.71-0.57-9.28 3.9-0.73 5.61 5.06 6.3 9.23 6.6 3.7 0.27 7.52 0.28 11.21-0.2 2.29-0.31 4.75-1.04 5.76-3.34 1.09-2.49-1.51-5.57-3.54-4.33z"/>
					<path id="Layer copy 41" class="s0" d="m363.97 293.96c0.66-2.26-0.53-4.89-2.64-6.09-2.28-1.3-4.25 0.13-5.38 2.06-1.15-3.12-5.79-2.24-5.36 1.4-3.53-2.05-8.71-0.57-9.28 3.9-0.73 5.61 5.06 6.3 9.23 6.6 3.7 0.27 7.52 0.28 11.21-0.2 2.29-0.31 4.75-1.04 5.76-3.34 1.09-2.49-1.51-5.57-3.54-4.33z"/>
					<path class="s0" d="m557.62 231.63c0.65-2.26-0.54-4.89-2.65-6.09-2.28-1.3-4.25 0.13-5.37 2.06-1.16-3.12-5.8-2.24-5.36 1.4-3.54-2.05-8.72-0.57-9.29 3.9-0.73 5.61 5.06 6.3 9.23 6.6 3.71 0.26 7.52 0.28 11.21-0.21 2.29-0.3 4.75-1.04 5.76-3.34 1.09-2.48-1.51-5.56-3.53-4.32z"/>
					<path id="Layer copy 14" class="s0" d="m595.99 268.39c-0.92-7.14-9.19-9.51-14.83-6.24 0.69-5.81-6.72-7.21-8.56-2.23-1.8-3.08-4.95-5.37-8.58-3.29-3.37 1.92-5.27 6.11-4.23 9.73-3.23-1.98-7.38 2.94-5.64 6.9 1.61 3.67 5.53 4.85 9.2 5.33 5.89 0.78 11.98 0.75 17.9 0.33 6.66-0.47 15.89-1.57 14.74-10.53z"/>
					<path id="Layer copy 15" class="s0" d="m557.62 231.63c0.65-2.26-0.54-4.89-2.65-6.1-2.28-1.29-4.25 0.14-5.37 2.07-1.16-3.12-5.8-2.24-5.36 1.4-3.54-2.05-8.72-0.57-9.29 3.9-0.73 5.61 5.06 6.3 9.23 6.6 3.71 0.26 7.52 0.28 11.21-0.21 2.29-0.3 4.75-1.04 5.76-3.34 1.09-2.48-1.51-5.56-3.53-4.32z"/>
					<path id="Layer copy 16" class="s0" d="m249.99 410.39c-0.92-7.14-9.19-9.51-14.83-6.24 0.69-5.81-6.72-7.21-8.56-2.23-1.8-3.08-4.95-5.37-8.58-3.29-3.37 1.92-5.27 6.11-4.23 9.73-3.23-1.98-7.38 2.94-5.64 6.9 1.61 3.67 5.53 4.85 9.2 5.33 5.89 0.78 11.98 0.75 17.9 0.33 6.66-0.47 15.89-1.57 14.74-10.53z"/>
					<path id="Layer copy 17" class="s0" d="m211.62 373.63c0.65-2.26-0.54-4.89-2.65-6.1-2.28-1.29-4.25 0.14-5.37 2.07-1.16-3.12-5.8-2.24-5.36 1.4-3.54-2.05-8.72-0.57-9.29 3.9-0.73 5.61 5.06 6.3 9.23 6.6 3.71 0.26 7.52 0.28 11.21-0.21 2.29-0.3 4.75-1.04 5.76-3.34 1.09-2.48-1.51-5.56-3.53-4.32z"/>
					<path id="Layer copy 18" class="s0" d="m249.99 410.39c-0.92-7.14-9.19-9.51-14.83-6.24 0.69-5.81-6.72-7.21-8.56-2.23-1.8-3.08-4.95-5.37-8.58-3.29-3.37 1.92-5.27 6.11-4.23 9.73-3.23-1.98-7.38 2.94-5.64 6.9 1.61 3.67 5.53 4.85 9.2 5.33 5.89 0.78 11.98 0.75 17.9 0.33 6.66-0.47 15.89-1.57 14.74-10.53z"/>
					<path id="Layer copy 19" class="s0" d="m211.62 373.63c0.65-2.26-0.54-4.89-2.65-6.1-2.28-1.29-4.25 0.14-5.37 2.07-1.16-3.12-5.8-2.24-5.36 1.4-3.54-2.05-8.72-0.57-9.29 3.9-0.73 5.61 5.06 6.3 9.23 6.6 3.71 0.26 7.52 0.28 11.21-0.21 2.29-0.3 4.75-1.04 5.76-3.34 1.09-2.48-1.51-5.56-3.53-4.32z"/>
					<path class="s0" d="m563.16 73.58c-0.58-4.47-5.76-5.95-9.29-3.9 0.43-3.64-4.21-4.52-5.36-1.4-1.12-1.93-3.1-3.36-5.37-2.07-2.11 1.21-3.3 3.83-2.65 6.1-2.03-1.24-4.62 1.84-3.53 4.32 1.01 2.3 3.46 3.04 5.76 3.34 3.69 0.49 7.5 0.47 11.21 0.21 4.17-0.3 9.95-0.99 9.23-6.6z"/>
					<path class="s0" d="m586.16 198.24c-0.58-4.47-5.76-5.95-9.29-3.9 0.43-3.64-4.21-4.52-5.36-1.4-1.13-1.93-3.1-3.36-5.38-2.07-2.11 1.21-3.3 3.83-2.64 6.1-2.03-1.24-4.62 1.84-3.54 4.32 1.01 2.3 3.47 3.04 5.76 3.34 3.7 0.49 7.51 0.47 11.21 0.21 4.18-0.3 9.96-0.99 9.24-6.6z"/>
					<path id="Layer copy 39" class="s0" d="m430.16 243.24c-0.58-4.47-5.76-5.95-9.29-3.9 0.43-3.64-4.21-4.52-5.36-1.4-1.13-1.93-3.1-3.36-5.38-2.07-2.11 1.21-3.3 3.83-2.64 6.1-2.03-1.24-4.62 1.84-3.54 4.32 1.01 2.3 3.47 3.04 5.76 3.34 3.7 0.49 7.51 0.47 11.21 0.21 4.18-0.3 9.96-0.99 9.24-6.6z"/>
					<path id="Layer copy 5" class="s0" d="m223.99 205.39c-0.92-7.14-9.19-9.51-14.83-6.24 0.69-5.81-6.72-7.21-8.56-2.23-1.8-3.08-4.95-5.37-8.58-3.29-3.37 1.92-5.27 6.11-4.23 9.73-3.23-1.98-7.38 2.94-5.64 6.9 1.61 3.67 5.53 4.85 9.2 5.33 5.89 0.78 11.98 0.75 17.9 0.33 6.66-0.47 15.89-1.57 14.74-10.53z"/>
					<path id="Layer copy 6" class="s0" d="m194.62 159.63c0.65-2.26-0.54-4.89-2.65-6.09-2.28-1.3-4.25 0.13-5.37 2.06-1.16-3.12-5.8-2.24-5.36 1.4-3.54-2.05-8.72-0.57-9.29 3.9-0.73 5.61 5.06 6.3 9.23 6.6 3.71 0.26 7.52 0.28 11.21-0.21 2.29-0.3 4.75-1.04 5.76-3.34 1.09-2.48-1.51-5.56-3.53-4.32z"/>
					<path id="Layer copy 7" class="s0" d="m243.16 124.24c-0.58-4.47-5.76-5.95-9.29-3.9 0.43-3.64-4.21-4.52-5.36-1.4-1.13-1.93-3.1-3.36-5.38-2.07-2.11 1.21-3.3 3.83-2.64 6.1-2.03-1.24-4.62 1.84-3.54 4.32 1.01 2.3 3.47 3.04 5.76 3.34 3.7 0.49 7.51 0.47 11.21 0.21 4.18-0.3 9.96-0.99 9.24-6.6z"/>
					<path class="s0" d="m365.99 30.62c0.43-3.63-4.21-4.51-5.36-1.4-1.12-1.92-3.1-3.36-5.37-2.06-2.11 1.21-3.3 3.83-2.65 6.1-2.02-1.24-4.62 1.84-3.53 4.32 1.01 2.3 3.46 3.04 5.76 3.34 3.69 0.49 7.5 0.47 11.21 0.2 4.17-0.29 9.95-0.98 9.23-6.59-0.58-4.47-5.76-5.96-9.29-3.91z"/>
					<path class="s0" d="m203.71 22.73c0.69-5.81-6.72-7.21-8.55-2.24-1.8-3.08-4.95-5.36-8.59-3.29-3.37 1.92-5.27 6.12-4.22 9.73-3.23-1.98-7.38 2.94-5.64 6.9 1.61 3.68 5.53 4.85 9.19 5.34 5.9 0.77 11.98 0.75 17.9 0.33 6.67-0.48 15.9-1.58 14.74-10.54-0.92-7.14-9.19-9.51-14.83-6.23z"/>
					<path class="s0" d="m217.14 261.46c0.69-5.81-6.72-7.21-8.55-2.23-1.8-3.08-4.95-5.37-8.59-3.29-3.37 1.92-5.27 6.11-4.22 9.73-3.24-1.98-7.38 2.94-5.64 6.9 1.61 3.67 5.53 4.85 9.19 5.33 5.9 0.78 11.98 0.75 17.9 0.33 6.66-0.47 15.9-1.57 14.74-10.53-0.92-7.14-9.19-9.51-14.83-6.24z"/>
					<path class="s0" d="m465.41 434.89c-0.69-5.8 6.72-7.21 8.56-2.23 1.8-3.08 4.95-5.36 8.58-3.29 3.37 1.92 5.27 6.11 4.23 9.73 3.23-1.98 7.38 2.94 5.64 6.9-1.61 3.67-5.53 4.85-9.2 5.33-5.89 0.78-11.98 0.75-17.9 0.33-6.66-0.47-15.89-1.57-14.74-10.53 0.92-7.14 9.19-9.51 14.83-6.24z"/>
					<path id="Layer copy 43" class="s0" d="m402.41 393.89c-0.69-5.8 6.72-7.21 8.56-2.23 1.8-3.08 4.95-5.36 8.58-3.29 3.37 1.92 5.27 6.11 4.23 9.73 3.23-1.98 7.38 2.94 5.64 6.9-1.61 3.67-5.53 4.85-9.2 5.33-5.89 0.78-11.98 0.75-17.9 0.33-6.66-0.47-15.89-1.57-14.74-10.53 0.92-7.14 9.19-9.51 14.83-6.24z"/>
					<path id="Layer copy" class="s0" d="m369.41 457.89c-0.69-5.8 6.72-7.21 8.56-2.23 1.8-3.08 4.95-5.36 8.58-3.29 3.37 1.92 5.27 6.11 4.23 9.73 3.23-1.98 7.38 2.94 5.64 6.9-1.61 3.67-5.53 4.85-9.2 5.33-5.89 0.78-11.98 0.75-17.9 0.33-6.66-0.47-15.89-1.57-14.74-10.53 0.92-7.14 9.19-9.51 14.83-6.24z"/>
					<path class="s0" d="m436.12 29.52c0.69-5.81-6.72-7.21-8.56-2.23-1.8-3.08-4.95-5.37-8.58-3.29-3.37 1.92-5.27 6.11-4.23 9.73-3.23-1.98-7.38 2.94-5.64 6.9 1.61 3.67 5.53 4.85 9.2 5.33 5.89 0.78 11.98 0.75 17.9 0.33 6.66-0.47 15.89-1.57 14.74-10.53-0.92-7.14-9.19-9.51-14.83-6.24z"/>
					<path id="Layer copy 38" class="s0" d="m387.12 157.52c0.69-5.81-6.72-7.21-8.56-2.23-1.8-3.08-4.95-5.37-8.58-3.29-3.37 1.92-5.27 6.11-4.23 9.73-3.23-1.98-7.38 2.94-5.64 6.9 1.61 3.67 5.53 4.85 9.2 5.33 5.89 0.78 11.98 0.75 17.9 0.33 6.66-0.47 15.89-1.57 14.74-10.53-0.92-7.14-9.19-9.51-14.83-6.24z"/>
					<path class="s0" d="m210.99 310.39c-0.92-7.14-9.19-9.51-14.83-6.24 0.69-5.81-6.72-7.21-8.56-2.23-1.8-3.08-4.95-5.37-8.58-3.29-3.37 1.92-5.27 6.11-4.23 9.73-3.23-1.98-7.38 2.94-5.64 6.9 1.61 3.67 5.53 4.85 9.2 5.33 5.89 0.78 11.98 0.75 17.9 0.33 6.66-0.47 15.89-1.57 14.74-10.53z"/>
					<path id="Layer copy 44" class="s2" d="m285.23 35.75c-6.72-12.43-21.34-19.6-35.28-16.59-12.85 2.77-22.47 13.16-24.29 26.15-1.89 13.51 4.74 29.12 17.52 34.87q0.02 0.01 0.04 0.03c12.53 6.02 27.57 3.83 37.2-6.44 9.61-10.24 11.48-25.71 4.81-38.02zm-41.56 43.38c-11.56-5.99-20.12-23.9-15.29-38.85 5.24-16.24 23.75-24.07 39.38-17.88 15.65 6.2 24.07 24.6 17.8 40.37-6.58 16.55-26.17 24.5-41.89 16.36z"/>
					<path id="Layer copy 45" class="s2" d="m253.72 0.56c-0.08-0.85-1.38-0.82-1.49 0.01-0.61 4.91 0.26 9.95 0.91 14.8 0.02 0.12 0.22 0.12 0.22-0.01 0.14-4.9 0.82-9.9 0.36-14.8z"/>
					<path id="Layer copy 46" class="s2" d="m238.09 19.37c-0.98-1.3-1.87-2.67-2.84-3.98q-0.42-0.53-0.85-1.05-0.22-0.27-0.43-0.54-0.04-0.06-0.09-0.11-0.03-0.11-0.12-0.21c-0.18-0.18-0.32-0.27-0.57-0.33-0.23-0.06-0.53 0.09-0.67 0.28-0.67 0.96 0.8 2.01 1.36 2.62 1.2 1.28 2.32 2.88 3.94 3.68 0.22 0.1 0.41-0.18 0.27-0.36z"/>
					<path id="Layer copy 47" class="s2" d="m297.68 20.25c0.68-0.53-0.06-1.61-0.82-1.24-4.44 2.17-8.19 5.64-11.9 8.83-0.09 0.08 0.02 0.25 0.13 0.19 4.18-2.56 8.74-4.72 12.59-7.78z"/>
					<path id="Layer copy 48" class="s2" d="m273.39 17.42c0.56-1.53 1.22-3.02 1.79-4.55q0.22-0.64 0.41-1.29 0.11-0.33 0.22-0.66 0.03-0.06 0.05-0.13 0.07-0.09 0.1-0.21c0.06-0.25 0.06-0.42-0.03-0.66-0.08-0.22-0.36-0.4-0.59-0.41-1.17-0.04-1.25 1.77-1.45 2.57-0.43 1.71-1.16 3.52-0.94 5.31 0.03 0.23 0.37 0.24 0.44 0.03z"/>
					<path id="Layer copy 49" class="s2" d="m266.93 98.53c0.19 0.83 1.48 0.62 1.47-0.22-0.07-4.94-1.61-9.81-2.92-14.53-0.03-0.11-0.23-0.09-0.21 0.03 0.52 4.88 0.53 9.93 1.66 14.72z"/>
					<path id="Layer copy 50" class="s2" d="m279.85 77.76c1.14 1.16 2.21 2.39 3.35 3.56q0.49 0.47 0.99 0.93 0.25 0.24 0.5 0.47 0.05 0.06 0.1 0.1 0.05 0.11 0.15 0.19c0.2 0.16 0.35 0.23 0.61 0.25 0.23 0.02 0.51-0.16 0.62-0.37 0.53-1.04-1.06-1.88-1.7-2.4-1.37-1.12-2.69-2.55-4.4-3.11-0.23-0.08-0.38 0.23-0.22 0.38z"/>
					<path id="Layer copy 51" class="s2" d="m216.37 76.69c-0.71 0.48-0.05 1.61 0.73 1.3 4.59-1.85 8.58-5.04 12.51-7.96 0.09-0.07 0-0.25-0.11-0.19-4.36 2.25-9.06 4.08-13.13 6.85z"/>
					<path id="Layer copy 52" class="s2" d="m240.39 81.26c-0.66 1.49-1.43 2.93-2.1 4.41q-0.27 0.63-0.51 1.26-0.14 0.32-0.27 0.64-0.03 0.06-0.05 0.13-0.08 0.08-0.12 0.2c-0.07 0.25-0.09 0.41-0.02 0.66 0.07 0.23 0.34 0.42 0.57 0.45 1.16 0.12 1.37-1.67 1.63-2.46 0.55-1.67 1.41-3.43 1.32-5.22-0.01-0.24-0.36-0.27-0.45-0.07z"/>
					<path id="Layer copy 53" class="s2" d="m212.32 28.69c-0.79-0.33-1.37 0.84-0.69 1.32 4.05 2.84 8.91 4.44 13.5 6.13 0.11 0.05 0.21-0.13 0.1-0.19-4.27-2.42-8.37-5.37-12.91-7.26z"/>
					<path id="Layer copy 54" class="s2" d="m221.6 51.31c-1.61 0.26-3.23 0.4-4.84 0.65q-0.67 0.11-1.34 0.26-0.34 0.06-0.67 0.12-0.08 0.01-0.14 0.03-0.12-0.03-0.24 0.01c-0.24 0.07-0.39 0.15-0.56 0.34-0.16 0.18-0.17 0.51-0.07 0.72 0.54 1.04 2.15 0.24 2.95 0.03 1.7-0.46 3.64-0.7 5.1-1.75 0.19-0.14 0.03-0.44-0.19-0.41z"/>
					<path id="Layer copy 55" class="s2" d="m239.44 48.71c-1.67 0.57-1.28 2.2-0.88 2.72 0.91 1.16 2.97 0.7 3.22-0.77 0.23-1.33-1.2-2.43-2.34-1.95z"/>
					<path id="Layer copy 56" class="s2" d="m265.97 42.67c-0.3-0.8-1.68-0.44-1.47 0.41 0.5 1.99 1.35 3.97 1.58 6.02 0.44 3.93-2.12 7.53-5.97 8.41-6.45 1.47-10.21-3.91-13.2-8.67-0.15-0.24-0.51 0-0.42 0.25 2.25 6.13 7.55 12.01 14.71 9.84 7.74-2.35 7.06-10.17 4.77-16.26z"/>
					<path id="Layer copy 57" class="s2" d="m236.11 42.61c-1.53-0.06-2.47 1.68-2.35 3.04 0.02 0.29 0.49 0.29 0.52 0 0.1-1.28 1-1.86 1.98-2.5 0.22-0.13 0.11-0.53-0.15-0.54z"/>
					<path id="Layer copy 58" class="s2" d="m269.88 34.05c1.48-0.95 2.52 0.36 2.67 1.01 0.34 1.43-1.3 2.75-2.61 2.03-1.19-0.65-1.15-2.45-0.06-3.04z"/>
					<path id="Layer copy 59" class="s2" d="m267.18 27.65c0.91-1.24 2.85-0.89 3.84 0.05 0.22 0.2-0.08 0.57-0.32 0.4-1.07-0.71-2.08-0.38-3.19 0-0.24 0.08-0.49-0.25-0.33-0.45z"/>
					<path id="Layer copy 60" class="s0" d="m220.19 70.03c0.66-2.27-0.53-4.89-2.64-6.1-2.28-1.29-4.25 0.14-5.38 2.07-1.15-3.12-5.79-2.24-5.36 1.4-3.53-2.05-8.71-0.57-9.28 3.9-0.73 5.61 5.06 6.3 9.23 6.6 3.7 0.26 7.52 0.28 11.21-0.21 2.29-0.3 4.75-1.04 5.76-3.34 1.09-2.48-1.51-5.56-3.54-4.32z"/>
					<path id="Layer copy 61" class="s0" d="m257.09 224.31c0.66-2.27-0.53-4.89-2.64-6.1-2.28-1.29-4.25 0.14-5.38 2.07-1.15-3.12-5.79-2.24-5.36 1.4-3.53-2.06-8.71-0.57-9.28 3.9-0.73 5.61 5.06 6.3 9.23 6.6 3.71 0.26 7.52 0.28 11.21-0.21 2.29-0.3 4.75-1.04 5.76-3.34 1.09-2.48-1.51-5.56-3.54-4.32z"/>
					<path id="Layer copy 62" class="s0" d="m249.99 410.39c-0.92-7.14-9.19-9.51-14.83-6.24 0.69-5.81-6.72-7.21-8.56-2.23-1.8-3.08-4.95-5.37-8.58-3.29-3.37 1.92-5.27 6.11-4.23 9.73-3.23-1.98-7.38 2.94-5.64 6.9 1.61 3.67 5.53 4.85 9.2 5.33 5.89 0.78 11.98 0.75 17.9 0.33 6.66-0.47 15.89-1.57 14.74-10.53z"/>
					<path id="Layer copy 63" class="s0" d="m211.62 373.63c0.65-2.26-0.54-4.89-2.65-6.1-2.28-1.29-4.25 0.14-5.37 2.07-1.16-3.12-5.8-2.24-5.36 1.4-3.54-2.05-8.72-0.57-9.29 3.9-0.73 5.61 5.06 6.3 9.23 6.6 3.71 0.26 7.52 0.28 11.21-0.21 2.29-0.3 4.75-1.04 5.76-3.34 1.09-2.48-1.51-5.56-3.53-4.32z"/>
					<path id="Layer copy 64" class="s0" d="m249.99 410.39c-0.92-7.14-9.19-9.51-14.83-6.24 0.69-5.81-6.72-7.21-8.56-2.23-1.8-3.08-4.95-5.37-8.58-3.29-3.37 1.92-5.27 6.11-4.23 9.73-3.23-1.98-7.38 2.94-5.64 6.9 1.61 3.67 5.53 4.85 9.2 5.33 5.89 0.78 11.98 0.75 17.9 0.33 6.66-0.47 15.89-1.57 14.74-10.53z"/>
					<path id="Layer copy 65" class="s0" d="m211.62 373.63c0.65-2.26-0.54-4.89-2.65-6.1-2.28-1.29-4.25 0.14-5.37 2.07-1.16-3.12-5.8-2.24-5.36 1.4-3.54-2.05-8.72-0.57-9.29 3.9-0.73 5.61 5.06 6.3 9.23 6.6 3.71 0.26 7.52 0.28 11.21-0.21 2.29-0.3 4.75-1.04 5.76-3.34 1.09-2.48-1.51-5.56-3.53-4.32z"/>
					<path id="Layer copy 66" class="s0" d="m223.99 205.39c-0.92-7.14-9.19-9.51-14.83-6.24 0.69-5.81-6.72-7.21-8.56-2.23-1.8-3.08-4.95-5.37-8.58-3.29-3.37 1.92-5.27 6.11-4.23 9.73-3.23-1.98-7.38 2.94-5.64 6.9 1.61 3.67 5.53 4.85 9.2 5.33 5.89 0.78 11.98 0.75 17.9 0.33 6.66-0.47 15.89-1.57 14.74-10.53z"/>
					<path id="Layer copy 67" class="s0" d="m194.62 159.63c0.65-2.26-0.54-4.89-2.65-6.09-2.28-1.3-4.25 0.13-5.37 2.06-1.16-3.12-5.8-2.24-5.36 1.4-3.54-2.05-8.72-0.57-9.29 3.9-0.73 5.61 5.06 6.3 9.23 6.6 3.71 0.26 7.52 0.28 11.21-0.21 2.29-0.3 4.75-1.04 5.76-3.34 1.09-2.48-1.51-5.56-3.53-4.32z"/>
					<path id="Layer copy 68" class="s0" d="m243.16 124.24c-0.58-4.47-5.76-5.95-9.29-3.9 0.43-3.64-4.21-4.52-5.36-1.4-1.13-1.93-3.1-3.36-5.38-2.07-2.11 1.21-3.3 3.83-2.64 6.1-2.03-1.24-4.62 1.84-3.54 4.32 1.01 2.3 3.47 3.04 5.76 3.34 3.7 0.49 7.51 0.47 11.21 0.21 4.18-0.3 9.96-0.99 9.24-6.6z"/>
					<path id="Layer copy 69" class="s0" d="m203.71 22.73c0.69-5.81-6.72-7.21-8.55-2.24-1.8-3.08-4.95-5.36-8.59-3.29-3.37 1.92-5.27 6.12-4.22 9.73-3.23-1.98-7.38 2.94-5.64 6.9 1.61 3.68 5.53 4.85 9.19 5.34 5.9 0.77 11.98 0.75 17.9 0.33 6.67-0.48 15.9-1.58 14.74-10.54-0.92-7.14-9.19-9.51-14.83-6.23z"/>
					<path id="Layer copy 70" class="s0" d="m217.14 261.46c0.69-5.81-6.72-7.21-8.55-2.23-1.8-3.08-4.95-5.37-8.59-3.29-3.37 1.92-5.27 6.11-4.22 9.73-3.24-1.98-7.38 2.94-5.64 6.9 1.61 3.67 5.53 4.85 9.19 5.33 5.9 0.78 11.98 0.75 17.9 0.33 6.66-0.47 15.9-1.57 14.74-10.53-0.92-7.14-9.19-9.51-14.83-6.24z"/>
					<path id="Layer copy 71" class="s0" d="m210.99 310.39c-0.92-7.14-9.19-9.51-14.83-6.24 0.69-5.81-6.72-7.21-8.56-2.23-1.8-3.08-4.95-5.37-8.58-3.29-3.37 1.92-5.27 6.11-4.23 9.73-3.23-1.98-7.38 2.94-5.64 6.9 1.61 3.67 5.53 4.85 9.2 5.33 5.89 0.78 11.98 0.75 17.9 0.33 6.66-0.47 15.89-1.57 14.74-10.53z"/>
					<path id="Layer copy 42" class="s0" d="m424.99 318.39c-0.92-7.14-9.19-9.51-14.83-6.24 0.69-5.81-6.72-7.21-8.56-2.23-1.8-3.08-4.95-5.37-8.58-3.29-3.37 1.92-5.27 6.11-4.23 9.73-3.23-1.98-7.38 2.94-5.64 6.9 1.61 3.67 5.53 4.85 9.2 5.33 5.89 0.78 11.98 0.75 17.9 0.33 6.66-0.47 15.89-1.57 14.74-10.53z"/>
					<path id="Layer copy 12" class="s0" d="m528.14 325.46c0.69-5.81-6.72-7.21-8.55-2.23-1.8-3.08-4.95-5.37-8.59-3.29-3.37 1.92-5.27 6.11-4.22 9.73-3.24-1.98-7.38 2.94-5.64 6.9 1.61 3.67 5.53 4.85 9.19 5.33 5.9 0.78 11.98 0.75 17.9 0.33 6.66-0.47 15.9-1.57 14.74-10.53-0.92-7.14-9.19-9.51-14.83-6.24z"/>
					<path id="Layer copy 13" class="s0" d="m536.99 371.39c-0.92-7.14-9.19-9.51-14.83-6.24 0.69-5.81-6.72-7.21-8.56-2.23-1.8-3.08-4.95-5.37-8.58-3.29-3.37 1.92-5.27 6.11-4.23 9.73-3.23-1.98-7.38 2.94-5.64 6.9 1.61 3.67 5.53 4.85 9.2 5.33 5.89 0.78 11.98 0.75 17.9 0.33 6.66-0.47 15.89-1.57 14.74-10.53z"/>
					<path id="Layer copy 40" class="s0" d="m460.99 158.39c-0.92-7.14-9.19-9.51-14.83-6.24 0.69-5.81-6.72-7.21-8.56-2.23-1.8-3.08-4.95-5.37-8.58-3.29-3.37 1.92-5.27 6.11-4.23 9.73-3.23-1.98-7.38 2.94-5.64 6.9 1.61 3.67 5.53 4.85 9.2 5.33 5.89 0.78 11.98 0.75 17.9 0.33 6.66-0.47 15.89-1.57 14.74-10.53z"/>
					<path id="Layer copy 8" class="s0" d="m584.09 119.31c0.66-2.27-0.53-4.89-2.64-6.1-2.28-1.29-4.25 0.14-5.38 2.07-1.15-3.12-5.79-2.24-5.36 1.4-3.53-2.06-8.71-0.57-9.28 3.9-0.73 5.61 5.05 6.3 9.23 6.6 3.7 0.26 7.52 0.28 11.21-0.21 2.29-0.3 4.75-1.04 5.76-3.34 1.08-2.48-1.51-5.56-3.54-4.32z"/>
					<path id="Layer copy 9" class="s0" d="m550.99 100.39c-0.92-7.14-9.19-9.51-14.83-6.24 0.69-5.81-6.72-7.21-8.56-2.23-1.8-3.08-4.95-5.37-8.58-3.29-3.37 1.92-5.27 6.11-4.23 9.73-3.23-1.98-7.38 2.94-5.64 6.9 1.61 3.67 5.53 4.85 9.2 5.33 5.89 0.78 11.98 0.75 17.9 0.33 6.66-0.47 15.89-1.57 14.74-10.53z"/>
					<path id="Layer copy 10" class="s0" d="m544.14 156.46c0.69-5.81-6.72-7.21-8.55-2.23-1.8-3.08-4.95-5.37-8.59-3.29-3.37 1.92-5.27 6.11-4.22 9.73-3.24-1.98-7.38 2.94-5.64 6.9 1.61 3.67 5.53 4.85 9.19 5.33 5.9 0.78 11.98 0.75 17.9 0.33 6.66-0.47 15.9-1.57 14.74-10.53-0.92-7.14-9.19-9.51-14.83-6.24z"/>
					<path id="Layer copy 11" class="s0" d="m537.99 205.39c-0.92-7.14-9.19-9.51-14.83-6.24 0.69-5.81-6.72-7.21-8.56-2.23-1.8-3.08-4.95-5.37-8.58-3.29-3.37 1.92-5.27 6.11-4.23 9.73-3.23-1.98-7.38 2.94-5.64 6.9 1.61 3.67 5.53 4.85 9.2 5.33 5.89 0.78 11.98 0.75 17.9 0.33 6.66-0.47 15.89-1.57 14.74-10.53z"/>
					<path id="Layer copy 3" class="s0" d="m388.99 360.39c-0.92-7.14-9.19-9.51-14.83-6.24 0.69-5.81-6.72-7.21-8.56-2.23-1.8-3.08-4.95-5.37-8.58-3.29-3.37 1.92-5.27 6.11-4.23 9.73-3.23-1.98-7.38 2.94-5.64 6.9 1.61 3.67 5.53 4.85 9.2 5.33 5.89 0.78 11.98 0.75 17.9 0.33 6.66-0.47 15.89-1.57 14.74-10.53z"/>
				</g>
			</g>
		</g>
	</g>
</svg>