<svg version="1.2" xmlns="http://www.w3.org/2000/svg" viewBox="0 0 750 500" width="750" height="500">
	<title>bckgrnd-5</title>
	<defs>
		<clipPath clipPathUnits="userSpaceOnUse" id="cp1">
			<path d="m0 0h750v500h-750z"/>
		</clipPath>
	</defs>
	<style>
		.s0 { fill: #37b3a5 } 
		.s1 { fill: #106e82 } 
		.s2 { fill: #174867 } 
		.s3 { fill: #2b2b2b } 
		.s4 { fill: #f9c90f } 
		.s5 { fill: #ffbb9b } 
		.s6 { fill: #f0e8ec } 
		.s7 { opacity: .42;fill: #d66b6b } 
		.s8 { fill: #002e3a } 
		.s9 { fill: #efcbb4 } 
		.s10 { fill: #171e3a } 
		.s11 { fill: #ab1d2e } 
		.s12 { fill: #e13226 } 
		.s13 { fill: #993419 } 
		.s14 { fill: #081d38 } 
		.s15 { fill: none;stroke: #80251a;stroke-linecap: round;stroke-linejoin: round } 
		.s16 { fill: #d8635a } 
		.s17 { opacity: .29;fill: #ffffff } 
		.s18 { opacity: .25;fill: #ffffff } 
		.s19 { fill: #661a15 } 
		.s20 { fill: #b05312 } 
		.s21 { fill: #9c3f16 } 
		.s22 { fill: #ffc533 } 
		.s23 { fill: none;stroke: #6c3500;stroke-miterlimit:10 } 
		.s24 { fill: #f5b781 } 
		.s25 { fill: #ffffff } 
		.s26 { fill: #f58b00 } 
		.s27 { fill: #e04e10 } 
		.s28 { fill: #d2a8ef } 
		.s29 { opacity: .63;fill: #a52098 } 
		.s30 { fill: #f2deff } 
		.s31 { opacity: .38;fill: #d2a8ef } 
		.s32 { opacity: .85;fill: #d2a8ef } 
	</style>
	<g id="OBJECTS">
		<g>
			<g id="Clip-Path" clip-path="url(#cp1)">
				<g>
					<g>
						<g>
							<path class="s0" d="m784.9-55q1.6 8.4 2.1 17 0.5 10.6-0.6 21.3c-5.1 53.2-37.1 107.3-61.1 149.1l-0.3 0.1-18.8 4.6-2.1 0.5-1.9 0.5-8.7 2-15.6 3.8-6.7 1.6-7.5 1.8-2.9 0.7v0.1l-15.4 3.7-13.7 3.3-2.9 0.7-11.2 2.7-15.8 3.8q-1.4-1-2.9-2.1c-83.2-62.8-181-158.3-92.8-252.3q4.9-5.2 10.7-10.5 4.4-4.1 9.4-7.9c7.4-5.8 15.5-11 24.1-15.7q1.4-0.7 2.7-1.4c9.3-4.8 19.1-9 29.3-12.4q1.8-0.6 3.5-1.1c9.6-3.1 19.5-5.4 29.4-7.1q0.2 0 0.3-0.1c11.1-1.8 22.3-2.8 33.4-2.9q0 0 0.1 0 0.7 0 1.4 0 3.8 0 7.7 0.1 0.7 0 1.3 0.1 7.2 0.3 14.3 1.1c53.1 6.5 99.3 35.9 111.2 94.9z"/>
						</g>
						<g>
							<path class="s1" d="m784.9-55c12.4 64.4-29.8 135.5-59.6 187.4l-21.2 5.2c45.3-98.5 90.3-236.8-30.4-287.5 53.1 6.5 99.3 35.8 111.2 94.9z"/>
						</g>
						<g>
							<path class="s1" d="m632.2 154.6q0 0-0.5 0.5l-29.9 7.2c-87-65.1-192.4-166.5-85-264.9q4.4-4.1 9.3-7.9c-76.8 97.6 23.1 198.6 106.1 265.1z"/>
						</g>
						<g>
							<g>
								<path class="s2" d="m614.3 181.9c0 0 5 18.7 7.8 30.9 2.9 12.1 6.8 31 6.8 31 0.1 0.7-1 0.9-1.1 0.3 0 0-5-18.7-7.9-30.8-2.8-12.2-6.8-31.1-6.8-31.1 0-0.7 1-0.9 1.2-0.3z"/>
							</g>
							<g>
								<path class="s2" d="m668.9 169c0 0 5 18.7 7.9 30.8 2.9 12.2 6.8 31.1 6.8 31.1 0.1 0.7-1 0.9-1.2 0.3 0 0-4.9-18.7-7.8-30.8-2.9-12.2-6.8-31.1-6.8-31.1 0-0.7 0.9-0.9 1.1-0.3z"/>
							</g>
							<g>
								<path class="s2" d="m722.1 156.4c0 0 5 18.7 7.9 30.9 2.9 12.1 6.8 31.1 6.8 31.1 0.1 0.6-1 0.9-1.2 0.2 0 0-4.9-18.7-7.8-30.8-2.9-12.1-6.8-31.1-6.8-31.1 0-0.7 0.9-0.9 1.1-0.3z"/>
							</g>
							<g>
								<path class="s2" d="m630.5 180.3c0 0-3 6.4-5.2 10.2-2.2 3.9-6.1 9.6-6.1 9.6-0.2 0.2-1.1-0.5-1-0.7 0 0 2.9-6.3 5.1-10.2 2.2-3.8 6.1-9.5 6.1-9.5 0.3-0.2 1.1 0.4 1.1 0.6z"/>
							</g>
							<g>
								<path class="s2" d="m683.4 167.8c0 0-2.9 6.3-5.1 10.2-2.2 3.9-6.1 9.5-6.1 9.5-0.2 0.2-1.1-0.4-1.1-0.6 0 0 3-6.3 5.2-10.2 2.2-3.9 6.1-9.5 6.1-9.5 0.2-0.2 1.1 0.4 1 0.6z"/>
							</g>
							<g>
								<path class="s2" d="m654.7 173.7c0 0 6.1 3.3 9.8 5.8 3.7 2.5 9.1 6.8 9.1 6.8 0.2 0.1-0.4 1.1-0.6 1 0 0-6-3.3-9.7-5.8-3.7-2.4-9.2-6.7-9.2-6.7-0.1-0.3 0.4-1.2 0.6-1.1z"/>
							</g>
							<g>
								<path class="s2" d="m707.1 161.3c0 0 6 3.4 9.7 5.8 3.7 2.5 9.2 6.8 9.2 6.8 0.2 0.2-0.4 1.2-0.6 1.1 0 0-6.1-3.4-9.8-5.8-3.7-2.5-9.1-6.8-9.1-6.8-0.2-0.2 0.3-1.1 0.6-1.1z"/>
							</g>
						</g>
						<g style="opacity: .2">
							<path class="s3" d="m687.5 231.7q-1.7-0.6-3.3-0.9 0.3-0.6 0.7-1.3z"/>
						</g>
						<g>
							<g>
								<path class="s1" d="m660.8 148l-15.4 3.8-13.7 3.3-2.9 0.7c-72.5-102.9-97-203.5-78.5-282q1.3-0.7 2.7-1.4c9.3-4.9 19.1-9 29.3-12.4-0.6 105 25.1 180.8 81.4 287.3l-2.9 0.7z"/>
							</g>
							<g>
								<path class="s1" d="m706.2 137.1l-2.1 0.5-10.6 2.5-15.6 3.8-6.7 1.6c2.6-120.6-8.3-199.9-56-293.7q0.2 0 0.3-0.1c11.1-1.8 22.4-2.8 33.5-2.9 52.4 61.7 76.1 163 57.2 288.3z"/>
							</g>
						</g>
						<g>
							<path fill-rule="evenodd" class="s4" d="m725 131.1v1.4l-0.5 26.1-113.1 26.7 0.2 0.7-12.8-24.4-0.9-1.2 126.8-29.9z"/>
						</g>
						<g>
							<g>
								<g>
									<g>
										<path class="s5" d="m641.2 235.2c0 0 3.1 27.7 7.6 39.4 0 0-5.6 5.1-3.4 5.1 2.2 0.1 10.5-2.8 10.2-4-0.3-1.1-4.3-40.6-4.3-40.6z"/>
										<path class="s6" d="m645.7 277c1.6-1.3 3.1-2.4 3.1-2.4-0.7-1.7-1.3-3.7-2-5.8 2.5-0.3 5.5-0.8 7.9-1.2 0.8 4.5 1.4 7.7 1.5 8 0.2 0.8-5.9 3.2-9.8 4.4z"/>
									</g>
									<g>
										<path class="s5" d="m662.3 225.2c0 0 13.7 34.7 15.4 41.4 0 0 11.4 2.4 9.4 3.3-2 0.9-16 2.1-16.2 0.9-0.1-1.2-18-42-18-42z"/>
										<path class="s7" d="m663.4 228c1.7 4.2 4.8 12.3 7.8 20.1l-8.7 2.7c-2.9-6.6-5.9-13.4-7.7-17.6z"/>
										<path class="s7" d="m644.3 256.4l8.9-2.8c-0.9-9-1.8-17.6-1.9-18.4l-9.5 5c0.5 4 1.4 10 2.5 16.2z"/>
										<path class="s6" d="m682.2 270.8c-4.8 0.5-11.2 0.8-11.3 0 0-0.3-1.2-3.1-2.9-7.1 3.6-0.9 6.4-1.8 8-2.4 0.8 2.4 1.4 4.2 1.7 5.3 0 0 1.3 0.3 2.9 0.7z"/>
										<path fill-rule="evenodd" class="s0" d="m669 232.8l5.1 12.3-14.2 4.4-4.4-7 0.6 8.5-13.6 3.6-4-14.1z"/>
										<path class="s1" d="m639 242.4l2.5-2.7 27.5-6.9 5.1 12.3-3.1 1-5.1-7.8c-8.3 3.2-21.5 5-26.4 5.5z"/>
										<path class="s8" d="m670.1 266.1l4.2-0.5c-0.4-1.4 0.5-2.9 2-3.1l0.1-0.1c1.2-0.2 2.4 0.5 2.8 1.7q0.3 1 0.5 1.6c0 0 9.4 3.3 7.4 4.2-2 0.9-17.2 2.2-17.3 1 0-0.2-0.4-1.2-0.9-2.9-0.3-0.8 0.3-1.8 1.2-1.9z"/>
										<g>
											<g>
												<path class="s9" d="m678.8 267.5q-0.1 0.1-0.3 0c-0.3-0.1-0.4-0.4-0.3-0.7 0.4-1.3 2.2-1.8 2.3-1.9 0.2 0 0.6 0.1 0.6 0.4 0.1 0.3-0.1 0.6-0.3 0.7q0 0-0.1 0c-0.3 0.1-1.3 0.5-1.5 1.2q-0.1 0.2-0.4 0.3z"/>
											</g>
											<g>
												<path class="s9" d="m680.2 268.3q-0.1 0-0.3-0.1c-0.3-0.1-0.5-0.4-0.4-0.6 0.5-1.4 2.3-1.9 2.4-1.9 0.2-0.1 0.5 0.1 0.6 0.3 0.1 0.3-0.1 0.6-0.3 0.7q-0.1 0-0.1 0c-0.3 0.1-1.3 0.5-1.5 1.2q-0.1 0.3-0.4 0.4z"/>
											</g>
											<g>
												<path class="s9" d="m681.7 269q-0.2 0-0.4-0.1c-0.2-0.1-0.4-0.4-0.3-0.7 0.5-1.3 2.2-1.8 2.3-1.8 0.3-0.1 0.6 0 0.7 0.3 0.1 0.3-0.1 0.7-0.4 0.7-0.3 0.1-1.3 0.5-1.6 1.2q-0.1 0.3-0.3 0.4z"/>
											</g>
										</g>
										<path class="s6" d="m686.9 269c-3.9 0.8-11.3 1.2-17.2 1.4q0.1 0.4 0.1 0.5c0.1 1.2 15.3-0.1 17.3-1 0.5-0.2 0.3-0.5-0.2-0.9z"/>
									</g>
									<path class="s8" d="m646.2 276.3c-0.3-0.4-0.7-1.2-1-1.9-0.4-0.7 0-1.7 0.8-1.9l2.4-0.7c0.9-0.2 1.7 0.4 1.7 1.3l0.1 1.7 3.9-1.6c1-0.4 2.1 0.1 2.4 1.1 0.5 1.5 0.8 2.5 0.9 2.6 0.3 1.2-12.3 5.6-14.4 5.6-2.2 0.1 3.2-6.2 3.2-6.2z"/>
									<path class="s6" d="m657 275.9q0.3 0.9 0.4 1c0.3 1.2-12.3 5.6-14.4 5.6-0.4 0.1-0.6-0.1-0.5-0.4 3.6-1.1 10.4-3.2 14.5-6.2z"/>
									<g>
										<g>
											<path class="s9" d="m647.2 277.8q-0.2 0.1-0.5-0.1c-0.5-0.4-1.6-0.2-1.9-0.1-0.3 0.1-0.6 0-0.7-0.3-0.1-0.3 0-0.6 0.3-0.7 0.1 0 1.8-0.6 3 0.2 0.2 0.2 0.3 0.6 0.1 0.8q-0.1 0.2-0.3 0.2z"/>
										</g>
										<g>
											<path class="s9" d="m646.5 279.2q-0.3 0.1-0.5-0.1c-0.6-0.4-1.6-0.2-2-0.1-0.2 0.1-0.6 0-0.7-0.3-0.1-0.3 0.1-0.6 0.4-0.7 0.1 0 1.8-0.6 2.9 0.2 0.3 0.2 0.3 0.5 0.2 0.8q-0.1 0.1-0.3 0.2z"/>
										</g>
										<g>
											<path class="s9" d="m645.7 280.6q-0.3 0.1-0.5-0.1c-0.6-0.4-1.6-0.2-2-0.1-0.2 0.1-0.6 0-0.7-0.3-0.1-0.3 0.1-0.6 0.4-0.7 0.1 0 1.8-0.6 3 0.2 0.2 0.2 0.3 0.5 0.1 0.8q-0.1 0.1-0.3 0.2z"/>
										</g>
									</g>
								</g>
								<g>
									<g>
										<path class="s5" d="m613.4 214.6c-4.5-3.4-4.2-9.4-4.2-9.4 0 0 2.3-0.1 2.2-2.9 0 0 0.4-4.2-0.4-5.2-1.8-2.1-1.7 2.2-1.7 2.2 0 0-0.2-0.2-0.5-0.4-0.8-1.6-2.4-7.1-6.9-3.3-2.2 1.8-3.1 10.4 0.5 11.5q0.3 0 0.6 0.1c0.1 2.5 1 15.1 10.2 16.5 13.4 2 18.5-8.7 18.5-8.7l-1.6-11.1c0 0-12.2 14.1-16.7 10.7z"/>
									</g>
									<g>
										<g>
											<path class="s10" d="m613.4 214.6c-3.1-2.3-3.9-5.8-4.1-7.8l-6.1 2.6c0.5 4.5 2.4 13.2 10 14.3 13.4 2 18.5-8.7 18.5-8.7l-0.4-2.9-1.8-7.5c-2.5 2.8-12.3 12.9-16.1 10z"/>
										</g>
									</g>
									<path class="s10" d="m631.7 215l-1.6-11.1c0 0-1.8 2.1-4.3 4.5l1.9 9.3c0 0-11.5 10.1-21.6 1 1.5 2.5 3.7 4.5 7.1 5 13.4 2 18.5-8.7 18.5-8.7z"/>
									<path class="s11" d="m630.1 203.9c0 0-9.2 8.3-12.5 8.2l4.2 12.7c0 0 11.8-3.6 14.1-11.4 2.4-7.8-5.8-9.5-5.8-9.5z"/>
									<g>
										<path class="s5" d="m653.8 196.9c0 0 23 4.8 27.9 28.3 0 0 2.8 7.1 0.1 8.6-2.8 1.5-3.5-4.6-3.5-4.6 0 0-0.6 4.5-1.9 3-1.4-1.5-0.3-7-0.3-7 0 0-14.5-18.9-20.5-19.7z"/>
										<path class="s10" d="m659.4 198.7l-2.7 7.1c5.7 2.2 16.4 15.6 18.9 18.8l5.3-2.5c-4.1-13.9-14.9-20.5-21.5-23.4z"/>
										<path class="s10" d="m661.3 199.6c3.2 1.6 6.9 3.9 10.4 7.2l-4.5 7.8c-3.3-3.6-7-7-9.7-8.4z"/>
										<path class="s11" d="m653.1 196.3c0 0 10.9 2.3 17.8 8.2l-6.1 9.5c0 0-15.2-9.2-11.7-17.7z"/>
										<path class="s12" d="m655.5 239.8c-13.8 5.3-20.5 3.8-21 1.5l-6.1-29c-1.5-6.1 2.2-12.2 8.2-13.6l8.5-2.2c6.1-1.5 11.8-0.8 13.3 5.2l12.2 29.8c1.6 2.4-15.1 8.3-15.1 8.3z"/>
										<path class="s10" d="m645.1 196.5q1.1-0.2 2.2-0.4c0.3 3.2-0.4 5.7-4.7 7.4-4.3 1.6-7-0.8-8.1-4.1q0.2-0.1 0.4-0.2 0.3-0.1 0.6-0.2 0.5-0.2 1.1-0.3z"/>
										<g>
											<path class="s5" d="m642 201.9c2.3-0.6 3.6-3 3-5.3l-1.6-5.9-8.3 2.3 1.6 5.9c0.6 2.3 3 3.6 5.3 3z"/>
											<path class="s7" d="m645 196.8c-1.1 0.8-2.4 1.4-3.9 1.8-1.5 0.4-3 0.6-4.3 0.5l-1.7-6.1 8.3-2.3z"/>
										</g>
									</g>
								</g>
								<g>
									<g>
										<g>
											<g>
												<g>
													<g>
														<g>
															<g>
																<g>
																	<g>
																		<g>
																			<g>
																				<g>
																					<path class="s5" d="m611.4 178c0 0-4.8-2.9-7.1 1.3-3.8 6.6 2.4 13.3 10.3 9z"/>
																					<path class="s7" d="m611.8 179.5c0 0-5.1-2-5.9 2.2-0.7 4.2 2.7 6.5 9.2 5.5l-2.7-7.9z"/>
																					<path class="s5" d="m656.1 165.8c0 0 2.6-5 6.8-2.5 7.4 4.3 4.6 12.6-4.4 13z"/>
																					<path class="s7" d="m656.5 167.2c0 0 3.4-4.2 6.2-1 2.8 3.2 1 6.9-5.1 9.5l-1.7-8.3z"/>
																					<g>
																						<path class="s5" d="m621.6 152.5c-23.5 10.5-14.1 39-4.7 44.6 10.1 6.1 44.3-1.6 43.9-20.4q0-0.3 0-0.6c-0.8-20.1-17.4-33.2-39.2-23.6z"/>
																					</g>
																				</g>
																			</g>
																		</g>
																	</g>
																</g>
															</g>
														</g>
													</g>
												</g>
											</g>
											<path class="s13" d="m654.4 162.2c-2-6.2-8.7-9.7-15-7.7l-22.1 7c-6.1 2-9.5 8.5-7.5 14.6l2.7 8.6c0.7 2-0.5 4.2-2.5 4.8l-6.3-17.9c-4.7-14.6 4.4-24.8 19-29.4l4.8-1.2c15.5-4.9 26 0.3 29.5 16.2l3.8 16.9c-1.3 0.4-2.7-0.3-3.1-1.6z"/>
										</g>
										<path class="s14" d="m614.4 171c0 0 0.9-5.9 6.6-3.5z"/>
										<path class="s14" d="m639.4 172.1c0.4 1.1 1.7 1.7 2.8 1.3 1.2-0.4 1.8-1.6 1.4-2.8-0.4-1.1-1.6-1.7-2.8-1.3-1.1 0.4-1.8 1.6-1.4 2.8z"/>
										<path class="s14" d="m619.2 179.1c0.4 1.2 1.7 1.8 2.8 1.4 1.2-0.4 1.8-1.7 1.4-2.8-0.4-1.2-1.6-1.8-2.8-1.4-1.1 0.4-1.7 1.7-1.4 2.8z"/>
										<path class="s15" d="m635 177.4c0 0-0.8-1.7-2.3-1.3-1.5 0.4-1 2.2-1 2.2"/>
										<path class="s16" d="m644.1 174.9c0.3 1 2.2 1.2 4.3 0.5 2-0.7 3.4-2 3.1-3-0.3-0.9-2.2-1.1-4.3-0.4-2 0.7-3.4 2-3.1 2.9z"/>
										<path class="s16" d="m621.9 184.3c0.8-0.7 1.2-1.4 1-1.9-0.3-1-2.2-1.1-4.3-0.4-2 0.7-3.4 2-3.1 2.9 0.3 0.9 2.2 1.1 4.3 0.4 0.8-0.2 1.5-0.6 2.1-1z"/>
									</g>
									<path class="s14" d="m643.2 161.4c0 0-4-4.3-7.4 1z"/>
									<path class="s13" d="m634 139.3c0 0-3.4-6.3-11.5-5.8-14 0.8-20.2 21.5-24.6 21.9-4.3 0.5-8.1-2.6-8.1-2.6 0 0 3.2 6.8 6.3 8.2 0 0-5.4-1.9-4.9-0.6 0.4 1.3 5.8 3.8 5.8 3.8 0 0-1.7 1.8-1.3 4.2l2.1-1.8c0 0-4.5 13.5 11.3 17.9l-3.7-21.7 11.4-4.1 4.4-2.3-5.1 8.6c0 0 8.7 2.6 13-7.3 0 0 0.7 4-0.7 5.8 0 0 6.6-2.9 5.9-9.3 0 0-0.2 3 3.5 3.6 3.7 0.6 11.1 0.4 12.4 1.8 1.3 1.4 2 4.9 2 4.9l2-6.9 3 6.2c0 0 3.7-4.8 4.1-7.8 0.4-3-1.4-7.4-1.4-7.4 0 0 1.6 1.1 2.1 2.8 0 0 2.4-4.7 0.1-6.6-2.3-1.9-8.5-1.7-9-2.1-0.6-0.4-3.7-6.6-7.4-8.4-3.2-1.6-9.6 0.3-11.7 5z"/>
									<g>
										<path class="s15" d="m630.1 182.2c0 0 5.3-0.2 7.2-2.7"/>
										<path class="s15" d="m636.4 178.6c0 0 1.7 0.6 1.5 1.5"/>
									</g>
									<g>
										<g>
											<path class="s17" d="m629.7 173.9c1.5 4.7-1 9.7-5.6 11.3-4.7 1.6-9.8-0.9-11.4-5.6-1.6-4.6 0.9-9.7 5.6-11.3 4.7-1.6 9.8 0.9 11.4 5.6z"/>
											<path class="s18" d="m616.2 184.2c2.4-3.9 6.6-11.1 9.1-15.4-1.2-0.6-2.6-1-4.1-1l-7.8 13.3c0.7 1.3 1.7 2.3 2.8 3.1z"/>
											<g>
												<path class="s19" d="m624 186.2c-2.4 0.7-4.9 0.5-7.2-0.6-2.3-1.1-4.1-3.2-5-5.7-0.8-2.5-0.6-5.1 0.5-7.5 1.2-2.4 3.2-4.1 5.7-5 5.2-1.8 10.8 1 12.5 6.2 1.8 5.1-1 10.8-6.1 12.5q-0.2 0.1-0.4 0.1zm-5.1-17.1q-0.1 0-0.3 0.1c-2 0.7-3.7 2.1-4.6 4-1 1.9-1.1 4.1-0.4 6.1 0.7 2.1 2.1 3.7 4 4.6 2 1 4.1 1.1 6.2 0.4 4.1-1.4 6.4-5.9 5-10.1-1.4-4.1-5.8-6.3-9.9-5.1z"/>
											</g>
										</g>
										<g>
											<path class="s17" d="m650.7 166.6c1.6 4.7-0.9 9.7-5.6 11.3-4.7 1.6-9.8-0.9-11.4-5.6-1.6-4.6 0.9-9.7 5.6-11.3 4.7-1.6 9.8 0.9 11.4 5.6z"/>
											<path class="s18" d="m637.3 176.9c2.3-3.9 6.6-11.1 9.1-15.4-1.3-0.6-2.7-1-4.2-1l-7.8 13.3c0.7 1.3 1.7 2.3 2.9 3.1z"/>
											<g>
												<path class="s19" d="m645 178.9c-2.4 0.7-4.9 0.5-7.2-0.6-2.3-1.1-4.1-3.2-4.9-5.7-0.9-2.5-0.7-5.1 0.4-7.5 1.2-2.4 3.2-4.1 5.7-5 2.5-0.8 5.2-0.7 7.6 0.5 2.3 1.2 4.1 3.2 5 5.7 0.8 2.5 0.6 5.2-0.5 7.5-1.2 2.4-3.2 4.2-5.7 5q-0.2 0.1-0.4 0.1zm-5.1-17.1q-0.1 0-0.3 0.1c-2 0.7-3.6 2.1-4.6 4-0.9 1.9-1.1 4.1-0.4 6.1 0.7 2.1 2.1 3.7 4.1 4.6 1.9 1 4.1 1.1 6.1 0.4 2-0.6 3.6-2.1 4.6-4 0.9-1.9 1.1-4.1 0.4-6.1-0.7-2-2.1-3.7-4.1-4.6-1.8-0.9-3.8-1.1-5.8-0.5z"/>
											</g>
										</g>
										<g>
											<path class="s19" d="m634.6 175.6q-0.2 0-0.5 0c-1.8-0.6-2.9 0.6-3 0.7-0.3 0.4-0.9 0.4-1.3 0.1-0.4-0.4-0.4-1-0.1-1.3 0.1-0.1 2-2.3 5-1.3 0.5 0.1 0.7 0.7 0.6 1.2-0.1 0.3-0.4 0.5-0.7 0.6z"/>
										</g>
									</g>
								</g>
							</g>
							<g>
								<g>
									<g>
										<path class="s5" d="m692.7 228.7c0 0-2.6 28.5-0.4 40.7 0 0-6.4 4-4.3 4.5 2.2 0.5 10.9-0.9 10.8-2.1-0.1-1.2 3.9-41.3 3.9-41.3z"/>
										<path class="s6" d="m688.9 271.9c1.4-1.2 3.4-2.5 3.4-2.5q0-0.3-0.1-0.6c-0.2-1.6-0.4-3.4-0.5-5.4 2 0.2 5.3 0.6 7.7 0.8-0.4 4.3-0.6 7.3-0.6 7.6 0 0.6-2.2 1.2-4.9 1.7-1.8 0.3-3.7 0.5-5 0.5z"/>
									</g>
									<g>
										<path class="s5" d="m715.4 222.8c0 0 8.3 37.1 8.7 44 0 0 10.8 4.6 8.7 5-2.2 0.5-16.2-0.9-16.1-2.1 0-1.2-11.3-45.1-11.3-45.1z"/>
										<path class="s7" d="m716.1 226c1 4.4 2.8 12.8 4.5 20.9l-9.2 1c-1.8-7.2-3.7-14.5-4.9-19z"/>
										<path class="s7" d="m700.9 249l-9.4 1c0.2-6.4 0.6-12.8 0.9-16.8l10.3-2.6c-0.1 0.8-0.9 9.3-1.8 18.4z"/>
										<path class="s6" d="m723.4 261.4c0.3 2.1 0.6 3.9 0.7 5.1q0 0.2 0 0.3 0 0 0.1 0.1c0.3 0.1 1.3 0.5 2.6 1.1q0 0 0 0l0.9 3.7q0 0 0 0-0.6 0-1.3-0.1-0.1 0-0.1 0-0.6 0-1.3-0.1-0.1 0-0.1 0-0.7-0.1-1.3-0.2-0.1 0-0.2 0-0.2 0-0.4 0-0.1 0-0.2-0.1-0.3 0-0.5 0-0.2 0-0.3-0.1-0.1 0-0.3 0-0.2 0-0.5-0.1-0.1 0-0.2 0-0.2 0-0.3-0.1-0.1 0-0.3 0-0.2 0-0.4-0.1-0.1 0-0.2 0-0.2 0-0.3-0.1-0.1 0-0.2 0-0.2-0.1-0.4-0.1-0.1 0-0.1 0-0.2-0.1-0.4-0.1 0 0-0.1 0-0.2-0.1-0.4-0.1 0 0 0 0-0.2-0.1-0.3-0.1 0 0-0.1 0-0.1-0.1-0.3-0.1 0-0.1 0-0.1-0.1 0-0.2-0.1 0 0 0 0-0.1 0-0.2-0.1 0 0 0 0-0.1 0-0.1-0.1 0 0 0 0 0-0.1 0-0.1c0-0.3-0.8-3.5-1.9-8 3.3-0.2 7.2-0.2 8.6-0.3z"/>
										<path fill-rule="evenodd" class="s12" d="m720.5 231.5l2.7 13.1-14.7 1.6-3-7.7-1 8.5-14.1 1-1.2-14.6z"/>
										<path class="s11" d="m689.3 235.3l3-2.1 28.2-1.7 2.7 13.1-3.1 0.3-3.6-8.6c-8.8 1.6-22.1 0.9-27 0.5z"/>
										<path class="s0" d="m716.7 264.9l4.3 0.3c-0.2-1.5 1-2.7 2.5-2.7h0.1c1.3 0 2.3 0.9 2.5 2.2q0.1 1 0.1 1.6c0 0 8.7 5.1 6.6 5.5-2.2 0.5-17.3-1-17.3-2.2 0.1-0.2-0.1-1.3-0.3-3-0.2-0.9 0.6-1.7 1.5-1.7z"/>
										<g>
											<g>
												<path class="s9" d="m725 267.9q0.3 0 0.5-0.2c0.3-0.6 1.3-0.9 1.7-0.9q0 0 0 0c0.3 0 0.5-0.3 0.5-0.6 0-0.3-0.3-0.5-0.6-0.5-0.1 0-1.9 0.2-2.6 1.4-0.1 0.3 0 0.6 0.2 0.8q0.2 0.1 0.3 0z"/>
											</g>
											<g>
												<path class="s9" d="m726.3 268.9q0.2 0 0.4-0.3c0.4-0.6 1.4-0.8 1.8-0.8q0 0 0 0c0.3-0.1 0.5-0.3 0.5-0.6-0.1-0.3-0.3-0.6-0.6-0.5-0.1 0-1.9 0.2-2.7 1.4-0.1 0.3 0 0.6 0.3 0.7q0.1 0.1 0.3 0.1z"/>
											</g>
											<g>
												<path class="s9" d="m727.6 269.9q0.2-0.1 0.4-0.3c0.3-0.6 1.4-0.9 1.8-0.9q0 0 0 0c0.3 0 0.5-0.3 0.5-0.6-0.1-0.3-0.3-0.5-0.6-0.5-0.1 0-2 0.2-2.7 1.5-0.1 0.2 0 0.6 0.2 0.7q0.2 0.1 0.4 0.1z"/>
											</g>
										</g>
										<path class="s1" d="m732.7 270.9c-4 0-11.3-0.9-17.2-1.9q0 0.5 0 0.6c0 1.2 15.1 2.7 17.3 2.2 0.5-0.1 0.4-0.5-0.1-0.9z"/>
									</g>
									<path class="s0" d="m689.5 270.6c-0.2-0.4-0.4-1.2-0.7-2-0.2-0.8 0.3-1.6 1.2-1.7l2.5-0.2c0.9-0.1 1.6 0.7 1.4 1.5l-0.2 1.8 4.1-0.9c1.1-0.2 2.1 0.5 2.2 1.6 0.2 1.5 0.3 2.5 0.3 2.7 0.2 1.2-13 3.2-15.2 2.8-2.1-0.4 4.4-5.6 4.4-5.6z"/>
									<path class="s1" d="m700.2 272.3q0.1 0.9 0.1 1.1c0.2 1.2-13 3.2-15.2 2.8-0.3-0.1-0.4-0.3-0.4-0.6 3.8-0.3 10.9-1.1 15.5-3.3z"/>
									<g>
										<g>
											<path class="s9" d="m690.2 272.3q0.2 0 0.3-0.1c0.2-0.2 0.2-0.6 0-0.8-0.9-1-2.8-0.8-2.8-0.8-0.3 0.1-0.5 0.3-0.5 0.6 0 0.3 0.3 0.5 0.6 0.5 0.4 0 1.5-0.1 1.9 0.5q0.2 0.2 0.5 0.1z"/>
										</g>
										<g>
											<path class="s9" d="m689.2 273.6q0.2-0.1 0.3-0.2c0.3-0.2 0.3-0.5 0.1-0.8-1-1-2.8-0.8-2.9-0.7-0.3 0-0.5 0.3-0.5 0.6 0.1 0.3 0.4 0.5 0.6 0.4 0.4 0 1.5 0 2 0.5q0.2 0.2 0.4 0.2z"/>
										</g>
										<g>
											<path class="s9" d="m688.2 274.8q0.2 0 0.3-0.2c0.2-0.2 0.2-0.5 0-0.7-1-1.1-2.8-0.8-2.8-0.8-0.3 0-0.6 0.3-0.5 0.6 0 0.3 0.3 0.5 0.6 0.5 0.4-0.1 1.4-0.1 1.9 0.4q0.2 0.2 0.5 0.2z"/>
										</g>
									</g>
								</g>
								<g>
									<g>
										<g>
											<path class="s5" d="m687.2 196.5c0 0-12.6 11.1-16.7 10.4-4.1-0.8-9.3-5.5-9.3-5.5l-6.4 3.7c0 0 9.1 12.3 17.2 11.9 5.5-0.3 15.6-7.9 15.6-7.9z"/>
											<path class="s5" d="m655.5 207.9l1.3 0.1c2.6 0.3 4.9-1.6 5.1-4.1 0.3-2.6-1.6-4.9-4.1-5.2l-1.3-0.1c-2.6-0.3-4.9 1.6-5.2 4.2-0.2 2.5 1.6 4.8 4.2 5.1z"/>
											<path class="s7" d="m654.9 200.1c0 0 4 1.1 3.8 3.6-0.2 1.2-1 1.5-1 1.5 0 0 0 0.9-0.3 1.7-0.5 1.5-3.3 1.4-4.3 0.7-1.8-1.2-2.6-8.7 1.8-7.5z"/>
											<path class="s5" d="m650.3 200.8l6 0.6 0.3-2.7-6.1-0.6c-0.7-0.1-1.4 0.4-1.5 1.2-0.1 0.7 0.5 1.4 1.3 1.5z"/>
											<path class="s5" d="m654.9 200c0 0 2.8 1.1 2.6 3.6-0.2 1.2-1 1.4-1 1.4 0 0 0 1-0.2 1.7-0.6 1.6-3.4 1.5-4.4 0.8-2-1.4-1.4-8.7 3-7.5z"/>
										</g>
										<path class="s10" d="m688.1 194.8c0 0-10.6 8-13 8.7l2.7 13.7 17.9-10.6z"/>
									</g>
									<g>
										<path class="s5" d="m721.1 201c0 0 16.9 16.5 8.4 38.9 0 0-1.5 7.5-4.6 7.3-3.1-0.2-0.5-5.7-0.5-5.7 0 0-2.8 3.5-3.2 1.5-0.3-2 3.6-6 3.6-6 0 0-2.1-23.9-6.7-27.7z"/>
										<path class="s10" d="m711.1 192.3c0 0 9.8 1.7 19 18.4l-9.6 9.2-10.7-15z"/>
									</g>
									<g>
										<path class="s2" d="m706 235.8c-14.6 2.7-20.9 0-20.9-2.3l-0.6-29.8c-0.3-6.1 4.4-11.5 10.6-11.8l8.8-0.5c6.2-0.3 11.7 1.4 12 7.6l6.5 31.5c1.1 2.7-16.4 5.3-16.4 5.3z"/>
										<path class="s10" d="m703.9 191.4q1.1 0 2.2 0c-0.3 3.2-1.5 5.5-6 6.4-4.5 0.8-6.8-2.1-7.2-5.6q0.2 0 0.4 0 0.3-0.1 0.7-0.2 0.5-0.1 1.1-0.1z"/>
										<g>
											<path class="s5" d="m699.8 196.1c2.3-0.2 4.1-2.3 3.9-4.6l-0.5-6.1-8.5 0.7 0.4 6c0.2 2.4 2.3 4.2 4.7 4z"/>
											<path class="s7" d="m703.7 191.7c-1.2 0.5-2.7 0.9-4.2 1-1.6 0.1-3 0-4.3-0.3l-0.5-6.3 8.5-0.7z"/>
										</g>
									</g>
								</g>
								<g>
									<g>
										<g>
											<g>
												<g>
													<g>
														<g>
															<g>
																<g>
																	<g>
																		<g>
																			<g>
																				<g>
																					<path class="s5" d="m676.6 166.2c0 0-4-3.9-7.3-0.3-5.1 5.6-0.5 13.5 8.2 11.1z"/>
																					<path class="s7" d="m676.6 167.7c0 0-4.5-3-6.2 0.9-1.7 4 1.1 6.9 7.7 7.5l-0.8-8.4z"/>
																					<path class="s5" d="m722.9 164.3c0 0 3.7-4.2 7.2-0.9 6.3 5.9 1.7 13.4-7.2 11.7z"/>
																					<path class="s7" d="m723 165.8c0 0 4.2-3.4 6.2 0.4 2 3.8-0.5 7-7 8.1l0.1-8.4z"/>
																					<g>
																						<path class="s5" d="m692.3 143.7c-25.3 4.9-22.5 34.8-14.6 42.4 8.5 8.2 43.6 8.3 47.3-10.1q0.1-0.3 0.1-0.6c3.8-19.8-9.4-36.3-32.8-31.7z"/>
																					</g>
																				</g>
																			</g>
																		</g>
																	</g>
																</g>
															</g>
														</g>
													</g>
												</g>
											</g>
											<path class="s14" d="m722.1 160.5c-0.6-6.6-6.3-11.5-12.9-10.9l-23.2 1.9c-6.3 0.5-11.1 6.1-10.6 12.5l0.8 9c0.2 2.1-1.4 3.9-3.5 4.1l-2.2-18.9c-1.3-15.2 9.9-23.1 25.1-24.4h5c16.1-1.4 25.2 6.1 25.1 22.3l-0.1 17.4c-1.3 0.1-2.5-0.9-2.7-2.3z"/>
										</g>
										<path class="s14" d="m681.5 161.6c0 0 1.8-5.5 7.1-2.2z"/>
										<path class="s14" d="m705.3 166.7c0.1 1.2 1.2 2.1 2.4 2 1.2-0.2 2.1-1.2 1.9-2.4-0.1-1.3-1.2-2.1-2.4-2-1.2 0.1-2.1 1.2-1.9 2.4z"/>
										<path class="s14" d="m684 169.1c0.1 1.2 1.2 2 2.4 1.9 1.2-0.1 2.1-1.2 2-2.4-0.1-1.2-1.2-2.1-2.4-2-1.2 0.2-2.1 1.2-2 2.5z"/>
										<path class="s15" d="m699 171.5c0 0-0.5-1.9-2-1.8-1.6 0.1-1.5 2-1.5 2"/>
										<path class="s16" d="m709.1 170.6c0.1 0.9 2 1.6 4.1 1.3 2.2-0.2 3.8-1.2 3.7-2.1-0.1-1-1.9-1.6-4-1.4-2.2 0.2-3.9 1.2-3.8 2.2z"/>
										<path class="s16" d="m685.4 174.7c1-0.5 1.5-1 1.5-1.6-0.1-1-2-1.6-4.1-1.4-2.2 0.2-3.9 1.2-3.8 2.2 0.1 1 2 1.6 4.1 1.3 0.9 0 1.7-0.3 2.3-0.5z"/>
									</g>
									<path class="s14" d="m725.3 167.3c0 0 10.4-44.6-24.6-38.2 0 0-4.5-3.9-10.8-3.5l5.7 3.3c0 0-13-5.6-27.3 9.5 0 0-8.9-4-9.4-1.1-0.4 2.9 5 7.7 5 7.7 0 0-7.8-4.6-7.7-1.3 0.1 3.4 13.1 13.6 21.1 14.1 8.1 0.5 27.2-1.8 31.8-9.3 0 0 7.4 10.7 14.4 10z"/>
									<path class="s14" d="m711.5 158.5c0 0-2.9-5.1-7.4-0.7z"/>
									<path class="s15" d="m703.1 172.8c0 0-6 8.2-11.2 0.2"/>
								</g>
							</g>
						</g>
						<g>
							<g>
								<path class="s20" d="m738.3 217.1l-113 26.7c3.3 49.8 27.5 74.9 79.3 62.7 13.6-3.2 24.4-9.3 32.1-17.5 16.3-17.5 18.1-44.2 1.6-71.9z"/>
							</g>
							<g>
								<path class="s21" d="m736.7 289c-7.7 8.1-18.5 14.3-32.1 17.5-51.8 12.2-76-12.9-79.3-62.7l29.2-6.9c-8.9 21.5 13.8 48.2 35.2 54.7 14.7 4.2 31.5 1 47-2.6z"/>
							</g>
							<g>
								<path class="s22" d="m739.1 218.2q0 0-0.1 0.5c0 0.3 0.1 0.8 0 1.4-0.1 0.6-0.1 1.4-0.2 2.3-0.2 0.8-0.3 1.9-0.7 2.9-0.5 2.2-1.6 4.8-3.3 7.3-1.8 2.6-4.4 5-7.5 6.8-3.1 1.9-6.8 3.1-10.7 3.7-3.9 0.6-8 0.5-11.9-0.1-4-0.7-7.8-1.9-11.4-3.5-1.7-0.8-3.4-1.8-4.9-2.8-0.8-0.5-1.6-1-2.3-1.6q-0.5-0.4-1.1-0.8l-0.2-0.2-0.1-0.1-0.1-0.1c0 0 0 0 0 0 0 0-0.1 0 0 0l-0.4 0.5q-0.3 0.6-0.7 1.2c-1.1 1.6-2.4 3-3.8 4.4-2.8 2.7-6.2 4.9-9.7 6.8-7 3.7-14.8 5.9-21.9 6.4-3.6 0.3-7 0.1-10-0.4-2.9-0.6-5.5-1.5-7.5-2.7-2-1.2-3.4-2.4-4.2-3.4-0.9-0.9-1.2-1.5-1.2-1.5-0.9-1.3 0.5-2 1.3-1 0 0 0.3 0.6 1.1 1.4 0.8 0.8 2.1 1.9 3.9 2.9 3.6 2 9.6 3.1 16.4 2.3 6.7-0.6 14.1-2.9 20.7-6.6 3.3-1.8 6.4-3.9 8.9-6.4 1.3-1.3 2.4-2.6 3.4-4q0.3-0.5 0.6-1l0.2-0.3 0.1-0.1v-0.1l0.1-0.1 0.6-1.2 0.6-1.2 0.3-0.6 0.1-0.3 0.1-0.1c0 0 0 0 0.1 0.1q0.9 0.8 1.7 1.5l0.9 0.8c0.3 0.2 0.6 0.6 0.8 0.6q0.4 0.4 0.9 0.8c0.7 0.5 1.4 1 2.1 1.5 1.4 1 3 1.8 4.6 2.6 3.2 1.6 6.8 2.8 10.5 3.4 3.6 0.7 7.4 0.8 11 0.4 3.6-0.6 7.1-1.5 9.9-3.2 2.9-1.6 5.3-3.7 7-5.9 1.6-2.2 2.7-4.6 3.2-6.6 0.4-1 0.5-1.9 0.7-2.7 0.1-0.8 0.2-1.5 0.3-2.1 0.1-0.6 0.1-1.1 0.1-1.4q0-0.4 0-0.4c0.2-1.4 1.6-1.5 1.7 0z"/>
							</g>
							<g>
								<path class="s22" d="m635 279c-1.5 1.1-3.7 1.8-6.6 2-20.9 0.7-9-29.5-2.5-37.3l0.2 0.6q0.1 0.2 0.2 0.4c4.2 6.8 17.8 27.6 8.7 34.3z"/>
							</g>
							<g>
								<path class="s22" d="m756.2 249.6q-1.4 1.1-3.3 2c-18.1 7.6-15.4-21.7-14.4-32.2q0-0.7 0.1-1.2 0-0.2 0-0.5l-0.1-0.6q0.8 0.3 1.8 0.9c9.5 5.3 27.7 22.6 15.9 31.6z"/>
							</g>
							<g>
								<path class="s22" d="m701 264.5q0 0.2 0 0.3c-1.6 7.4-9 11.2-16.1 7.7-12.7-6.1-7.3-20.9-3.2-32.7 1-2.9 1.9-5.7 2.5-8l0.2 0.1c3.7 4.8 7.7 9.5 11.2 14.5 3.6 5.2 6.7 11.5 5.4 18.1z"/>
							</g>
							<g style="opacity: .2">
								<path class="s3" d="m701 264.8c-1.6 7.4-9 11.2-16.1 7.7-12.7-6.1-7.3-20.9-3.2-32.7-1.4 12.4 6.3 24.3 19.3 25z"/>
							</g>
							<g>
								<path class="s23" d=""/>
							</g>
							<g>
								<path class="s23" d=""/>
							</g>
							<g>
								<g>
									<path class="s24" d="m728.2 258.8c0 0-3.3 1.5-5.5 2-2.2 0.5-5.9 0.6-5.9 0.6-0.1 0-0.4-1.5-0.3-1.6 0 0 3.3-1.5 5.5-2 2.2-0.6 5.8-0.6 5.8-0.6 0.2 0.1 0.5 1.4 0.4 1.6z"/>
								</g>
								<g>
									<path class="s24" d="m722.3 269.5c0 0-2.2 1.3-3.7 1.7-1.6 0.3-4.1 0.2-4.1 0.2-0.1-0.1-0.5-1.6-0.4-1.6 0 0 2.2-1.3 3.8-1.7 1.5-0.4 4.1-0.2 4.1-0.2 0.1 0.1 0.4 1.5 0.3 1.6z"/>
								</g>
								<g>
									<path class="s24" d="m737.4 265.9c0 0-1.9 1.3-3.3 1.6-1.4 0.3-3.7 0.1-3.7 0.1 0 0-0.4-1.5-0.3-1.6 0 0 1.9-1.2 3.3-1.6 1.3-0.3 3.6-0.1 3.6-0.1 0.2 0.2 0.5 1.5 0.4 1.6z"/>
								</g>
								<g>
									<path class="s24" d="m655.5 263.8c0 0-2.8 1.4-4.7 1.8-1.9 0.5-4.9 0.4-4.9 0.4-0.2 0-0.5-1.5-0.4-1.6 0 0 2.7-1.4 4.6-1.8 1.9-0.5 5-0.4 5-0.4 0.1 0.1 0.4 1.4 0.4 1.6z"/>
								</g>
								<g>
									<path class="s24" d="m667.6 267.5c0 0-3.1 1.4-5.1 1.9-2.1 0.5-5.4 0.5-5.4 0.5-0.1 0-0.5-1.5-0.4-1.6 0 0 3-1.4 5.1-1.9 2-0.5 5.4-0.5 5.4-0.5 0.1 0.1 0.4 1.4 0.4 1.6z"/>
								</g>
								<g>
									<path class="s24" d="m655.5 275.9c0 0-2.2 1.3-3.7 1.7-1.6 0.3-4.1 0.2-4.1 0.2-0.1 0-0.5-1.6-0.4-1.6 0 0 2.2-1.3 3.8-1.7 1.5-0.3 4.1-0.2 4.1-0.2 0.1 0.2 0.4 1.5 0.3 1.6z"/>
								</g>
								<g>
									<path class="s24" d="m688.2 291.6c0 0-3.5 1.6-5.9 2.2-2.4 0.5-6.3 0.7-6.3 0.7-0.1 0-0.5-1.5-0.4-1.6 0 0 3.6-1.6 6-2.2 2.3-0.5 6.2-0.7 6.2-0.7 0.2 0.1 0.5 1.5 0.4 1.6z"/>
								</g>
								<g>
									<path class="s24" d="m687.9 282.3c0 0-1.9 1.2-3.3 1.6-1.4 0.3-3.7 0-3.7 0 0 0-0.4-1.5-0.3-1.5 0 0 1.9-1.3 3.3-1.6 1.4-0.3 3.7-0.1 3.7-0.1 0.1 0.2 0.4 1.5 0.3 1.6z"/>
								</g>
								<g>
									<path class="s24" d="m704 286.9c0 0-2.8 1.5-4.6 1.9-1.9 0.4-5 0.4-5 0.4-0.1 0-0.5-1.5-0.4-1.6 0 0 2.8-1.4 4.6-1.9 1.9-0.4 5-0.4 5-0.4 0.1 0.2 0.5 1.5 0.4 1.6z"/>
								</g>
							</g>
							<g style="opacity: .2">
								<path class="s3" d="m635 279c-1.5 1.1-3.7 1.8-6.6 2-20.9 0.7-9-29.5-2.5-37.3l0.2 0.6q0.1 0.2 0.2 0.4c-4.5 13.3-2.9 27.8 8.7 34.3z"/>
							</g>
						</g>
					</g>
					<g>
						<g>
							<path class="s25" d="m-40.7 428.8c-12-33.4 25.7-69.4 48.8-33.4 4.3-23.1 37.7-15.4 39.4 6 1.7-24 23.2-46.2 47.2-33.4 23.1 11.1 29.9 38.6 23.9 60.8h-0.8c-52.3 0-105.4 0-158.5 0z"/>
						</g>
						<g>
							<path fill-rule="evenodd" class="s0" d="m285.3 749.2c-80.7 80.7-211.3 80.7-292.1 0-80.7-80.8-80.7-211.3 0-292.1 80.8-80.8 211.4-80.8 292.1 0 80.8 80.8 80.8 211.3 0 292.1z"/>
							<g>
								<path class="s1" d="m192.7 771.1c-15.4-3.2-26.5 6.1-43.5 7.8-17 1.7-27.7-29.8-44.5-28.8-16.8 1.1-12.6 9.7-30.6 17.8-17.9 8.1-35.3 16.6-35.3 16.6 0 0 12.8 14 79.9 24.2 67.2 10.1 104.8-17 104.8-17 0 0-15.5-17.5-30.8-20.6z"/>
								<path class="s1" d="m323.5 639.1c-19.4-10.3-1.4-56.2-18.2-70.8-16.8-14.6-35.6-19.4-52.1-24.1-16.5-4.6-42 6.8-42 6.8-23.2 7-30.1 53.5-17.3 64.1 12.8 10.7 36.8 4.7 38.5 6.3 1.7 1.6 5.1 32.1 1.4 42-3.6 9.9-17.9 26-23 37.8-5 11.8 0.7 48.6 16.6 43.4 16-5.2 25.4-15.4 35.2-18 9.7-2.6 15.6-10.5 19.3-20.1 3.8-9.7 61.1-57 41.6-67.4z"/>
								<path class="s1" d="m-18.4 632.1c14.5-0.6 29.4 20.8 24.8 3.8-4.5-17-21.7-18-23.9-19.9-2.1-1.9-3.2-11.2 7.2-9.8 10.3 1.4 3.6 0.3 10.3 1.4 6.8 1.1 19.4-15.4 16.6-19.7-2.8-4.3 0 0 11.3-13.5 11.4-13.4 21.9-12 28.8-15.4 6.9-3.4 31.4-0.3 32.6-11.7 1.1-11.4-1.8-31.6-3.1-40.3-1.2-8.6-12.4-13.2-22.5-17.1-10.1-3.8-15.2 25.6-15.2 25.6 0 0-3.3-17.5-2.6-31.8 0.7-14.3 20.1-12.6 25.6-16.2 5.6-3.6 15-2.1 14.4-20.8-0.5-18.8-18.2-5-30.4-10.7-12.2-5.7 8.9-25.3 8.9-25.3-146.5 49.9-131.1 208.4-131.1 208.4 0 0 33.8 13.6 48.3 13z"/>
								<path class="s1" d="m48.9 750.1c0-9.5 16.2-18.8 22.9-25.5 6.8-6.8 6.8-28.3 5.4-33.8-1.3-5.5-25.6-13.1-25.6-13.1 0 0-18.8-7-24.2-20.3-5.4-13.3-9.4-4.2-24.2-7-14.8-2.9-24.3-7.9-24.3-7.9-3.6 26.5 4.1 44.4 12.2 49.8 8 5.4 4 28.2 8 37.1 4.1 8.9 40.4 28.8 49.8 30.2 9.5 1.3 0 0 0-9.5z"/>
								<path class="s1" d="m98.8 487.6c0 0 15.2 1.4 28.4 0 13.3-1.3 14.6 0 21.4-6.7 6.7-6.7 5.3-22.9 9.4-35 4-12.1 1.3-31.4-5.4-35.2-6.7-3.8-25.4 11-25.4 11 0 0-15 11.8-19 18.7-4.1 6.8 10.7 12.2 0 24.3-10.8 12.2-9.4 22.9-9.4 22.9z"/>
								<path class="s1" d="m213.2 505.1c8.1-10.7 20.6-10.9 29.8-16.9 9.2-6 3.7-26.2 14.6-30.2 10.8-4 19.4-8.9 19.4-8.9 0 0-19.4-20.7-44.8-30.4 0 0-18.2 25.6-16.6 30.4 1.6 4.9 3.8 14.3-4 23.7-7.8 9.4-17.1-0.1-19.2 15.4-2.1 15.6 0.4 17.7 7.2 32.8 6.9 15.1 5.6-5.1 13.6-15.9z"/>
								<path class="s1" d="m237.2 511.3c-13.8 8.9-10.6 18.4-10.6 18.4 6.7-2.4 17.5 3.7 31 0 4.5-1.3 9-3.5 13.1-5.8 8-4.6 14.4-9.2 15.4-6.1 1.6 4.6 5.2 12.9 11.7 25.3 6.5 12.5 23.1 25.3 25.5 33 2.5 7.8 21.9 10.4 21.9 10.4-6.7-95.1-68.2-137.4-68.2-137.4-2.2 15.4-8.6 39.9-12.2 46.6-3.6 6.7-13.9 6.7-27.6 15.6z"/>
								<path class="s1" d="m272.7 529.7c-4.3-0.3-8.4 3.1-8.4 3.1-2.3 1.6 2.5 4.6 9.6 8.7 7.2 4 16.1 6.5 20.5 5.2 4.3-1.2-4.7-3.4-8.7-6.8-3.9-3.4-8.7-9.9-13-10.2z"/>
								<path class="s1" d="m161.2 470.3c2.5 0.3 6.5-6.2 10.9-14.6 4.3-8.4 2.7-11.8 1.5-13-1.2-1.2-6 0.9-7.1 2.5 0 0-5.3 6.5-5.3 12.1 0 5.5-2.5 12.6 0 13z"/>
								<path class="s1" d="m295.5 718.5c-4.9 8.1-18 14-18.5 21.5-0.5 7.5 0 17.1 0 17.1 0 0 31.1-25.8 48.6-64.8 0 0-18.9 5.8-23.6 9-4.7 3.1-1.6 9.1-6.5 17.2z"/>
							</g>
						</g>
						<g>
							<path class="s25" d="m411.9 486.1c6.3-28-25-45-43.7-22.5-6.3-28.7-48.8-46.2-60-11.2-17.5-50-82.5-6.3-67.5 33.7 57.5 0 113.7 0 171.2 0z"/>
						</g>
					</g>
					<g>
						<path class="s25" d="m143.9 166.5c0.5-7-0.5-14 7.5-18 7-4 12.5-0.5 17.5 4.5-1-33 41-35.5 41.5-1.5 10-1.5 13 6 12.5 14.5z"/>
					</g>
					<g>
						<path class="s25" d="m431.1 102.3c-1.9-16.9 15.7-31.3 29.5-17.5-1.3-10.1-0.7-28.3 9.4-34.5 15-10.1 23.8 12.5 26.3 23.8 5.6-15.1 21.3 3.1 22.6 11.3 17.5-10.1 34.5 1.2 36.3 18.2z"/>
					</g>
					<g>
						<path class="s22" d="m193.5 328.4c9.1 5.5 14.8 26.3 1.4 35-13.3 8.8-31.9-7.6-31.5-17 0.4-9.4 13.5-28.1 30.1-18z"/>
						<path class="s22" d="m151.7 394.7c3.4 27.6 45.7 39.8 66 38.5 20.3-1.2 39.8-21.9 39.2-28-0.1-1.1-0.6-2-1.2-2.8-3.1-3.3-10.8-3-11.2-3 0.4-0.2 5.3-2.6 4-6.7-1.3-4.1-9.4-5-9.4-5 0 0 2.1-4.5-0.1-6.8-3.9-3.9-25.8 0.7-39.1-3.8-13.3-4.4-10.8-15.6-10.8-15.6l-20.6-4.6c3.2 4.9-8.6 11.9-14.2 23.3-2 4.2-3.2 9-2.6 14.5z"/>
						<path class="s26" d="m183.8 406.2c7.5 8.5 28.2 15.2 41.6 7.6 5.7-3.3 8.2-7.2 8.1-9.9-0.1-1.5-0.9-2.6-2.3-3.3 4.5-2.9 4.1-9.6-1.2-9.6 1.8-4.8-5.9-6.2-17.7-3.1-11.9 3.2-27.5-10.4-27.5-10.4-1.2 0.5-3.3 2.6-4.8 5.8-2.6 5.6-3.7 14.2 3.8 22.9z"/>
						<path class="s26" d="m176 347.3c1.4 1.7-1.1 6.6-6.9 6.1-5.8-0.4-13.6-6.7-13-9.9 0.5-3.3 2.7-4.1 3.1-2.5q0.5 2.3 4.5 3.1c2.6 0.6 3.7-7.7 12.3 3.2z"/>
						<path class="s14" d="m179 343.5c-0.5 0.5-1.2 0.6-1.7 0.3-0.4-0.3-0.7-0.9-0.8-1.6 0-0.6 0.1-1.3 0.2-2 0.2-0.7 0.5-1.4 1-2 1.2-1.3 2.5-0.6 2.7 1 0.2 1.3-0.4 3.5-1.4 4.3z"/>
						<path class="s14" d="m170.6 340.3c-0.6 0.2-1.3 0.1-1.7-0.4-0.3-0.5-0.3-1.2-0.2-1.9 0.1-0.6 0.4-1.3 0.8-1.9 0.4-0.6 0.9-1.2 1.4-1.5 1.5-0.9 2.5 0.3 2.2 2-0.2 1.3-1.4 3.2-2.5 3.7z"/>
						<path class="s22" d="m184.2 326.1c4-0.8 8.3-0.1 11.9 1.8 1.9 1.1 3.7 2.6 4.4 4.7q-0.9-0.4-1.8-0.8c2.4 1.8 3.9 4.6 4.2 7.6q-7-4.4-14.1-8.7"/>
						<path class="s27" d="m183.8 406.2c7.5 8.5 28.2 15.2 41.6 7.6 5.7-3.3 8.2-7.2 8.1-9.9-3.7 4.5-9.8 6.8-15.7 7.1-12 0.5-23.6-6-31.2-15.3-3-3.7-5.4-7.8-6.6-12.4-2.6 5.6-3.7 14.2 3.8 22.9z"/>
						<path class="s26" d="m151.7 394.7c3.4 27.6 45.7 39.8 66 38.5 20.3-1.2 39.8-21.9 39.2-28-0.1-1.1-0.6-2-1.2-2.8q-0.6 0.2-1 0.5c-1.5 1.1-2.3 2.9-2.9 4.7-0.6 1.7-1.1 3.6-2.4 4.9-0.7-0.6-0.9-1.7-1.2-2.7-0.3-1-1.1-2-2.1-1.9-0.9 0.2-1.4 1.2-1.7 2q-0.7 2.1-1.3 4.2c-0.2-0.8-1.3-1.7-2.3-1.5-1.4 0.2-2.3 1.6-3.1 2.8-2.3 3.4-5 6.8-8.6 8.8-4.8 2.9-10.6 3.2-16.2 3-8.5-0.4-17.1-1.9-24.1-6.7-2.1-1.4-4.1-3.2-6.4-4.3-2.3-1.2-5.2-1.7-7.5-0.5-0.7-2.8-2.6-5.3-5-6.8-0.7-0.5-1.8-0.8-2.2-0.1-5.2-5.6-10.5-11.6-12.6-19-0.8-3.1-1.1-6.4-0.8-9.6-2 4.2-3.2 9-2.6 14.5z"/>
						<path class="s26" d="m184.5 335.2c-0.4 0.6-5.1-2.1-4.2-3.1 0.8-1 5.2 1.8 4.2 3.1z"/>
						<path class="s26" d="m175.7 330.3c-0.1 0.7-5.5 0.7-5.3-0.6 0.3-1.3 5.5-1.1 5.3 0.6z"/>
					</g>
					<g>
						<path class="s10" d="m112.6 332.3c-0.2 0-0.4-0.1-0.4-0.3-1.3-5.2-6.9-10.8-16.8-11.7-4.1-0.3-8.4 0.1-12.4 0.5-3.3 0.4-6.6 0.7-10 0.7-7.1-0.1-15.9-2.8-19.3-9.9q-0.8-1.7-1.1-3.5c-2.1-0.2-4.3-0.8-6.4-1.7-6.1-2.6-9.8-7.9-9.9-14 0-3.8 1.5-7.7 4.5-11.2 2.5-3.1 6-5.8 9.6-7.5 0.3-0.1 0.5 0 0.6 0.2 0.1 0.2 0 0.5-0.2 0.6-6.8 3.2-13.7 10.3-13.6 17.9 0.1 5.8 3.6 10.7 9.4 13.2 1.9 0.9 3.9 1.4 5.9 1.6-0.3-3.2 0.5-6.4 2.3-9.1 2.1-3 5.4-4.7 8.4-4.4 1.7 0.2 3.5 1.4 4.5 3 0.9 1.4 1.1 2.9 0.6 4.3-0.4 1.3-1.4 2.3-2.1 2.9-3.3 3-7.9 4.5-12.7 4.2q0.3 1.6 1 3.1c3.2 6.8 11.7 9.3 18.5 9.4 3.3 0.1 6.7-0.3 9.9-0.6 4.1-0.4 8.4-0.9 12.6-0.5 3.9 0.3 7.8 1.6 10.9 3.5 3.5 2.3 5.8 5.3 6.6 8.8 0.1 0.2-0.1 0.5-0.3 0.5q-0.1 0-0.1 0zm-59.2-25c4.6 0.2 9-1.1 12.2-4 0.6-0.6 1.5-1.5 1.9-2.6 0.4-1.1 0.2-2.4-0.5-3.5-0.9-1.4-2.4-2.4-3.9-2.6-2.7-0.3-5.7 1.3-7.6 4-1.7 2.5-2.4 5.6-2.1 8.7z"/>
						<path class="s0" d="m112.2 226.9q-1.2 2.2-2.2 4.3-0.6 1.3-1.2 2.6-0.6 1.2-1.1 2.4c-4.4 10.5-6.6 20.3-7.7 27.7-1.3 8.5-1.1 14-1.1 14 0 0-5.3-0.9-14.1-1.2-9.9-0.4-24.2-0.3-40.5 2.3q-1.7 0.3-3.6 0.6c8.2-8.9 16.1-23.4 20.8-35.5 1.4-3.6 2.5-7 3.3-10 2.6 0.2 5.6 0.2 8.6 0.1 9.2-0.6 19.5-2.5 27.2-4.3q0.6-0.2 1.3-0.3c6.1-1.4 10.3-2.7 10.3-2.7z"/>
						<path class="s1" d="m98.9 277.9c0 0-23.7-3.8-54.6 1.1l64.7-49.5 1 1.7c-11.9 24.4-11.1 46.7-11.1 46.7z"/>
						<path class="s22" d="m92.4 242.2l-17.7 4.5-9.2 16.1c0 0 21.8-5.4 21.9-5.4 0.1 0.1 5-15.2 5-15.2z"/>
						<path class="s26" d="m44.8 277.9c0 0-0.8-9.5-3.2-7.6-2.3 1.8-7.5 9-6.3 10 1.2 0.9 6.9 0 6.9 0 0 0 0.7 7.6 2.3 7.7 1.7 0.1 7.7-6.7 7.7-8.4 0.1-1.7-7.4-1.7-7.4-1.7z"/>
						<path class="s22" d="m41.8 278.5c-0.3 0.4-0.6 0.9-0.7 1.4-0.1 0.5 0 1.1 0.3 1.5 0.2 0.4 0.7 0.5 1 0.6 0.4 0 0.9-0.1 1.2-0.2 0.9-0.3 1.8-0.9 2.3-1.8 0.5-0.9 0.6-2.1 0.1-2.9-1.2-1.9-3.4 0.3-4.2 1.4z"/>
						<path class="s26" d="m36.8 290.5c0 0-2.6-2.9-3.6-2.2-1 0.6-0.5 5.3 0.3 5.5 0.9 0.1 3.3-2 3.3-2 0 0 2.5 2.4 3.5 2.2 0.9-0.3 0.9-4.2 0.3-5-0.7-0.8-3.8 1.5-3.8 1.5z"/>
						<path class="s26" d="m59.8 317.3c0 0-3.9 0.3-4 1.4-0.1 1.2 3.9 3.7 4.5 3.2 0.7-0.6 0.5-3.8 0.5-3.8 0 0 3.5-0.5 3.9-1.4 0.4-0.9-2.7-3.3-3.7-3.3-1 0-1.2 3.9-1.2 3.9z"/>
						<path class="s26" d="m38.2 298.8c0 0-3.9-0.8-4.3 0.3-0.4 1.1 2.8 4.5 3.6 4.2 0.7-0.4 1.4-3.6 1.4-3.6 0 0 3.5 0.5 4.1-0.3 0.6-0.8-1.7-3.9-2.7-4.2-1-0.2-2.1 3.6-2.1 3.6z"/>
						<path class="s26" d="m44.8 304.5c0 0-3.8 0.8-3.7 2 0.1 1.2 4.4 3.1 4.9 2.4 0.6-0.6-0.1-3.8-0.1-3.8 0 0 3.4-1 3.7-1.9 0.2-1-3.2-2.9-4.2-2.8-1 0.2-0.6 4.1-0.6 4.1z"/>
						<path class="s26" d="m72 320.9c0 0-3.1 2.4-2.5 3.5 0.6 1 5.3 0.8 5.5 0 0.2-0.9-1.8-3.4-1.8-3.4 0 0 2.6-2.4 2.4-3.4-0.2-0.9-4.1-1.2-4.9-0.6-0.8 0.6 1.3 3.9 1.3 3.9z"/>
						<path class="s26" d="m60.5 307c0 0-1.3 3.7-0.3 4.3 1.1 0.5 5-2.1 4.7-2.9-0.3-0.9-3.3-2-3.3-2 0 0 0.9-3.4 0.3-4.1-0.7-0.7-4.1 1.2-4.5 2.1-0.4 0.9 3.1 2.6 3.1 2.6z"/>
						<path class="s26" d="m84.8 320.1c0 0-2.2 3.2-1.3 4 0.9 0.9 5.3-0.7 5.2-1.6 0-0.8-2.7-2.7-2.7-2.7 0 0 1.8-3.1 1.3-3.9-0.4-0.9-4.2 0.1-4.9 0.9-0.6 0.8 2.4 3.3 2.4 3.3z"/>
						<path class="s26" d="m57.5 296.5c0 0 0.4 3.9 1.6 3.9 1.2 0.1 3.5-4 2.9-4.6-0.6-0.6-3.8-0.3-3.8-0.3 0 0-0.6-3.5-1.5-3.9-0.9-0.3-3.2 2.9-3.2 3.9 0.1 1 4 1 4 1z"/>
						<path class="s2" d="m73.4 234.2c0 0.9-0.2 1.9-0.6 2.8-0.8 1.5-2.1 2.8-3.5 3.8-2.3 1.7-5 3-7.8 3.3 1.4-3.6 2.5-7 3.3-10 2.6 0.2 5.6 0.2 8.6 0.1z"/>
						<path class="s10" d="m98.9 277.9c0 0-5.3-0.9-14.1-1.2 0.4-4.3 3.9-7.8 7.6-10 2.1-1.3 4.5-2.4 7-2.7q0.3-0.1 0.6-0.1c-1.3 8.5-1.1 14-1.1 14z"/>
						<path class="s10" d="m112.2 226.9q-1.2 2.2-2.2 4.3-0.6 1.3-1.2 2.6-0.6 1.2-1.1 2.4l-11.3 2.9 4.2-9.2q0.6-0.2 1.3-0.3c6.1-1.4 10.3-2.7 10.3-2.7z"/>
						<path class="s22" d="m97 278.6c0.4 0.4 1.1 0.6 1.7 0.6 0.7 0 1.5-0.3 1.9-0.9q0.2-0.4 0.2-0.9c0-0.8-0.3-1.5-0.9-2-1-0.7-2.5-0.2-3 0.9-0.2 0.4-0.4 1.4-0.2 1.9q0.1 0.2 0.3 0.4z"/>
						<path class="s22" d="m65.9 236.5c1-0.3 1.7-1.2 1.8-2.1 0.1-0.8-0.2-1.7-0.9-2.2-0.7-0.5-1.6-0.7-2.3-0.4-1.2 0.4-2.2 1.3-2.1 2.6 0.2 1.6 2.1 2.5 3.5 2.1z"/>
						<path class="s22" d="m98.6 277.6c-1.2 1.7-2.3 3.5-2.7 5.5-0.3 2 0.2 4.3 1.9 5.6 0.4-0.7 1.2-1.2 2-1.4-0.8-0.4-1.4-1.2-1.7-2.1-0.3-0.8-0.3-1.8-0.2-2.7 0.2-1.9 0.8-3.8 1.9-5.4-0.2 1.5-0.2 3.1 0.3 4.5 0.4 1.2 1.1 2.3 1.5 3.5 0.9 2.1 1 4.5 0.4 6.7q0.9-1.1 1.8-2.1c0.1-0.1 0.2-0.3 0.3-0.4q0-0.2 0-0.4c-0.6-4.4-3.1-8.2-4.5-12.4"/>
						<path class="s22" d="m63.6 234.3c-1 0.3-1.7 1.1-2.4 1.9-1.6 2-2.8 4.4-4.8 6.2-2.3 1.9-5.3 2.8-7.2 5.1q0-2.4 0-4.8c0-0.2 0-0.3 0.1-0.4 0.1-0.1 0.2-0.1 0.4-0.2 3.6-0.7 6.9-2.6 9.5-5.2 0.7-0.7 1.3-1.4 2.1-2 0.8-0.6 1.8-1 2.7-1-0.8-0.9-2.3-0.8-3.5-0.5-2.3 0.6-4.5 2.1-6.9 2.4-1.3 0.1-2.5-0.1-3.8-0.2 0.6-0.9 0.9-2 1-3.1 1.5 0.9 3.3 0.8 4.9 0.5 1.6-0.3 3.2-0.9 4.9-1 1.4-0.1 2.9 0.1 4.2 0.6 0.8 0.4 1.6 0.8 2.1 1.4"/>
						<path class="s26" d="m87.4 257.4c0.1 0.1 5-15.2 5-15.2l-26.9 20.6c0 0 21.8-5.4 21.9-5.4z"/>
					</g>
					<g>
						<g>
							<g>
								<path class="s2" d="m618.7 348.3c-2-0.2-3.6 0.9-4.4 2.5-0.7 1.8-0.9 3.9-0.8 5.9 0.1 1.9 0.5 3.9 1.1 5.8 0.8 2.2 1.8 4.4 3 6.5 1.2 2.2 2.7 4.3 4.2 6.4 0.3 0.5 0.9 0.1 0.7-0.4q-0.1 0-0.1-0.1c0.3 0 0.5-0.2 0.6-0.4 0.8-2.1 1.3-4.2 1.8-6.4 0.4-2 0.8-3.9 1-5.9 0.4-3.6 0.4-8.2-2.3-11.4-1.2-1.4-2.9-2.4-4.8-2.5z"/>
								<path class="s28" d="m615.2 364c0.6 1.7 1.5 3.4 2.4 5 1.2 2.2 2.7 4.3 4.2 6.4 0.3 0.5 0.9 0.1 0.7-0.4q-0.1 0-0.1-0.1c0.3 0 0.5-0.2 0.6-0.4 0.8-2.1 1.3-4.2 1.8-6.4 0.4-2 0.8-3.9 1-5.9 0.3-2.7 0.3-5.9-0.7-8.7-1.3 4.5-5.4 8.2-9.9 10.5z"/>
							</g>
							<g>
								<g>
									<path class="s22" d="m627 371.5q-0.1-0.2-0.3-0.4c-3.1-4-6.5-7.7-10-11.2-5.8-6-12-11.5-17.8-17.6-0.3-0.3-0.7-0.5-1-0.3-0.3 0.2-0.4 0.7-0.2 1.1q6.7 12.4 13.4 24.8c1.7 3.1 4.8 4.8 7.9 5.6 1.6 0.4 8.1 1.9 8.5-0.5 0.1-0.5-0.2-1.1-0.5-1.5z"/>
									<g>
										<path class="s26" d="m602.7 346.1q-1.9-1.9-3.8-3.8c-0.3-0.3-0.7-0.5-1-0.3-0.3 0.2-0.4 0.7-0.2 1.1q1.2 2.3 2.5 4.7 1.2-0.9 2.5-1.7z"/>
										<path class="s26" d="m608.4 351.7q-1.2-1.1-2.3-2.2-1.7 1.4-3.5 2.8 0.7 1.3 1.4 2.5 2.1-1.6 4.4-3.1z"/>
										<path class="s26" d="m614.4 357.8q0.1 0 0.2-0.1-1.2-1.1-2.4-2.3-0.3 0.2-0.6 0.4-2.7 1.5-5.3 3.2 0.6 1.2 1.2 2.4c2.2-1.3 4.5-2.5 6.9-3.6z"/>
										<path class="s26" d="m621 364.9q0.2 0 0.4-0.1-1.6-1.7-3.2-3.4-0.8 0.4-1.7 0.8c-2.3 1.1-4.5 2.2-6.8 3.2q0.7 1.2 1.4 2.5 0.2 0.4 0.4 0.8c3.1-1.4 6.4-2.5 9.5-3.8z"/>
										<path class="s26" d="m626.7 371.1q-1.1-1.4-2.2-2.8-0.9 0.4-1.7 0.7c-2.7 1-5.4 1.8-8.1 2.7 1.3 0.9 2.8 1.4 4.3 1.8 1.6 0.4 8.1 1.9 8.5-0.5 0.1-0.5-0.2-1.1-0.5-1.5q-0.1-0.2-0.3-0.4z"/>
									</g>
								</g>
							</g>
							<g>
								<g>
									<path class="s11" d="m636.7 363.3q-1.5-1.9-3.2-3.6c-2-1.8-4.3-3.5-6.9-4.4-2.8-0.9-5.9-0.6-8.8-1-0.5-0.1-1 0.2-1 0.8 0 3.8-0.1 7.6-0.2 11.4-0.1 0.4-0.1 0.7 0.1 1.1 0.4 1.3 2.2 1.4 3.2 2.1 1.2 0.9 2.2 2 3 3.2 5 7.4 10 14.8 15 22.2 0.5 0.6 0.9 1.3 1.6 1.7 0.9 0.6 2.2 0.6 3.4 0.5 2.9-0.3 8.6-0.5 7.7-4.7-1.8-8.6-5.3-16.8-10.1-24.1-1.2-1.7-2.5-3.5-3.8-5.2z"/>
									<g>
										<path class="s12" d="m623.4 368.6c2-4 4.1-8 5.9-12q-1.3-0.8-2.7-1.3c-1.2-0.4-2.4-0.5-3.7-0.6-0.8 5-1.7 10-2.6 15q-0.1 0.1-0.1 0.3 1 0.7 1.7 1.6 0.8-1.5 1.5-3z"/>
										<path class="s12" d="m627.7 373.6c3.4-3 6.8-5.9 10.1-8.8q-0.6-0.8-1.1-1.5-1.5-1.9-3.2-3.6-1.1-1-2.3-1.9-2.5 6-5.3 11.8-1 2.3-2.2 4.5 0.7 0.9 1.3 1.9 1.3-1.2 2.7-2.4z"/>
										<path class="s12" d="m632 377.7q4.9-3.4 10.3-6.4-0.9-1.4-1.8-2.8-0.6-0.8-1.1-1.6-4.8 4.7-9.7 9.2-1.4 1.3-2.9 2.6 0.7 0.9 1.3 1.9 1.9-1.5 3.9-2.9z"/>
										<path class="s12" d="m635.4 382.5c3.4-1.8 6.7-3.5 9.9-5.4q-1-2.2-2.2-4.3c-3.7 2.2-7.1 5-10.5 7.8q-1.4 1.2-2.9 2.3 0.6 0.9 1.2 1.8 2.3-1.1 4.5-2.2z"/>
										<path class="s12" d="m637.2 387.7c3.6-1.5 7-3.4 10.5-5.1q-0.6-1.6-1.3-3.1-4.4 2.9-9.1 5.4-2.3 1.3-4.6 2.5 0.6 0.9 1.2 1.7 1.7-0.7 3.3-1.4z"/>
										<path class="s12" d="m640.1 397.1c0.8 0.3 1.8 0.3 2.8 0.2 2.9-0.3 8.6-0.5 7.7-4.7q-0.3-1.4-0.6-2.8c-3.3 2.5-6.4 5.2-9.9 7.3z"/>
										<path class="s12" d="m637.7 394.8c4.1-2.2 7.6-5.2 11.6-7.4q-0.4-1.4-0.9-2.7c-3.7 1.8-7.2 4.1-11 5.9q-0.9 0.4-1.9 0.9 1.1 1.6 2.2 3.3 0 0 0 0z"/>
										<path class="s12" d="m620.8 354.5c-1 0-2-0.1-3-0.2-0.5-0.1-1 0.2-1 0.8 0 3.8-0.1 7.6-0.2 11.4-0.1 0.4-0.1 0.7 0.1 1.1 0.2 0.6 0.6 0.9 1.2 1.2 0.9-4.8 2-9.5 2.9-14.3z"/>
									</g>
								</g>
								<path class="s29" d="m640.8 379.6c-1.6-2.6-2.7-5.4-4.2-8-1.6-2.9-3.8-4.7-6.7-6.4-3.5-2.2-8.7-5.6-13.2-4.9q-0.1 2.8-0.2 5.6 0 0.4 0.1 0.9 0 0.1 0 0.3 0.1 0.1 0.1 0.2 0.1 0 0.1 0 0 0.1 0.1 0.2 0 0 0 0 0.1 0.1 0.1 0.1 0 0.1 0.1 0.1 0 0.1 0.1 0.1 0 0 0.1 0.1 0 0 0.1 0 0 0.1 0.1 0.1 0 0 0.1 0.1 0 0 0.1 0 0 0.1 0.1 0.1 0 0 0.1 0.1c0.7 0.3 1.5 0.5 2 0.9q0.2 0.2 0.4 0.3 1 0.8 1.8 1.7 0 0 0 0 0.5 0.6 0.9 1.3 0.5 0.6 0.9 1.3 0.6 0.9 1.3 1.8 0.9 1.4 1.9 2.9 0.6 0.9 1.3 1.9 0 0 0 0 0.8 1.2 1.6 2.4 0 0 0 0 0.6 0.9 1.3 1.8 0 0 0 0 0.9 1.4 1.8 2.8 0 0 0 0 0.3 0.4 0.6 0.8 1.1 1.7 2.3 3.4-0.1 0-0.1 0 1.2 1.7 2.4 3.4 0.1 0.2 0.2 0.3c0.4 0.6 0.9 1.3 1.6 1.7 0.7 0.5 1.5 0.6 2.3 0.6q0.1 0 0.1 0 0.1 0 0.3 0 0.1 0 0.2 0 0.1 0 0.2 0 0.2 0 0.4-0.1c1.2-0.1 2.9-0.2 4.4-0.6q0.7-0.1 1.3-0.4c0.6-0.2 1.2-0.6 1.6-1 0.6-0.7 0.9-1.6 0.6-2.8q-0.6-3-1.5-5.9c-3.9-1-7-3.6-9.2-7.2z"/>
							</g>
						</g>
						<g>
							<g>
								<g>
									<path class="s11" d="m717.9 394.3c-0.3 0-0.6 0.2-0.9 0.4-2 1.2-4.2 2-6.4 1.7-6.4-0.7-4.8-7.5-5.1-11.9-0.2-3.1-1.6-6.2-4-8.2-3.7-3.3-8.8-3.4-13.4-2-4.3 1.3-8 4.1-10.7 7.8-2 2.8-4.9 7.9-4.4 11.5 0.3 2.8 4.1 4 6.4 3.3 1.6-0.6 2.1-2.1 3-3.4 2.1-3.1 6-4.2 8.7-1.3 3.4 3.3 2.7 9.4 4.3 13.7 2.2 5.6 7.6 9.9 13.6 10.9 1.5 0.3 3.1 0.1 4.1-1.1 0.6-0.7 0.9-1.4 1.3-2.2 2.3-5.8 3.7-11.9 4.8-18.1 0.1-0.2 0.1-0.4 0-0.6-0.1-0.4-0.6-0.6-1-0.6q-0.2 0-0.3 0.1z"/>
									<g>
										<path class="s12" d="m697.1 379.6c6.2 4.5 4.2 14 10.2 18.8 2.5 2 6.4 2.4 9.5 2q0.8-0.1 1.5-0.3 0.5-2.3 0.9-4.7c0.1-0.2 0.1-0.4 0-0.6-0.1-0.4-0.6-0.6-1-0.6q-0.2 0-0.3 0.1c-0.3 0-0.6 0.2-0.9 0.4-2 1.2-4.2 2-6.4 1.7-6.4-0.7-4.8-7.5-5.1-11.9-0.2-3.1-1.6-6.2-4-8.2-3.7-3.3-8.8-3.4-13.4-2-4.3 1.3-8 4.1-10.7 7.8-2 2.8-4.9 7.9-4.4 11.5 0 0.7 0.3 1.3 0.7 1.7 2.9-9.7 12.6-23.6 23.4-15.7z"/>
										<path class="s12" d="m678.4 397.1c1.9-4.7 5.1-9.8 9.7-11.3 4.3-1.5 7.2 2.5 9.1 5.7 2.9 5.2 4.5 12.9 10.7 15 2.7 1 5.8 1.1 8.6 0.8q0.7-2.3 1.2-4.6c-1.9 0.2-3.9 0.2-5.5 0-6.6-0.9-9.9-5.9-11.8-12-1.2-4-1.7-8-5.9-10.3-3.5-1.8-6.8-1.3-9.9 1.1-4.4 3.6-7.9 9.4-9.4 15 1 0.4 2.1 0.7 3.2 0.6z"/>
										<path class="s12" d="m711 409.7c-2.3-0.3-4.7-0.9-6.7-2.2-2.7-1.8-4.1-4.6-5.4-7.4-1.1-2.3-2.2-4.7-3.4-7-1-1.8-2.1-3.8-3.8-4.9-2.7-1.8-5.4 0.6-7.3 2.5-1.5 1.6-2.7 3.4-3.7 5.3 0.7-0.7 1.1-1.7 1.7-2.5 2.1-3.1 6-4.1 8.7-1.3 3.4 3.3 2.7 9.4 4.3 13.7 2.2 5.6 7.6 10 13.6 10.9 1.5 0.3 3.1 0.1 4.1-1.1 0.6-0.7 0.9-1.4 1.3-2.2q0.7-1.8 1.3-3.7-2.3 0.2-4.7-0.1z"/>
									</g>
								</g>
								<path class="s29" d="m697.5 403.6c-0.5-5 1.5-12.3-3-16-3.7-2.9-9.3-1.3-13.5-2.3-1.8-0.4-3.2-1.3-4.2-2.4q-0.1 0.2-0.2 0.3-0.2 0.3-0.4 0.7c-1.4 2.2-2.8 5-3.2 7.6q-0.2 1.1 0 2.1 0 0.3 0.1 0.5 0 0.2 0.1 0.4 0 0 0 0.1 0.1 0.2 0.2 0.4 0 0 0 0c0.5 0.6 1.1 1.1 1.8 1.5q0.7 0.3 1.5 0.5 0.1 0 0.1 0 0.2 0 0.3 0 0.1 0 0.1 0 0.2 0.1 0.4 0.1 0 0 0.1 0 0.2 0 0.5 0 0.1 0 0.2 0 0 0 0 0 0.5-0.1 1-0.2c0.6-0.3 1.1-0.7 1.5-1.1q0 0 0 0c0.4-0.6 0.8-1.2 1.1-1.7q0.1-0.1 0.1-0.2 0.1-0.1 0.1-0.1 0.1-0.2 0.2-0.3 0 0 0 0c2.1-3.1 6-4.2 8.7-1.3q0.7 0.6 1.1 1.4 0.3 0.5 0.6 1.1 0.2 0.4 0.3 0.9 0.2 0.4 0.3 0.8c0.6 2.1 0.8 4.4 1.2 6.5q0.1 0.4 0.2 0.9 0.1 0.4 0.2 0.8 0.2 0.7 0.4 1.3 0.4 1 1 2 0.8 1.5 2 2.8c1.2 1.5 2.6 2.7 4.3 3.7q0.4 0.3 0.8 0.5c-3.1-3.1-5.4-6.9-6-11.3z"/>
							</g>
							<g>
								<g>
									<path class="s6" d="m626 412.5c-2.5-1.8-6-0.4-9.3 0.5-3.7 1.1-7.4 2.4-10.9 4q-2.6 1.2-5.1 2.6c-1.3 0.7-3 1.3-3.4 2.8-0.2 0.5-0.2 1-0.1 1.6 0.2 2.8 1 5.6 2.1 8.2 1.6 3.8 3.6 7.2 8.2 5.6 4.6-1.6 8.8-4.1 12.6-7.1 1.7-1.3 3.2-2.7 4.8-4.1 1.5-1.3 3.2-2.6 4-4.5 0.9-2.3 0.1-5.2-1-7.3-0.5-1.1-1.2-1.8-1.9-2.3z"/>
									<path class="s2" d="m605.8 426.5c-1.4-2.6-2.4-5.3-2.9-8.1q-1.1 0.6-2.2 1.2c-1.3 0.7-3 1.3-3.4 2.8-0.2 0.5-0.2 1-0.1 1.6 0.2 2.8 1 5.6 2.1 8.2 1.6 3.8 3.6 7.2 8.2 5.6q3.1-1.1 5.9-2.6c-3.3-2.1-6-5.7-7.6-8.7z"/>
								</g>
								<path class="s28" d="m626 412.5c-2.5-1.8-6-0.4-9.3 0.5q-2.6 0.8-5.2 1.7c0.5 4.2-0.7 8.2-2.5 12q-0.2 0.8-0.5 1.4c-1.5 3.4-3.4 6.5-5.7 9.3 1.2 0.8 2.7 1.1 4.7 0.4 4.6-1.6 8.8-4.1 12.6-7.1 1.7-1.3 3.2-2.7 4.8-4.1 1.5-1.3 3.2-2.6 4-4.5 0.9-2.3 0.1-5.2-1-7.3-0.5-1.1-1.2-1.8-1.9-2.3z"/>
							</g>
							<g>
								<g>
									<path class="s6" d="m653.3 418.8c-2.4 1.9-2.1 5.7-2.1 9 0 3.9 0.3 7.8 0.9 11.7q0.4 2.8 1.1 5.6c0.3 1.4 0.4 3.2 1.7 4 0.5 0.3 1 0.4 1.5 0.5 2.8 0.6 5.6 0.6 8.5 0.3 4.1-0.6 7.9-1.6 7.6-6.4-0.2-4.8-1.5-9.6-3.3-14-0.8-2-1.8-3.9-2.7-5.8-0.8-1.8-1.6-3.8-3.2-5.1-1.9-1.5-5-1.5-7.3-1-1.2 0.2-2.1 0.6-2.7 1.2z"/>
									<path class="s2" d="m661.2 442c-2.9 0.7-5.8 0.8-8.6 0.6q0.3 1.3 0.6 2.5c0.3 1.4 0.4 3.2 1.7 4 0.5 0.3 1 0.4 1.5 0.5 2.8 0.6 5.6 0.6 8.5 0.3 4.1-0.6 7.9-1.6 7.6-6.4q-0.2-3.2-0.9-6.4c-2.9 2.6-7 4.2-10.4 4.9z"/>
								</g>
								<path class="s28" d="m653.3 418.8c-2.4 1.9-2.1 5.7-2.1 9q0 2.8 0.2 5.5c4.2 0.7 7.8 2.9 10.9 5.7q0.6 0.5 1.2 0.9c2.8 2.3 5.3 5 7.4 8 1.1-0.9 1.7-2.3 1.6-4.4-0.2-4.8-1.5-9.6-3.3-14-0.8-2-1.8-3.9-2.7-5.8-0.8-1.8-1.6-3.8-3.2-5.1-1.9-1.5-5-1.5-7.3-1-1.2 0.2-2.1 0.6-2.7 1.2z"/>
							</g>
						</g>
						<g>
							<g>
								<g>
									<path class="s6" d="m682.4 393.8c-10.8-10.3-27.5-4.6-39.2 0.7q-0.1 0-0.2 0.1c1.3-0.6-3.5-8.1-4.1-9-5-8.4-10.9-16.5-21.1-18.5-7.7-1.6-16.3-0.2-22.7 4.5-6.6 4.8-10.6 13.2-7.4 21.1 3.3 8.3 12.7 12 20.9 8.7 4.7-1.9 9.2-4.8 13.6-7.4q1.1-0.6 2.1-1.3c-0.4 2.6-0.6 5.2-0.7 7.8-0.4 6.6-1 13.8 0.8 20.3 1.8 6.5 6.4 11.9 13.2 13.4 6.3 1.4 13.1 0.1 19.3-1.5 11.9-3.1 27-8.5 30.5-21.9 1.5-6.2-0.4-12.6-5-17z"/>
									<g>
										<path class="s30" d="m635.6 350.7c-1.6-1.1-3.5-1.1-5 0-1.6 1.1-2.8 2.8-3.8 4.5-0.9 1.7-1.6 3.6-2.1 5.5-0.5 2.3-0.8 4.7-0.9 7.1-0.1 2.6 0.1 5.1 0.3 7.7 0 0.5 0.7 0.5 0.8 0q0 0 0-0.1c0.2 0.1 0.5 0.1 0.7-0.1 1.8-1.3 3.3-2.9 4.9-4.5 1.3-1.4 2.7-2.9 3.9-4.5 2.2-2.9 4.6-6.8 4-10.9-0.3-1.9-1.2-3.6-2.8-4.7z"/>
										<g>
											<path class="s2" d="m631.3 355.2c-4.5 1.5-4.2 8.8-4.4 12.7 0 1.3 0.2 4.1 1.8 1.8q2.8-3.9 5.6-7.9c0.6-0.8 1.2-1.6 1.4-2.6 0.8-2.7-1.8-5-4.4-4z"/>
											<path class="s10" d="m630.9 365.3c-1-1.1-1.9-2.4-2.8-3.5q-0.3-0.5-0.7-0.9c-0.4 2.4-0.4 5.1-0.5 7 0 1.3 0.2 4.1 1.8 1.8q1.3-1.8 2.5-3.5-0.2-0.5-0.3-0.9z"/>
										</g>
									</g>
								</g>
								<g>
									<path class="s31" d="m684.3 395.8q0 1.1-0.1 2.2c-1.3 14.7-14.1 26.1-28.4 27.7-8.3 1-15.8-3-20.8-9.5-2.5-3.2-4.7-6.8-6.6-10.5q-1.4-2.8-2.5-5.8-0.6-1.3-1.1-2.8c-0.2-0.6-0.8-1.8-0.7-2.5q-0.4 3-0.5 5.9c-0.4 6.6-1 13.8 0.8 20.3 1.8 6.5 6.4 11.9 13.2 13.4 6.3 1.4 13.1 0.1 19.3-1.5 11.9-3.1 27-8.5 30.5-21.9 1.3-5.3 0.1-10.7-3.1-15z"/>
									<path class="s32" d="m624.7 392q0.4-0.7 0.7-1.5c-3.1 1.5-8.8 3.6-12.1 4.4-4.2 1-8.5 2.2-12.8 2.6-4.4 0.5-8.7-0.6-12.1-3.4q0 0-0.1-0.1c3.8 7.4 12.6 10.5 20.3 7.4 4.7-1.9 9.2-4.8 13.6-7.4 0.4-0.2 1.3-0.7 1.9-1.1q0.3-0.4 0.6-0.9z"/>
								</g>
								<g>
									<g>
										<path class="s2" d="m608.5 394c0-4.3-1-8.6-3.1-12.3-2.5-4.2-6.4-6.9-10.5-9.4q-0.2-0.1-0.5-0.2c-6.1 4.8-9.8 13-6.7 20.6 3.2 7.9 11.8 11.7 19.7 9.1 0.6-2.6 1.2-5.1 1.1-7.8z"/>
										<path class="s10" d="m598 386.7q-0.1-0.1-0.2-0.2 0 0-0.1-0.1-0.1-0.1-0.2-0.3-0.1-0.2-0.3-0.3c-0.3-0.3-0.6-0.6-1-0.7-0.6-0.1-1.2 0.2-1.5 0.7-0.2 0.5-0.1 1 0 1.5q0 0 0 0.1c0 0.4 0.1 0.9 0.2 1.3 0.2 0.9 0.7 1.7 1.3 2.4 0.3 0.4 0.8 0.7 1.3 0.8q0.5 0 0.9-0.3 0.3-0.2 0.5-0.6c0.3-0.5 0.2-1 0.2-1.5q-0.1-0.6-0.4-1.2-0.3-0.9-0.7-1.6z"/>
									</g>
									<path class="s2" d="m618.6 374.6c-0.4 0-0.7 0.3-0.8 0.6-0.1 0.3-0.1 0.6-0.1 0.9 0 0.1-0.1 0.3-0.1 0.4q0 0.3-0.1 0.6c0 0.2-0.1 0.4-0.2 0.5 0 0.1-0.1 0.4-0.2 0.5q-0.1 0.1-0.1 0.2c0 0-0.1 0.2-0.1 0.2q-0.1 0.1-0.3 0.2 0 0 0 0.1 0 0-0.1 0-0.1 0.1-0.2 0.1 0 0 0 0.1-0.1 0-0.1 0-0.1 0-0.2 0c-0.1 0-0.2 0.1-0.2 0.1q-0.1 0-0.2 0-0.1 0-0.1 0 0 0 0 0c-0.1-0.1-0.2-0.1-0.2-0.1q-0.1 0-0.2-0.1-0.1 0-0.1 0 0 0 0-0.1-0.1-0.1-0.2-0.2c0 0-0.1-0.1-0.1-0.1q-0.1-0.2-0.2-0.3-0.1-0.3-0.3-0.5c-0.2-0.4-0.4-0.9-0.6-1.3-0.2-0.2-0.4-0.3-0.7-0.3-0.2 0.1-0.5 0.3-0.5 0.5-0.1 0.7 0.1 1.3 0.4 1.9 0.2 0.5 0.5 0.9 0.8 1.3 0.7 0.9 1.9 1.2 2.9 0.9 1.1-0.3 1.9-1.1 2.3-2.1q0.4-0.7 0.5-1.5c0.1-0.6 0.2-1.3 0.1-1.9 0-0.4-0.5-0.6-0.8-0.6z"/>
									<path class="s2" d="m620.5 386.1c-0.7-0.4-1.5-0.7-2.3-0.8-1.4-0.1-3.4 0.3-4.2 1.6-0.2 0.3 0.1 0.7 0.4 0.6 0.7-0.2 1.3-0.4 1.9-0.6q0.2 0 0.4 0c-0.2 0.2-0.2 0.4-0.2 0.7q-0.1 0.6-0.3 1.2-0.2 1-0.6 2.1c-0.5 1.4-1.3 2.8-2.1 4.1-0.9 1.2-2 2.4-3.1 3.3q-0.9 0.8-1.8 1.5c-0.6 0.4-1.4 0.7-1.9 1.3-0.2 0.2 0 0.6 0.3 0.6 0.8-0.1 1.5-0.6 2.2-0.9q1.1-0.6 2-1.4 1.9-1.6 3.4-3.6 1.5-2 2.3-4.3 0.4-1 0.7-2c0.1-0.2 0.1-0.5 0.2-0.7q0-0.1 0-0.3c0.1-0.4 0.2-0.9 0.2-1.3q0-0.2-0.1-0.4 0.1 0 0.1 0c0.7 0.1 1.2 0.3 1.7 0.6 0.3 0.2 0.5 0.3 0.7 0.5 0.3 0.2 0.5 0.5 0.7 0.7 0.7 0.6 1.6-0.1 1.2-0.9-0.4-0.7-1.2-1.2-1.8-1.6z"/>
									<path class="s12" d="m624.7 378.3c-1-1-2.7-1.1-3.9-0.2-1.1 0.8-1.7 2.3-1.2 3.7 0.2 0.7 0.6 1.3 1.2 1.7q0.3 0.2 0.6 0.3c1.5 0.6 3.2-0.2 3.9-1.6 0.6-1.2 0.5-2.9-0.6-3.9z"/>
								</g>
							</g>
							<g>
								<g>
									<g>
										<path class="s6" d="m683.3 417.1c-4.1-5-9.2-11.2-15.9-12.7-3-0.7-5.9 0.3-6.3 3.7-0.1 1.3 0.1 2.6 0.4 3.9 1.9 8.2 4.6 16.6 8.6 24.1 2.5 4.9 6.4 12.8 12.3 11.3 2.2-0.6 4.1-2.2 5.7-3.6 2.2-1.9 4.3-3.8 6.3-5.8 1.3-1.3 0.8-3.9-0.3-5.5-3.3-5.3-6.7-10.6-10.8-15.4z"/>
										<path class="s2" d="m682.6 435.5c-3.1 2.1-6.2 4.3-9.4 6.2 2.4 3.6 5.4 6.6 9.2 5.7 2.2-0.6 4.1-2.2 5.7-3.6 2.2-1.9 4.3-3.8 6.3-5.8 1.3-1.3 0.8-3.9-0.3-5.5q-1.2-2-2.6-4c-2.6 2.6-5.7 4.9-8.9 7z"/>
										<path class="s28" d="m683.3 417.1c-4.1-5-9.2-11.2-15.9-12.7-1.1-0.3-2.3-0.3-3.2 0 1.5 1.1 2.7 2.5 4 4 1.8 2 3.5 4.2 5 6.5 2.7 4.4 5.6 9.3 6.9 14.3 1.2 4.9 0.9 10.3-2.1 14.5q-0.8 1-1.6 1.8c1.7 1.6 3.7 2.5 6 1.9 2.2-0.6 4.1-2.2 5.7-3.6 2.2-1.9 4.3-3.8 6.3-5.9 1.3-1.2 0.8-3.8-0.3-5.4-3.3-5.3-6.7-10.6-10.8-15.4z"/>
									</g>
								</g>
								<g>
									<g>
										<path class="s6" d="m650 435.6c-0.6-6.5-1.2-14.5-5.8-19.5-2.1-2.3-5.1-3.1-7.3-0.5-0.9 1-1.4 2.2-1.9 3.4-3.1 7.8-5.7 16.3-6.7 24.7-0.6 5.5-1.9 14.1 3.8 16.3 2.1 0.8 4.6 0.5 6.7 0.3 2.9-0.3 5.7-0.7 8.5-1.2 1.7-0.4 2.8-2.8 2.9-4.7 0.2-6.3 0.4-12.6-0.2-18.8z"/>
										<path class="s2" d="m639 450.4c-3.7-0.1-7.5 0-11.3-0.3-0.1 4.3 0.6 8.5 4.4 9.9 2.1 0.8 4.6 0.5 6.7 0.3 2.9-0.3 5.7-0.7 8.5-1.2 1.7-0.4 2.8-2.8 2.9-4.7q0.1-2.4 0.1-4.8c-3.7 0.7-7.5 0.8-11.3 0.8z"/>
										<path class="s28" d="m650 435.6c-0.6-6.5-1.2-14.5-5.8-19.5-0.8-0.9-1.7-1.5-2.7-1.8 0.6 1.7 0.9 3.6 1.1 5.5 0.2 2.7 0.4 5.5 0.3 8.3-0.2 5.1-0.6 10.8-2.4 15.6-1.8 4.8-5.1 9-10 10.7q-1.2 0.5-2.4 0.6c0.6 2.3 1.7 4.1 4 5 2.1 0.8 4.6 0.5 6.7 0.3 2.9-0.3 5.7-0.7 8.5-1.2 1.7-0.4 2.8-2.8 2.9-4.7 0.2-6.3 0.4-12.6-0.2-18.8z"/>
									</g>
								</g>
							</g>
						</g>
					</g>
				</g>
			</g>
		</g>
	</g>
</svg>