<svg viewBox="0 0 43.02 29.97" xmlns="http://www.w3.org/2000/svg"><g data-name="Capa 1"><circle cx="7.99" cy="14.65" fill="#3e9c92" r="1.24"/><path d="m1.56 3.58h39.9v20.31h-39.9z" fill="#3e9c92" transform="matrix(.98 -.19 .19 .98 -2.21 4.31)"/><path d="m4.71 24.35-2.71-14.24a1.44 1.44 0 0 0 1.15-1.7l33.46-6.41a1.44 1.44 0 0 0 1.7 1.15l2.74 14.25a1.44 1.44 0 0 0 -1.15 1.7l-33.49 6.4a1.46 1.46 0 0 0 -1.7-1.15z" fill="#78b3a5"/><g fill="#3e9c92"><ellipse cx="21.51" cy="13.74" rx="5.47" ry="6.93" transform="matrix(.98202466 -.18875266 .18875266 .98202466 -2.21 4.31)"/><circle cx="36.73" cy="10.81" r="1.24"/><circle cx="6.29" cy="16.66" r="1.24"/></g><path d="m22.27 19.27-.18-1a5.79 5.79 0 0 1 -3.53-.82l.74-1.33a4.76 4.76 0 0 0 2.51.71l-.49-2.57a5.41 5.41 0 0 1 -2.32-.48 2.13 2.13 0 0 1 -1-1.59 2.48 2.48 0 0 1 .44-2 3.26 3.26 0 0 1 1.85-1.19l-.12-.67.83-.18.13.68a5.63 5.63 0 0 1 2.94.46l-.62 1.38a4.31 4.31 0 0 0 -2-.4l.48 2.48a5.54 5.54 0 0 1 2.41.54 2.22 2.22 0 0 1 1.06 1.63 2.45 2.45 0 0 1 -.4 2.08 3.46 3.46 0 0 1 -2 1.21l.18.95zm-2.57-8.35a1 1 0 0 0 .2 1.45 2.81 2.81 0 0 0 1.11.31l-.44-2.29a1.64 1.64 0 0 0 -.87.53zm3.9 5.26a1 1 0 0 0 .22-.84 1 1 0 0 0 -.43-.67 2.76 2.76 0 0 0 -1.18-.3l.45 2.37a1.85 1.85 0 0 0 .94-.56z" fill="#78b3a5"/><path d="m42.28 26.56c0 1.88-3.63 3.41-8.11 3.41s-8.1-1.53-8.1-3.41v-2.78h16.21z" fill="#e8bb5c"/><ellipse cx="34.17" cy="23.77" fill="#eecb66" rx="8.1" ry="3.4"/><path d="m34.17 21c-3.9 0-7.07 1.23-7.07 2.75s3.17 2.74 7.07 2.74 7.08-1.23 7.08-2.74-3.17-2.75-7.08-2.75zm0 5.18c-3.47 0-6.28-1.09-6.28-2.43s2.81-2.44 6.28-2.44 6.29 1.09 6.29 2.44-2.81 2.46-6.29 2.46z" fill="#d38446"/><path d="m33.92 25.67v-.33a10.5 10.5 0 0 1 -2.9-.5l.86-.4a7.85 7.85 0 0 0 2 .4v-.84a10 10 0 0 1 -2-.32c-.42-.14-.62-.34-.62-.6s.23-.48.71-.65a6.44 6.44 0 0 1 1.86-.27v-.23h.75v.23a10.73 10.73 0 0 1 2.45.35l-.77.42a7.87 7.87 0 0 0 -1.68-.27v.86a9.57 9.57 0 0 1 2 .34c.42.14.63.34.63.61s-.24.48-.73.65a6.51 6.51 0 0 1 -1.93.27v.33zm-.84-3c-.2.07-.3.15-.3.26s.08.18.24.24a5.12 5.12 0 0 0 .9.17v-.74a2.89 2.89 0 0 0 -.84.12zm2.49 2c.22-.07.33-.15.33-.26s-.09-.19-.26-.25a4.28 4.28 0 0 0 -1-.18v.82a3.38 3.38 0 0 0 .93-.08z" fill="#d38446"/><path d="m42.28 23.18c0 1.88-3.63 3.4-8.11 3.4s-8.1-1.52-8.1-3.4v-2.79h16.21z" fill="#e8bb5c"/><ellipse cx="34.17" cy="20.39" fill="#eecb66" rx="8.1" ry="3.4"/><path d="m34.17 17.65c-3.9 0-7.07 1.23-7.07 2.74s3.17 2.74 7.07 2.74 7.08-1.22 7.08-2.74-3.17-2.74-7.08-2.74zm0 5.18c-3.47 0-6.28-1.09-6.28-2.44s2.81-2.39 6.28-2.39 6.29 1.1 6.29 2.44-2.81 2.39-6.29 2.39z" fill="#d38446"/><path d="m33.92 22.28v-.28a10.14 10.14 0 0 1 -2.9-.5l.86-.39a7.84 7.84 0 0 0 2 .39v-.88a9.79 9.79 0 0 1 -2-.33c-.42-.13-.62-.33-.62-.59s.23-.48.71-.65a5.81 5.81 0 0 1 1.86-.27v-.28h.75v.23a10.73 10.73 0 0 1 2.45.34l-.77.42a7.88 7.88 0 0 0 -1.68-.26v.86a9.71 9.71 0 0 1 2 .33c.42.14.63.34.63.61s-.24.48-.73.65a6.48 6.48 0 0 1 -1.93.28v.32zm-.84-2.94c-.2.06-.3.15-.3.25s.08.18.24.24a4.87 4.87 0 0 0 .9.18v-.8a3.22 3.22 0 0 0 -.84.13zm2.49 2q.33-.11.33-.27c0-.1-.09-.19-.26-.25a5.85 5.85 0 0 0 -1-.18v.83a3.85 3.85 0 0 0 .93-.13z" fill="#d38446"/></g></svg>